<svg width="24" height="24" viewBox="0 0 24 24" fill="none" xmlns="http://www.w3.org/2000/svg">
<g clip-path="url(#clip0_205_398)">
<path d="M19 2C19.7956 2 20.5587 2.31607 21.1213 2.87868C21.6839 3.44129 22 4.20435 22 5V19C22 19.7956 21.6839 20.5587 21.1213 21.1213C20.5587 21.6839 19.7956 22 19 22H5C4.20435 22 3.44129 21.6839 2.87868 21.1213C2.31607 20.5587 2 19.7956 2 19V5C2 4.20435 2.31607 3.44129 2.87868 2.87868C3.44129 2.31607 4.20435 2 5 2H19ZM11.613 8.21C11.4206 8.06075 11.1803 7.98683 10.9373 8.00211C10.6943 8.01739 10.4652 8.12082 10.293 8.293L10.21 8.387C10.0607 8.5794 9.98683 8.81966 10.0021 9.06268C10.0174 9.30571 10.1208 9.53481 10.293 9.707L12.585 12L10.293 14.293L10.21 14.387C10.0546 14.588 9.98151 14.8406 10.0056 15.0935C10.0297 15.3464 10.1492 15.5807 10.3397 15.7488C10.5303 15.9168 10.7777 16.006 11.0316 15.9982C11.2856 15.9905 11.527 15.8863 11.707 15.707L14.707 12.707L14.79 12.613C14.9393 12.4206 15.0132 12.1803 14.9979 11.9373C14.9826 11.6943 14.8792 11.4652 14.707 11.293L11.707 8.293L11.613 8.21Z" fill="#2A6F2B"/>
</g>
<defs>
<clipPath id="clip0_205_398">
<rect width="24" height="24" fill="white"/>
</clipPath>
</defs>
</svg>
