<svg width="32" height="32" viewBox="0 0 32 32" fill="none" xmlns="http://www.w3.org/2000/svg">
<g clip-path="url(#clip0_202_133)">
<path d="M9.33331 12.8895C9.33331 11.9464 9.70796 11.0419 10.3748 10.375C11.0417 9.70814 11.9462 9.3335 12.8893 9.3335H24.444C24.911 9.3335 25.3734 9.42547 25.8048 9.60418C26.2362 9.78289 26.6282 10.0448 26.9585 10.375C27.2887 10.7052 27.5506 11.0972 27.7293 11.5287C27.908 11.9601 28 12.4225 28 12.8895V24.4442C28 24.9111 27.908 25.3736 27.7293 25.805C27.5506 26.2364 27.2887 26.6284 26.9585 26.9586C26.6282 27.2888 26.2362 27.5508 25.8048 27.7295C25.3734 27.9082 24.911 28.0002 24.444 28.0002H12.8893C12.4223 28.0002 11.9599 27.9082 11.5285 27.7295C11.0971 27.5508 10.705 27.2888 10.3748 26.9586C10.0446 26.6284 9.7827 26.2364 9.604 25.805C9.42529 25.3736 9.33331 24.9111 9.33331 24.4442V12.8895Z" stroke="black" stroke-width="2" stroke-linecap="round" stroke-linejoin="round"/>
<path d="M5.34933 22.316C4.94046 22.0829 4.60036 21.746 4.36343 21.3393C4.1265 20.9327 4.00113 20.4707 4 20V6.66667C4 5.2 5.2 4 6.66667 4H20C21 4 21.544 4.51333 22 5.33333" stroke="black" stroke-width="2" stroke-linecap="round" stroke-linejoin="round"/>
</g>
<defs>
<clipPath id="clip0_202_133">
<rect width="32" height="32" fill="white"/>
</clipPath>
</defs>
</svg>
