<svg width="557" height="553" viewBox="0 0 557 553" fill="none" xmlns="http://www.w3.org/2000/svg">
<rect x="166" y="190" width="228" height="228" rx="12" fill="#EAFFB8"/>
<rect x="263" width="294" height="174" rx="12" fill="#EAFFB8"/>
<path d="M0 12C0 5.37258 5.37258 0 12 0H235C241.627 0 247 5.37258 247 12V162C247 168.627 241.627 174 235 174H162C155.373 174 150 179.373 150 186V230C150 236.627 144.627 242 138 242H12C5.37258 242 0 236.627 0 230V12Z" fill="#EAFFB8"/>
<path d="M0 270C0 263.373 5.37258 258 12 258H138C144.627 258 150 263.373 150 270V406C150 412.627 144.627 418 138 418H12C5.37258 418 0 412.627 0 406V270Z" fill="#EAFFB8"/>
<path d="M411.06 202C411.06 195.373 416.433 190 423.06 190H545C551.627 190 557 195.373 557 202V541C557 547.627 551.627 553 545 553H309C302.373 553 297 547.627 297 541V445.912C297 439.285 302.373 433.912 309 433.912H399.06C405.687 433.912 411.06 428.539 411.06 421.912V202Z" fill="#EAFFB8"/>
<path d="M0 459.836V446C0 439.373 5.37258 434 12 434H176.149H269C275.627 434 281 439.373 281 446V541C281 547.627 275.627 553 269 553H12C5.37259 553 0 547.627 0 541V459.836Z" fill="#EAFFB8"/>
<g clip-path="url(#clip0_233_422)">
<path d="M34 506C34.3495 506.001 34.6926 506.094 34.9948 506.269C35.2971 506.445 35.5479 506.697 35.722 507H36C37.0609 507 38.0783 506.579 38.8284 505.828C39.5786 505.078 40 504.061 40 503C40.0002 502.399 39.8634 501.807 39.6 501.267C38.3282 502.384 36.693 503 35 503C34.7348 503 34.4804 502.895 34.2929 502.707C34.1054 502.52 34 502.265 34 502C34 501.735 34.1054 501.48 34.2929 501.293C34.4804 501.105 34.7348 501 35 501C36.3261 501 37.5979 500.473 38.5355 499.536C39.4732 498.598 40 497.326 40 496C40 494.674 39.4732 493.402 38.5355 492.464C37.5979 491.527 36.3261 491 35 491C34.939 491 34.882 491.016 34.822 491.018C34.6408 490.499 34.3202 490.04 33.8953 489.691C33.4705 489.342 32.9577 489.116 32.4133 489.039C31.8689 488.963 31.3138 489.037 30.8088 489.255C30.3039 489.472 29.8686 489.825 29.5507 490.273C29.2328 490.722 29.0445 491.249 29.0065 491.798C28.9684 492.346 29.0821 492.895 29.3351 493.383C29.5881 493.871 29.9705 494.28 30.4406 494.565C30.9107 494.851 31.4502 495.001 32 495H32.278C32.4981 494.619 32.8379 494.321 33.2447 494.152C33.6514 493.984 34.1024 493.954 34.5277 494.068C34.953 494.182 35.3287 494.433 35.5968 494.782C35.8648 495.132 36.0101 495.56 36.0101 496C36.0101 496.44 35.8648 496.868 35.5968 497.217C35.3287 497.567 34.953 497.818 34.5277 497.932C34.1024 498.046 33.6514 498.016 33.2447 497.848C32.8379 497.679 32.4981 497.381 32.278 497H32C31.2209 496.998 30.4532 496.813 29.7585 496.46C29.0638 496.107 28.4615 495.597 28 494.969C27.5385 495.597 26.9362 496.107 26.2415 496.46C25.5468 496.813 24.7791 496.998 24 497H23.722C23.5019 497.381 23.1621 497.679 22.7553 497.848C22.3486 498.016 21.8976 498.046 21.4723 497.932C21.047 497.818 20.6713 497.567 20.4032 497.217C20.1352 496.868 19.9899 496.44 19.9899 496C19.9899 495.56 20.1352 495.132 20.4032 494.782C20.6713 494.433 21.047 494.182 21.4723 494.068C21.8976 493.954 22.3486 493.984 22.7553 494.152C23.1621 494.321 23.5019 494.619 23.722 495H24C24.5513 495.002 25.0927 494.853 25.5645 494.567C26.0364 494.282 26.4205 493.873 26.6747 493.383C26.929 492.894 27.0435 492.344 27.0057 491.794C26.9678 491.244 26.7792 490.715 26.4604 490.265C26.1416 489.816 25.705 489.462 25.1986 489.244C24.6921 489.026 24.1354 488.952 23.5896 489.03C23.0437 489.108 22.5299 489.334 22.1045 489.685C21.679 490.036 21.3585 490.497 21.178 491.018C21.118 491.016 21.061 491 21 491C19.6739 491 18.4021 491.527 17.4645 492.464C16.5268 493.402 16 494.674 16 496C16 497.326 16.5268 498.598 17.4645 499.536C18.4021 500.473 19.6739 501 21 501C21.2652 501 21.5196 501.105 21.7071 501.293C21.8946 501.48 22 501.735 22 502C22 502.265 21.8946 502.52 21.7071 502.707C21.5196 502.895 21.2652 503 21 503C19.307 503 17.6718 502.384 16.4 501.267C16.1366 501.807 15.9998 502.399 16 503C16 504.061 16.4214 505.078 17.1716 505.828C17.9217 506.579 18.9391 507 20 507H20.278C20.4981 506.619 20.8379 506.321 21.2447 506.152C21.6514 505.984 22.1024 505.954 22.5277 506.068C22.953 506.182 23.3287 506.433 23.5968 506.782C23.8648 507.132 24.0101 507.56 24.0101 508C24.0101 508.44 23.8648 508.868 23.5968 509.217C23.3287 509.567 22.953 509.818 22.5277 509.932C22.1024 510.046 21.6514 510.016 21.2447 509.848C20.8379 509.679 20.4981 509.381 20.278 509H20C18.9537 508.999 17.926 508.723 17.02 508.2C17.0723 509.506 17.6344 510.739 18.5857 511.634C19.537 512.53 20.8016 513.017 22.108 512.991C23.4144 512.965 24.6585 512.428 25.5731 511.494C26.4878 510.561 27.0001 509.307 27 508V503.723C26.6187 503.503 26.3207 503.163 26.1522 502.756C25.9838 502.35 25.9542 501.899 26.0681 501.473C26.1821 501.048 26.4332 500.672 26.7825 500.404C27.1318 500.136 27.5597 499.991 28 499.991C28.4403 499.991 28.8682 500.136 29.2175 500.404C29.5668 500.672 29.8179 501.048 29.9319 501.473C30.0458 501.899 30.0162 502.35 29.8478 502.756C29.6793 503.163 29.3813 503.503 29 503.723V508C28.9999 509.307 29.5122 510.561 30.4269 511.494C31.3415 512.428 32.5856 512.965 33.892 512.991C35.1984 513.017 36.463 512.53 37.4143 511.634C38.3656 510.739 38.9277 509.506 38.98 508.2C38.074 508.723 37.0463 508.999 36 509H35.722C35.5462 509.304 35.2934 509.557 34.9889 509.733C34.6843 509.908 34.3389 510 33.9874 510C33.6359 510 33.2908 509.906 32.9867 509.73C32.6826 509.554 32.4304 509.3 32.2554 508.996C32.0804 508.691 31.9889 508.345 31.99 507.994C31.9911 507.642 32.0848 507.297 32.2617 506.993C32.4386 506.69 32.6924 506.438 32.9976 506.264C33.3028 506.089 33.6485 505.998 34 506Z" fill="#043F2E"/>
</g>
<path d="M17.4382 523.909H19.8352L24.0028 534.085H24.1562L28.3239 523.909H30.7209V537H28.8416V527.527H28.7202L24.8594 536.981H23.2997L19.4389 527.521H19.3175V537H17.4382V523.909ZM37.6706 537.198C36.7033 537.198 35.8702 536.991 35.1713 536.578C34.4767 536.161 33.9398 535.575 33.5605 534.82C33.1855 534.062 32.998 533.173 32.998 532.155C32.998 531.149 33.1855 530.263 33.5605 529.496C33.9398 528.729 34.4682 528.13 35.1458 527.7C35.8276 527.269 36.6245 527.054 37.5364 527.054C38.0904 527.054 38.6273 527.146 39.1472 527.329C39.6671 527.512 40.1337 527.8 40.5471 528.192C40.9604 528.584 41.2864 529.093 41.525 529.719C41.7637 530.342 41.883 531.098 41.883 531.989V532.666H34.0783V531.234H40.0101C40.0101 530.732 39.9078 530.286 39.7033 529.898C39.4988 529.506 39.2111 529.197 38.8404 528.972C38.4739 528.746 38.0435 528.633 37.5492 528.633C37.0123 528.633 36.5435 528.765 36.1429 529.029C35.7466 529.289 35.4398 529.63 35.2225 530.052C35.0094 530.469 34.9029 530.923 34.9029 531.413V532.532C34.9029 533.188 35.0179 533.746 35.248 534.207C35.4824 534.667 35.8084 535.018 36.226 535.261C36.6436 535.5 37.1316 535.619 37.6898 535.619C38.052 535.619 38.3823 535.568 38.6806 535.466C38.9789 535.359 39.2367 535.202 39.454 534.993C39.6713 534.784 39.8375 534.526 39.9526 534.219L41.7615 534.545C41.6167 535.078 41.3567 535.545 40.9817 535.945C40.611 536.342 40.1444 536.651 39.5819 536.872C39.0236 537.089 38.3865 537.198 37.6706 537.198ZM44.0036 537V527.182H45.8381V528.78H45.9595C46.1641 528.239 46.4986 527.817 46.9631 527.514C47.4276 527.207 47.9837 527.054 48.6314 527.054C49.2876 527.054 49.8374 527.207 50.2805 527.514C50.728 527.821 51.0582 528.243 51.2713 528.78H51.3736C51.608 528.256 51.9808 527.838 52.4922 527.527C53.0036 527.212 53.6129 527.054 54.3203 527.054C55.2109 527.054 55.9375 527.333 56.5 527.891C57.0668 528.45 57.3501 529.291 57.3501 530.416V537H55.4389V530.595C55.4389 529.93 55.2578 529.449 54.8956 529.151C54.5334 528.852 54.1009 528.703 53.598 528.703C52.9759 528.703 52.4922 528.895 52.147 529.278C51.8018 529.658 51.6293 530.146 51.6293 530.742V537H49.7244V530.474C49.7244 529.941 49.5582 529.513 49.2259 529.189C48.8935 528.865 48.4609 528.703 47.9283 528.703C47.5661 528.703 47.2315 528.799 46.9247 528.991C46.6222 529.178 46.3771 529.44 46.1896 529.777C46.0064 530.114 45.9148 530.504 45.9148 530.947V537H44.0036ZM64.0474 537.198C63.127 537.198 62.3237 536.987 61.6376 536.565C60.9515 536.143 60.4189 535.553 60.0396 534.795C59.6603 534.036 59.4707 533.15 59.4707 532.136C59.4707 531.117 59.6603 530.227 60.0396 529.464C60.4189 528.701 60.9515 528.109 61.6376 527.687C62.3237 527.265 63.127 527.054 64.0474 527.054C64.9679 527.054 65.7711 527.265 66.4572 527.687C67.1433 528.109 67.676 528.701 68.0552 529.464C68.4345 530.227 68.6241 531.117 68.6241 532.136C68.6241 533.15 68.4345 534.036 68.0552 534.795C67.676 535.553 67.1433 536.143 66.4572 536.565C65.7711 536.987 64.9679 537.198 64.0474 537.198ZM64.0538 535.594C64.6504 535.594 65.1447 535.436 65.5368 535.121C65.9288 534.805 66.2186 534.386 66.4061 533.862C66.5978 533.337 66.6937 532.76 66.6937 532.129C66.6937 531.503 66.5978 530.928 66.4061 530.403C66.2186 529.875 65.9288 529.451 65.5368 529.131C65.1447 528.812 64.6504 528.652 64.0538 528.652C63.4529 528.652 62.9544 528.812 62.5581 529.131C62.166 529.451 61.8741 529.875 61.6824 530.403C61.4949 530.928 61.4011 531.503 61.4011 532.129C61.4011 532.76 61.4949 533.337 61.6824 533.862C61.8741 534.386 62.166 534.805 62.5581 535.121C62.9544 535.436 63.4529 535.594 64.0538 535.594ZM70.7575 537V527.182H72.6048V528.741H72.707C72.886 528.213 73.2013 527.798 73.6531 527.495C74.109 527.188 74.6246 527.035 75.1999 527.035C75.3192 527.035 75.4599 527.039 75.6218 527.048C75.788 527.056 75.918 527.067 76.0117 527.08V528.908C75.935 528.886 75.7987 528.863 75.6026 528.837C75.4066 528.808 75.2106 528.793 75.0146 528.793C74.5629 528.793 74.1602 528.888 73.8065 529.08C73.457 529.268 73.18 529.53 72.9755 529.866C72.771 530.199 72.6687 530.578 72.6687 531.004V537H70.7575ZM79.1726 540.682C78.8871 540.682 78.6271 540.658 78.3928 540.612C78.1584 540.569 77.9837 540.522 77.8686 540.471L78.3288 538.905C78.6783 538.999 78.9893 539.039 79.2621 539.026C79.5348 539.013 79.7756 538.911 79.9844 538.719C80.1974 538.528 80.3849 538.214 80.5469 537.78L80.7834 537.128L77.1911 527.182H79.2365L81.723 534.801H81.8253L84.3118 527.182H86.3636L82.3175 538.31C82.13 538.822 81.8913 539.254 81.6016 539.608C81.3118 539.966 80.9666 540.234 80.5661 540.413C80.1655 540.592 79.701 540.682 79.1726 540.682ZM93.0769 537V523.909H97.7431C98.7573 523.909 99.5989 524.084 100.268 524.433C100.941 524.783 101.444 525.266 101.776 525.884C102.109 526.498 102.275 527.207 102.275 528.013C102.275 528.814 102.107 529.519 101.77 530.129C101.438 530.734 100.935 531.205 100.262 531.541C99.5925 531.878 98.7509 532.046 97.7367 532.046H94.2019V530.346H97.5577C98.1969 530.346 98.7168 530.254 99.1174 530.071C99.5222 529.888 99.8184 529.621 100.006 529.272C100.193 528.923 100.287 528.503 100.287 528.013C100.287 527.518 100.191 527.09 99.9995 526.728C99.812 526.366 99.5158 526.089 99.111 525.897C98.7104 525.701 98.1841 525.603 97.5321 525.603H95.052V537H93.0769ZM99.5392 531.094L102.774 537H100.524L97.3532 531.094H99.5392ZM108.634 537.198C107.666 537.198 106.833 536.991 106.134 536.578C105.44 536.161 104.903 535.575 104.523 534.82C104.148 534.062 103.961 533.173 103.961 532.155C103.961 531.149 104.148 530.263 104.523 529.496C104.903 528.729 105.431 528.13 106.109 527.7C106.79 527.269 107.587 527.054 108.499 527.054C109.053 527.054 109.59 527.146 110.11 527.329C110.63 527.512 111.097 527.8 111.51 528.192C111.923 528.584 112.249 529.093 112.488 529.719C112.727 530.342 112.846 531.098 112.846 531.989V532.666H105.041V531.234H110.973C110.973 530.732 110.871 530.286 110.666 529.898C110.462 529.506 110.174 529.197 109.803 528.972C109.437 528.746 109.006 528.633 108.512 528.633C107.975 528.633 107.506 528.765 107.106 529.029C106.71 529.289 106.403 529.63 106.185 530.052C105.972 530.469 105.866 530.923 105.866 531.413V532.532C105.866 533.188 105.981 533.746 106.211 534.207C106.445 534.667 106.771 535.018 107.189 535.261C107.607 535.5 108.094 535.619 108.653 535.619C109.015 535.619 109.345 535.568 109.643 535.466C109.942 535.359 110.2 535.202 110.417 534.993C110.634 534.784 110.8 534.526 110.915 534.219L112.724 534.545C112.58 535.078 112.32 535.545 111.945 535.945C111.574 536.342 111.107 536.651 110.545 536.872C109.987 537.089 109.349 537.198 108.634 537.198ZM119.55 527.182V528.716H114.187V527.182H119.55ZM115.625 524.83H117.536V534.117C117.536 534.488 117.591 534.767 117.702 534.955C117.813 535.138 117.956 535.263 118.131 535.332C118.309 535.396 118.503 535.428 118.712 535.428C118.866 535.428 119 535.417 119.115 535.396C119.23 535.374 119.319 535.357 119.383 535.344L119.729 536.923C119.618 536.966 119.46 537.009 119.256 537.051C119.051 537.098 118.795 537.124 118.488 537.128C117.986 537.136 117.517 537.047 117.082 536.859C116.648 536.672 116.296 536.382 116.028 535.99C115.759 535.598 115.625 535.106 115.625 534.513V524.83ZM125.79 537.198C124.822 537.198 123.989 536.991 123.29 536.578C122.596 536.161 122.059 535.575 121.68 534.82C121.305 534.062 121.117 533.173 121.117 532.155C121.117 531.149 121.305 530.263 121.68 529.496C122.059 528.729 122.587 528.13 123.265 527.7C123.947 527.269 124.744 527.054 125.656 527.054C126.21 527.054 126.746 527.146 127.266 527.329C127.786 527.512 128.253 527.8 128.666 528.192C129.08 528.584 129.406 529.093 129.644 529.719C129.883 530.342 130.002 531.098 130.002 531.989V532.666H122.197V531.234H128.129C128.129 530.732 128.027 530.286 127.822 529.898C127.618 529.506 127.33 529.197 126.96 528.972C126.593 528.746 126.163 528.633 125.668 528.633C125.131 528.633 124.663 528.765 124.262 529.029C123.866 529.289 123.559 529.63 123.342 530.052C123.129 530.469 123.022 530.923 123.022 531.413V532.532C123.022 533.188 123.137 533.746 123.367 534.207C123.602 534.667 123.928 535.018 124.345 535.261C124.763 535.5 125.251 535.619 125.809 535.619C126.171 535.619 126.501 535.568 126.8 535.466C127.098 535.359 127.356 535.202 127.573 534.993C127.79 534.784 127.957 534.526 128.072 534.219L129.881 534.545C129.736 535.078 129.476 535.545 129.101 535.945C128.73 536.342 128.263 536.651 127.701 536.872C127.143 537.089 126.506 537.198 125.79 537.198ZM134.034 531.17V537H132.123V527.182H133.957V528.78H134.079C134.305 528.26 134.658 527.842 135.14 527.527C135.626 527.212 136.237 527.054 136.974 527.054C137.643 527.054 138.229 527.195 138.732 527.476C139.235 527.753 139.625 528.166 139.902 528.716C140.179 529.266 140.317 529.945 140.317 530.755V537H138.406V530.985C138.406 530.273 138.221 529.717 137.85 529.317C137.479 528.912 136.97 528.71 136.322 528.71C135.879 528.71 135.485 528.805 135.14 528.997C134.799 529.189 134.528 529.47 134.328 529.841C134.132 530.207 134.034 530.651 134.034 531.17ZM147.464 527.182V528.716H142.101V527.182H147.464ZM143.539 524.83H145.45V534.117C145.45 534.488 145.506 534.767 145.616 534.955C145.727 535.138 145.87 535.263 146.045 535.332C146.224 535.396 146.417 535.428 146.626 535.428C146.78 535.428 146.914 535.417 147.029 535.396C147.144 535.374 147.233 535.357 147.297 535.344L147.643 536.923C147.532 536.966 147.374 537.009 147.17 537.051C146.965 537.098 146.709 537.124 146.403 537.128C145.9 537.136 145.431 537.047 144.996 536.859C144.562 536.672 144.21 536.382 143.942 535.99C143.673 535.598 143.539 535.106 143.539 534.513V524.83ZM149.578 537V527.182H151.489V537H149.578ZM150.543 525.667C150.211 525.667 149.925 525.556 149.686 525.335C149.452 525.109 149.335 524.84 149.335 524.529C149.335 524.214 149.452 523.945 149.686 523.724C149.925 523.498 150.211 523.385 150.543 523.385C150.875 523.385 151.159 523.498 151.393 523.724C151.632 523.945 151.751 524.214 151.751 524.529C151.751 524.84 151.632 525.109 151.393 525.335C151.159 525.556 150.875 525.667 150.543 525.667ZM158.196 537.198C157.275 537.198 156.472 536.987 155.786 536.565C155.1 536.143 154.567 535.553 154.188 534.795C153.809 534.036 153.619 533.15 153.619 532.136C153.619 531.117 153.809 530.227 154.188 529.464C154.567 528.701 155.1 528.109 155.786 527.687C156.472 527.265 157.275 527.054 158.196 527.054C159.116 527.054 159.92 527.265 160.606 527.687C161.292 528.109 161.824 528.701 162.204 529.464C162.583 530.227 162.773 531.117 162.773 532.136C162.773 533.15 162.583 534.036 162.204 534.795C161.824 535.553 161.292 536.143 160.606 536.565C159.92 536.987 159.116 537.198 158.196 537.198ZM158.202 535.594C158.799 535.594 159.293 535.436 159.685 535.121C160.077 534.805 160.367 534.386 160.555 533.862C160.746 533.337 160.842 532.76 160.842 532.129C160.842 531.503 160.746 530.928 160.555 530.403C160.367 529.875 160.077 529.451 159.685 529.131C159.293 528.812 158.799 528.652 158.202 528.652C157.601 528.652 157.103 528.812 156.706 529.131C156.314 529.451 156.023 529.875 155.831 530.403C155.643 530.928 155.55 531.503 155.55 532.129C155.55 532.76 155.643 533.337 155.831 533.862C156.023 534.386 156.314 534.805 156.706 535.121C157.103 535.436 157.601 535.594 158.202 535.594ZM166.817 531.17V537H164.906V527.182H166.74V528.78H166.862C167.088 528.26 167.441 527.842 167.923 527.527C168.409 527.212 169.02 527.054 169.757 527.054C170.426 527.054 171.012 527.195 171.515 527.476C172.018 527.753 172.408 528.166 172.685 528.716C172.962 529.266 173.1 529.945 173.1 530.755V537H171.189V530.985C171.189 530.273 171.004 529.717 170.633 529.317C170.262 528.912 169.753 528.71 169.105 528.71C168.662 528.71 168.268 528.805 167.923 528.997C167.582 529.189 167.311 529.47 167.111 529.841C166.915 530.207 166.817 530.651 166.817 531.17Z" fill="#043F2E"/>
<g clip-path="url(#clip1_233_422)">
<path d="M39 359H28C27.7348 359 27.4804 359.105 27.2929 359.293C27.1054 359.48 27 359.735 27 360C27 360.265 27.1054 360.52 27.2929 360.707C27.4804 360.895 27.7348 361 28 361H39C39.2652 361 39.5196 360.895 39.7071 360.707C39.8946 360.52 40 360.265 40 360C40 359.735 39.8946 359.48 39.7071 359.293C39.5196 359.105 39.2652 359 39 359Z" fill="#043F2E"/>
<path d="M24 356H18C17.4477 356 17 356.448 17 357V363C17 363.552 17.4477 364 18 364H24C24.5523 364 25 363.552 25 363V357C25 356.448 24.5523 356 24 356Z" fill="#043F2E"/>
<path d="M39 371H28C27.7348 371 27.4804 371.105 27.2929 371.293C27.1054 371.48 27 371.735 27 372C27 372.265 27.1054 372.52 27.2929 372.707C27.4804 372.895 27.7348 373 28 373H39C39.2652 373 39.5196 372.895 39.7071 372.707C39.8946 372.52 40 372.265 40 372C40 371.735 39.8946 371.48 39.7071 371.293C39.5196 371.105 39.2652 371 39 371Z" fill="#043F2E"/>
<path d="M22.414 372L24.707 369.707C24.8892 369.518 24.99 369.266 24.9877 369.004C24.9854 368.741 24.8802 368.491 24.6948 368.305C24.5094 368.12 24.2586 368.015 23.9964 368.012C23.7342 368.01 23.4816 368.111 23.293 368.293L21 370.586L18.707 368.293C18.5184 368.111 18.2658 368.01 18.0036 368.012C17.7414 368.015 17.4906 368.12 17.3052 368.305C17.1198 368.491 17.0146 368.741 17.0123 369.004C17.0101 369.266 17.1109 369.518 17.293 369.707L19.586 372L17.293 374.293C17.1975 374.385 17.1213 374.496 17.0689 374.618C17.0165 374.74 16.9889 374.871 16.9878 375.004C16.9866 375.136 17.0119 375.268 17.0622 375.391C17.1125 375.514 17.1867 375.625 17.2806 375.719C17.3745 375.813 17.4862 375.887 17.6091 375.938C17.732 375.988 17.8636 376.013 17.9964 376.012C18.1292 376.011 18.2604 375.983 18.3824 375.931C18.5044 375.879 18.6148 375.802 18.707 375.707L21 373.414L23.293 375.707C23.4816 375.889 23.7342 375.99 23.9964 375.988C24.2586 375.985 24.5094 375.88 24.6948 375.695C24.8802 375.509 24.9854 375.259 24.9877 374.996C24.99 374.734 24.8892 374.482 24.707 374.293L22.414 372Z" fill="#043F2E"/>
</g>
<path d="M17.4382 402V388.909H25.6456V390.609H19.4134V394.598H25.2173V396.292H19.4134V400.3H25.7223V402H17.4382ZM36.5297 392.182L32.9693 402H30.9238L27.3571 392.182H29.4089L31.8954 399.737H31.9977L34.4778 392.182H36.5297ZM40.9018 402.217C40.2797 402.217 39.7172 402.102 39.2143 401.872C38.7115 401.638 38.313 401.299 38.019 400.856C37.7292 400.413 37.5843 399.869 37.5843 399.226C37.5843 398.672 37.6909 398.216 37.9039 397.858C38.117 397.5 38.4047 397.217 38.7669 397.008C39.1291 396.799 39.5339 396.641 39.9814 396.535C40.4288 396.428 40.8848 396.347 41.3493 396.292C41.9373 396.224 42.4146 396.168 42.7811 396.126C43.1476 396.079 43.4139 396.004 43.5801 395.902C43.7463 395.8 43.8294 395.634 43.8294 395.403V395.359C43.8294 394.8 43.6717 394.368 43.3564 394.061C43.0453 393.754 42.5808 393.601 41.9629 393.601C41.3194 393.601 40.8123 393.744 40.4416 394.029C40.0751 394.31 39.8216 394.624 39.6809 394.969L37.8848 394.56C38.0978 393.963 38.4089 393.482 38.818 393.115C39.2314 392.744 39.7065 392.476 40.2434 392.31C40.7804 392.139 41.345 392.054 41.9373 392.054C42.3294 392.054 42.7449 392.101 43.1838 392.195C43.627 392.284 44.0403 392.45 44.4238 392.693C44.8116 392.936 45.1291 393.283 45.3762 393.735C45.6234 394.183 45.747 394.764 45.747 395.48V402H43.8805V400.658H43.8038C43.6802 400.905 43.4949 401.148 43.2477 401.386C43.0005 401.625 42.6831 401.823 42.2953 401.981C41.9075 402.138 41.443 402.217 40.9018 402.217ZM41.3173 400.683C41.8457 400.683 42.2974 400.579 42.6724 400.37C43.0517 400.161 43.3393 399.888 43.5353 399.552C43.7356 399.211 43.8358 398.847 43.8358 398.459V397.193C43.7676 397.261 43.6355 397.325 43.4395 397.385C43.2477 397.44 43.0282 397.489 42.7811 397.532C42.5339 397.57 42.2931 397.607 42.0588 397.641C41.8244 397.67 41.6284 397.696 41.4707 397.717C41.1 397.764 40.7612 397.843 40.4544 397.954C40.1518 398.065 39.9089 398.224 39.7257 398.433C39.5467 398.638 39.4572 398.911 39.4572 399.251C39.4572 399.724 39.6319 400.082 39.9814 400.325C40.3308 400.564 40.7761 400.683 41.3173 400.683ZM50.2038 388.909V402H48.2926V388.909H50.2038ZM58.9945 397.928V392.182H60.9121V402H59.0328V400.3H58.9306C58.7047 400.824 58.3425 401.261 57.8439 401.61C57.3496 401.955 56.7338 402.128 55.9966 402.128C55.3659 402.128 54.8077 401.989 54.3219 401.712C53.8404 401.431 53.4611 401.016 53.1841 400.466C52.9114 399.916 52.775 399.237 52.775 398.427V392.182H54.6863V398.197C54.6863 398.866 54.8716 399.398 55.2424 399.795C55.6131 400.191 56.0946 400.389 56.687 400.389C57.0449 400.389 57.4007 400.3 57.7544 400.121C58.1124 399.942 58.4086 399.671 58.6429 399.309C58.8816 398.947 58.9988 398.487 58.9945 397.928ZM66.3374 402.217C65.7152 402.217 65.1527 402.102 64.6499 401.872C64.147 401.638 63.7486 401.299 63.4545 400.856C63.1648 400.413 63.0199 399.869 63.0199 399.226C63.0199 398.672 63.1264 398.216 63.3395 397.858C63.5526 397.5 63.8402 397.217 64.2024 397.008C64.5646 396.799 64.9695 396.641 65.4169 396.535C65.8643 396.428 66.3203 396.347 66.7848 396.292C67.3729 396.224 67.8501 396.168 68.2166 396.126C68.5831 396.079 68.8494 396.004 69.0156 395.902C69.1818 395.8 69.2649 395.634 69.2649 395.403V395.359C69.2649 394.8 69.1072 394.368 68.7919 394.061C68.4808 393.754 68.0163 393.601 67.3984 393.601C66.755 393.601 66.2479 393.744 65.8771 394.029C65.5107 394.31 65.2571 394.624 65.1165 394.969L63.3203 394.56C63.5334 393.963 63.8445 393.482 64.2536 393.115C64.6669 392.744 65.142 392.476 65.679 392.31C66.2159 392.139 66.7805 392.054 67.3729 392.054C67.7649 392.054 68.1804 392.101 68.6193 392.195C69.0625 392.284 69.4759 392.45 69.8594 392.693C70.2472 392.936 70.5646 393.283 70.8118 393.735C71.0589 394.183 71.1825 394.764 71.1825 395.48V402H69.3161V400.658H69.2393C69.1158 400.905 68.9304 401.148 68.6832 401.386C68.4361 401.625 68.1186 401.823 67.7308 401.981C67.343 402.138 66.8786 402.217 66.3374 402.217ZM66.7528 400.683C67.2813 400.683 67.733 400.579 68.108 400.37C68.4872 400.161 68.7749 399.888 68.9709 399.552C69.1712 399.211 69.2713 398.847 69.2713 398.459V397.193C69.2031 397.261 69.071 397.325 68.875 397.385C68.6832 397.44 68.4638 397.489 68.2166 397.532C67.9695 397.57 67.7287 397.607 67.4943 397.641C67.2599 397.67 67.0639 397.696 66.9062 397.717C66.5355 397.764 66.1967 397.843 65.8899 397.954C65.5874 398.065 65.3445 398.224 65.1612 398.433C64.9822 398.638 64.8928 398.911 64.8928 399.251C64.8928 399.724 65.0675 400.082 65.4169 400.325C65.7663 400.564 66.2116 400.683 66.7528 400.683ZM78.3113 392.182V393.716H72.9483V392.182H78.3113ZM74.3865 389.83H76.2978V399.117C76.2978 399.488 76.3532 399.767 76.464 399.955C76.5748 400.138 76.7175 400.263 76.8922 400.332C77.0712 400.396 77.2651 400.428 77.4739 400.428C77.6273 400.428 77.7615 400.417 77.8766 400.396C77.9917 400.374 78.0811 400.357 78.1451 400.344L78.4902 401.923C78.3794 401.966 78.2218 402.009 78.0172 402.051C77.8127 402.098 77.557 402.124 77.2502 402.128C76.7473 402.136 76.2786 402.047 75.8439 401.859C75.4093 401.672 75.0577 401.382 74.7892 400.99C74.5208 400.598 74.3865 400.106 74.3865 399.513V389.83ZM80.4254 402V392.182H82.3366V402H80.4254ZM81.3906 390.667C81.0582 390.667 80.7727 390.556 80.5341 390.335C80.2997 390.109 80.1825 389.84 80.1825 389.529C80.1825 389.214 80.2997 388.945 80.5341 388.724C80.7727 388.498 81.0582 388.385 81.3906 388.385C81.723 388.385 82.0064 388.498 82.2408 388.724C82.4794 388.945 82.5987 389.214 82.5987 389.529C82.5987 389.84 82.4794 390.109 82.2408 390.335C82.0064 390.556 81.723 390.667 81.3906 390.667ZM89.0435 402.198C88.123 402.198 87.3198 401.987 86.6337 401.565C85.9476 401.143 85.415 400.553 85.0357 399.795C84.6564 399.036 84.4668 398.15 84.4668 397.136C84.4668 396.117 84.6564 395.227 85.0357 394.464C85.415 393.701 85.9476 393.109 86.6337 392.687C87.3198 392.265 88.123 392.054 89.0435 392.054C89.964 392.054 90.7672 392.265 91.4533 392.687C92.1394 393.109 92.6721 393.701 93.0513 394.464C93.4306 395.227 93.6202 396.117 93.6202 397.136C93.6202 398.15 93.4306 399.036 93.0513 399.795C92.6721 400.553 92.1394 401.143 91.4533 401.565C90.7672 401.987 89.964 402.198 89.0435 402.198ZM89.0499 400.594C89.6465 400.594 90.1408 400.436 90.5328 400.121C90.9249 399.805 91.2147 399.386 91.4022 398.862C91.5939 398.337 91.6898 397.76 91.6898 397.129C91.6898 396.503 91.5939 395.928 91.4022 395.403C91.2147 394.875 90.9249 394.451 90.5328 394.131C90.1408 393.812 89.6465 393.652 89.0499 393.652C88.449 393.652 87.9505 393.812 87.5542 394.131C87.1621 394.451 86.8702 394.875 86.6784 395.403C86.4909 395.928 86.3972 396.503 86.3972 397.129C86.3972 397.76 86.4909 398.337 86.6784 398.862C86.8702 399.386 87.1621 399.805 87.5542 400.121C87.9505 400.436 88.449 400.594 89.0499 400.594ZM97.6648 396.17V402H95.7536V392.182H97.5881V393.78H97.7095C97.9354 393.26 98.2891 392.842 98.7706 392.527C99.2564 392.212 99.8679 392.054 100.605 392.054C101.274 392.054 101.86 392.195 102.363 392.476C102.866 392.753 103.256 393.166 103.533 393.716C103.81 394.266 103.948 394.945 103.948 395.755V402H102.037V395.985C102.037 395.273 101.852 394.717 101.481 394.317C101.11 393.912 100.601 393.71 99.9531 393.71C99.5099 393.71 99.1158 393.805 98.7706 393.997C98.4297 394.189 98.1591 394.47 97.9588 394.841C97.7628 395.207 97.6648 395.651 97.6648 396.17Z" fill="#043F2E"/>
<g clip-path="url(#clip2_233_422)">
<path d="M295.536 123.41C295.347 123.228 295.095 123.127 294.833 123.129C294.57 123.131 294.32 123.237 294.134 123.422C293.949 123.607 293.844 123.858 293.841 124.12C293.839 124.383 293.94 124.635 294.122 124.824L296.942 127.644L295.625 128.961L292.805 126.141C292.713 126.045 292.602 125.969 292.48 125.917C292.358 125.864 292.227 125.837 292.094 125.836C291.962 125.834 291.83 125.86 291.707 125.91C291.584 125.96 291.472 126.035 291.379 126.128C291.285 126.222 291.21 126.334 291.16 126.457C291.11 126.58 291.085 126.711 291.086 126.844C291.087 126.977 291.114 127.108 291.167 127.23C291.219 127.352 291.295 127.463 291.391 127.555L293.948 130.113C293.227 130.413 292.446 130.543 291.667 130.49C291.598 131.196 291.319 131.866 290.867 132.413C291.242 132.477 291.622 132.51 292.002 132.513C292.921 132.514 293.832 132.334 294.681 131.983C295.53 131.632 296.302 131.116 296.952 130.466L299.06 128.33C299.246 128.142 299.349 127.888 299.348 127.623C299.347 127.359 299.241 127.105 299.054 126.919L295.536 123.41Z" fill="#043F2E"/>
<path d="M280.821 122.856C281.119 122.565 281.465 122.328 281.844 122.156C281.249 121.161 280.953 120.016 280.99 118.858C281.027 117.699 281.396 116.576 282.053 115.621C282.71 114.666 283.628 113.92 284.696 113.471C285.765 113.022 286.94 112.89 288.082 113.09L288.515 112.657C288.938 112.233 289.402 111.851 289.9 111.517C288.306 110.918 286.564 110.839 284.923 111.291C283.281 111.743 281.825 112.703 280.762 114.032C279.699 115.362 279.084 116.994 279.005 118.694C278.926 120.395 279.386 122.077 280.321 123.5C280.463 123.267 280.631 123.051 280.821 122.856Z" fill="#043F2E"/>
<path d="M289.939 128.281L285.221 123.563C284.201 122.544 282.548 122.544 281.528 123.563C280.509 124.583 280.509 126.236 281.528 127.256L286.246 131.974C287.266 132.993 288.919 132.993 289.939 131.974C290.958 130.954 290.958 129.301 289.939 128.281Z" fill="#043F2E"/>
<path d="M300.636 113.364C299.122 111.85 297.07 111 294.929 111C292.788 111 290.736 111.85 289.222 113.364L284.585 118L285.293 118.707C285.879 119.291 286.673 119.619 287.5 119.619C288.327 119.619 289.121 119.291 289.707 118.707L291.5 116.916L299.924 125.492L300.638 124.778C302.152 123.264 303.002 121.211 303.002 119.071C303.002 116.93 302.152 114.877 300.638 113.364H300.636Z" fill="#043F2E"/>
</g>
<path d="M291.311 149.166H289.317C289.24 148.74 289.097 148.365 288.888 148.041C288.68 147.717 288.424 147.442 288.121 147.217C287.819 146.991 287.48 146.82 287.105 146.705C286.734 146.59 286.34 146.533 285.923 146.533C285.168 146.533 284.493 146.722 283.896 147.102C283.304 147.481 282.835 148.037 282.49 148.77C282.149 149.503 281.979 150.398 281.979 151.455C281.979 152.52 282.149 153.419 282.49 154.152C282.835 154.885 283.306 155.439 283.903 155.814C284.499 156.189 285.17 156.376 285.916 156.376C286.33 156.376 286.722 156.321 287.092 156.21C287.467 156.095 287.806 155.927 288.109 155.705C288.411 155.484 288.667 155.213 288.876 154.893C289.089 154.57 289.236 154.199 289.317 153.781L291.311 153.788C291.205 154.431 290.998 155.023 290.691 155.565C290.388 156.102 289.999 156.566 289.521 156.958C289.048 157.346 288.507 157.646 287.898 157.859C287.288 158.072 286.624 158.179 285.903 158.179C284.77 158.179 283.76 157.911 282.874 157.374C281.987 156.832 281.288 156.059 280.777 155.053C280.27 154.048 280.016 152.848 280.016 151.455C280.016 150.057 280.272 148.857 280.783 147.856C281.295 146.85 281.994 146.079 282.88 145.542C283.766 145.001 284.774 144.73 285.903 144.73C286.598 144.73 287.246 144.83 287.847 145.031C288.452 145.227 288.995 145.516 289.477 145.9C289.958 146.279 290.357 146.744 290.672 147.293C290.987 147.839 291.2 148.463 291.311 149.166ZM297.657 158.198C296.736 158.198 295.933 157.987 295.247 157.565C294.561 157.143 294.028 156.553 293.649 155.795C293.27 155.036 293.08 154.15 293.08 153.136C293.08 152.117 293.27 151.227 293.649 150.464C294.028 149.701 294.561 149.109 295.247 148.687C295.933 148.265 296.736 148.054 297.657 148.054C298.577 148.054 299.381 148.265 300.067 148.687C300.753 149.109 301.285 149.701 301.665 150.464C302.044 151.227 302.233 152.117 302.233 153.136C302.233 154.15 302.044 155.036 301.665 155.795C301.285 156.553 300.753 157.143 300.067 157.565C299.381 157.987 298.577 158.198 297.657 158.198ZM297.663 156.594C298.26 156.594 298.754 156.436 299.146 156.121C299.538 155.805 299.828 155.386 300.015 154.862C300.207 154.337 300.303 153.76 300.303 153.129C300.303 152.503 300.207 151.928 300.015 151.403C299.828 150.875 299.538 150.451 299.146 150.131C298.754 149.812 298.26 149.652 297.663 149.652C297.062 149.652 296.564 149.812 296.167 150.131C295.775 150.451 295.483 150.875 295.292 151.403C295.104 151.928 295.01 152.503 295.01 153.129C295.01 153.76 295.104 154.337 295.292 154.862C295.483 155.386 295.775 155.805 296.167 156.121C296.564 156.436 297.062 156.594 297.663 156.594ZM306.278 144.909V158H304.367V144.909H306.278ZM310.76 144.909V158H308.849V144.909H310.76ZM316.189 158.217C315.567 158.217 315.004 158.102 314.501 157.872C313.999 157.638 313.6 157.299 313.306 156.856C313.016 156.413 312.871 155.869 312.871 155.226C312.871 154.672 312.978 154.216 313.191 153.858C313.404 153.5 313.692 153.217 314.054 153.008C314.416 152.799 314.821 152.641 315.268 152.535C315.716 152.428 316.172 152.347 316.636 152.292C317.224 152.224 317.702 152.168 318.068 152.126C318.435 152.079 318.701 152.004 318.867 151.902C319.033 151.8 319.116 151.634 319.116 151.403V151.359C319.116 150.8 318.959 150.368 318.643 150.061C318.332 149.754 317.868 149.601 317.25 149.601C316.607 149.601 316.099 149.744 315.729 150.029C315.362 150.31 315.109 150.624 314.968 150.969L313.172 150.56C313.385 149.963 313.696 149.482 314.105 149.115C314.518 148.744 314.994 148.476 315.531 148.31C316.067 148.139 316.632 148.054 317.224 148.054C317.616 148.054 318.032 148.101 318.471 148.195C318.914 148.284 319.327 148.45 319.711 148.693C320.099 148.936 320.416 149.283 320.663 149.735C320.911 150.183 321.034 150.764 321.034 151.48V158H319.168V156.658H319.091C318.967 156.905 318.782 157.148 318.535 157.386C318.288 157.625 317.97 157.823 317.582 157.981C317.195 158.138 316.73 158.217 316.189 158.217ZM316.604 156.683C317.133 156.683 317.585 156.579 317.96 156.37C318.339 156.161 318.626 155.888 318.822 155.552C319.023 155.211 319.123 154.847 319.123 154.459V153.193C319.055 153.261 318.923 153.325 318.727 153.385C318.535 153.44 318.315 153.489 318.068 153.532C317.821 153.57 317.58 153.607 317.346 153.641C317.112 153.67 316.915 153.696 316.758 153.717C316.387 153.764 316.048 153.843 315.741 153.954C315.439 154.065 315.196 154.224 315.013 154.433C314.834 154.638 314.744 154.911 314.744 155.251C314.744 155.724 314.919 156.082 315.268 156.325C315.618 156.564 316.063 156.683 316.604 156.683ZM323.733 158V144.909H325.644V149.773H325.759C325.87 149.569 326.03 149.332 326.239 149.064C326.448 148.795 326.737 148.561 327.108 148.361C327.479 148.156 327.969 148.054 328.578 148.054C329.371 148.054 330.078 148.254 330.7 148.655C331.323 149.055 331.811 149.633 332.164 150.387C332.522 151.141 332.701 152.049 332.701 153.11C332.701 154.171 332.524 155.081 332.171 155.839C331.817 156.594 331.331 157.175 330.713 157.585C330.095 157.989 329.39 158.192 328.597 158.192C328.001 158.192 327.513 158.092 327.134 157.891C326.759 157.691 326.465 157.457 326.252 157.188C326.039 156.92 325.874 156.681 325.759 156.472H325.6V158H323.733ZM325.606 153.091C325.606 153.781 325.706 154.386 325.906 154.906C326.107 155.426 326.396 155.833 326.776 156.127C327.155 156.417 327.619 156.562 328.169 156.562C328.74 156.562 329.218 156.411 329.601 156.108C329.985 155.801 330.274 155.386 330.47 154.862C330.671 154.337 330.771 153.747 330.771 153.091C330.771 152.443 330.673 151.862 330.477 151.346C330.285 150.83 329.995 150.423 329.607 150.125C329.224 149.827 328.744 149.678 328.169 149.678C327.615 149.678 327.146 149.82 326.763 150.106C326.384 150.391 326.096 150.79 325.9 151.301C325.704 151.812 325.606 152.409 325.606 153.091ZM338.983 158.198C338.063 158.198 337.259 157.987 336.573 157.565C335.887 157.143 335.354 156.553 334.975 155.795C334.596 155.036 334.406 154.15 334.406 153.136C334.406 152.117 334.596 151.227 334.975 150.464C335.354 149.701 335.887 149.109 336.573 148.687C337.259 148.265 338.063 148.054 338.983 148.054C339.903 148.054 340.707 148.265 341.393 148.687C342.079 149.109 342.612 149.701 342.991 150.464C343.37 151.227 343.56 152.117 343.56 153.136C343.56 154.15 343.37 155.036 342.991 155.795C342.612 156.553 342.079 157.143 341.393 157.565C340.707 157.987 339.903 158.198 338.983 158.198ZM338.989 156.594C339.586 156.594 340.08 156.436 340.472 156.121C340.864 155.805 341.154 155.386 341.342 154.862C341.533 154.337 341.629 153.76 341.629 153.129C341.629 152.503 341.533 151.928 341.342 151.403C341.154 150.875 340.864 150.451 340.472 150.131C340.08 149.812 339.586 149.652 338.989 149.652C338.388 149.652 337.89 149.812 337.494 150.131C337.102 150.451 336.81 150.875 336.618 151.403C336.43 151.928 336.337 152.503 336.337 153.129C336.337 153.76 336.43 154.337 336.618 154.862C336.81 155.386 337.102 155.805 337.494 156.121C337.89 156.436 338.388 156.594 338.989 156.594ZM345.693 158V148.182H347.54V149.741H347.643C347.822 149.213 348.137 148.798 348.589 148.495C349.045 148.188 349.56 148.035 350.135 148.035C350.255 148.035 350.395 148.039 350.557 148.048C350.724 148.056 350.854 148.067 350.947 148.08V149.908C350.871 149.886 350.734 149.863 350.538 149.837C350.342 149.808 350.146 149.793 349.95 149.793C349.498 149.793 349.096 149.888 348.742 150.08C348.393 150.268 348.116 150.53 347.911 150.866C347.706 151.199 347.604 151.578 347.604 152.004V158H345.693ZM355.371 158.217C354.748 158.217 354.186 158.102 353.683 157.872C353.18 157.638 352.782 157.299 352.488 156.856C352.198 156.413 352.053 155.869 352.053 155.226C352.053 154.672 352.16 154.216 352.373 153.858C352.586 153.5 352.873 153.217 353.236 153.008C353.598 152.799 354.003 152.641 354.45 152.535C354.898 152.428 355.354 152.347 355.818 152.292C356.406 152.224 356.883 152.168 357.25 152.126C357.616 152.079 357.883 152.004 358.049 151.902C358.215 151.8 358.298 151.634 358.298 151.403V151.359C358.298 150.8 358.14 150.368 357.825 150.061C357.514 149.754 357.05 149.601 356.432 149.601C355.788 149.601 355.281 149.744 354.91 150.029C354.544 150.31 354.29 150.624 354.15 150.969L352.354 150.56C352.567 149.963 352.878 149.482 353.287 149.115C353.7 148.744 354.175 148.476 354.712 148.31C355.249 148.139 355.814 148.054 356.406 148.054C356.798 148.054 357.214 148.101 357.653 148.195C358.096 148.284 358.509 148.45 358.893 148.693C359.28 148.936 359.598 149.283 359.845 149.735C360.092 150.183 360.216 150.764 360.216 151.48V158H358.349V156.658H358.273C358.149 156.905 357.964 157.148 357.716 157.386C357.469 157.625 357.152 157.823 356.764 157.981C356.376 158.138 355.912 158.217 355.371 158.217ZM355.786 156.683C356.314 156.683 356.766 156.579 357.141 156.37C357.52 156.161 357.808 155.888 358.004 155.552C358.204 155.211 358.305 154.847 358.305 154.459V153.193C358.236 153.261 358.104 153.325 357.908 153.385C357.716 153.44 357.497 153.489 357.25 153.532C357.003 153.57 356.762 153.607 356.528 153.641C356.293 153.67 356.097 153.696 355.939 153.717C355.569 153.764 355.23 153.843 354.923 153.954C354.621 154.065 354.378 154.224 354.194 154.433C354.015 154.638 353.926 154.911 353.926 155.251C353.926 155.724 354.101 156.082 354.45 156.325C354.8 156.564 355.245 156.683 355.786 156.683ZM367.344 148.182V149.716H361.982V148.182H367.344ZM363.42 145.83H365.331V155.117C365.331 155.488 365.386 155.767 365.497 155.955C365.608 156.138 365.751 156.263 365.925 156.332C366.104 156.396 366.298 156.428 366.507 156.428C366.661 156.428 366.795 156.417 366.91 156.396C367.025 156.374 367.114 156.357 367.178 156.344L367.523 157.923C367.413 157.966 367.255 158.009 367.05 158.051C366.846 158.098 366.59 158.124 366.283 158.128C365.781 158.136 365.312 158.047 364.877 157.859C364.442 157.672 364.091 157.382 363.822 156.99C363.554 156.598 363.42 156.106 363.42 155.513V145.83ZM369.459 158V148.182H371.37V158H369.459ZM370.424 146.667C370.091 146.667 369.806 146.556 369.567 146.335C369.333 146.109 369.216 145.84 369.216 145.529C369.216 145.214 369.333 144.945 369.567 144.724C369.806 144.498 370.091 144.385 370.424 144.385C370.756 144.385 371.04 144.498 371.274 144.724C371.513 144.945 371.632 145.214 371.632 145.529C371.632 145.84 371.513 146.109 371.274 146.335C371.04 146.556 370.756 146.667 370.424 146.667ZM378.077 158.198C377.156 158.198 376.353 157.987 375.667 157.565C374.981 157.143 374.448 156.553 374.069 155.795C373.69 155.036 373.5 154.15 373.5 153.136C373.5 152.117 373.69 151.227 374.069 150.464C374.448 149.701 374.981 149.109 375.667 148.687C376.353 148.265 377.156 148.054 378.077 148.054C378.997 148.054 379.8 148.265 380.487 148.687C381.173 149.109 381.705 149.701 382.085 150.464C382.464 151.227 382.653 152.117 382.653 153.136C382.653 154.15 382.464 155.036 382.085 155.795C381.705 156.553 381.173 157.143 380.487 157.565C379.8 157.987 378.997 158.198 378.077 158.198ZM378.083 156.594C378.68 156.594 379.174 156.436 379.566 156.121C379.958 155.805 380.248 155.386 380.435 154.862C380.627 154.337 380.723 153.76 380.723 153.129C380.723 152.503 380.627 151.928 380.435 151.403C380.248 150.875 379.958 150.451 379.566 150.131C379.174 149.812 378.68 149.652 378.083 149.652C377.482 149.652 376.984 149.812 376.587 150.131C376.195 150.451 375.903 150.875 375.712 151.403C375.524 151.928 375.43 152.503 375.43 153.129C375.43 153.76 375.524 154.337 375.712 154.862C375.903 155.386 376.195 155.805 376.587 156.121C376.984 156.436 377.482 156.594 378.083 156.594ZM386.698 152.17V158H384.787V148.182H386.621V149.78H386.743C386.969 149.26 387.322 148.842 387.804 148.527C388.29 148.212 388.901 148.054 389.638 148.054C390.307 148.054 390.893 148.195 391.396 148.476C391.899 148.753 392.289 149.166 392.566 149.716C392.843 150.266 392.981 150.945 392.981 151.755V158H391.07V151.985C391.07 151.273 390.885 150.717 390.514 150.317C390.143 149.912 389.634 149.71 388.986 149.71C388.543 149.71 388.149 149.805 387.804 149.997C387.463 150.189 387.192 150.47 386.992 150.841C386.796 151.207 386.698 151.651 386.698 152.17Z" fill="#043F2E"/>
<path d="M291.2 289.3C291 289.1 290.7 289 290.3 289C289.9 289.1 279.2 290.9 274.8 295.3C271.7 298.4 271.5 301.8 272 304.2L275.7 302C276.2 301.7 276.7 302.4 276.3 302.8L272.6 306.5L269.8 309.3C269.4 309.7 269.4 310.3 269.8 310.7C270 310.9 270.2 311 270.5 311C270.8 311 271 310.9 271.2 310.7L274 307.9C274.8 308.3 276.3 308.8 278.2 308.8C280.4 308.8 282.4 308.1 284.2 306.7C284.5 306.5 284.7 306 284.5 305.6L283.1 300.6L286.7 302C287.2 302.2 287.8 302 288 301.5C290.1 296.8 291.4 290.5 291.5 290.3C291.5 289.9 291.4 289.5 291.2 289.3Z" fill="#043F2E"/>
<path d="M234.438 336V322.909H242.646V324.609H236.413V328.598H242.217V330.292H236.413V334.3H242.722V336H234.438ZM246.639 326.182L248.806 330.004L250.992 326.182H253.082L250.02 331.091L253.108 336H251.018L248.806 332.331L246.601 336H244.504L247.559 331.091L244.542 326.182H246.639ZM255.045 339.682V326.182H256.911V327.773H257.071C257.182 327.569 257.341 327.332 257.55 327.064C257.759 326.795 258.049 326.561 258.42 326.361C258.79 326.156 259.28 326.054 259.89 326.054C260.682 326.054 261.39 326.254 262.012 326.655C262.634 327.055 263.122 327.633 263.476 328.387C263.834 329.141 264.013 330.049 264.013 331.11C264.013 332.171 263.836 333.081 263.482 333.839C263.128 334.594 262.643 335.175 262.025 335.585C261.407 335.989 260.702 336.192 259.909 336.192C259.312 336.192 258.824 336.092 258.445 335.891C258.07 335.691 257.776 335.457 257.563 335.188C257.35 334.92 257.186 334.681 257.071 334.472H256.956V339.682H255.045ZM256.917 331.091C256.917 331.781 257.018 332.386 257.218 332.906C257.418 333.426 257.708 333.833 258.087 334.127C258.466 334.417 258.931 334.562 259.481 334.562C260.052 334.562 260.529 334.411 260.912 334.108C261.296 333.801 261.586 333.386 261.782 332.862C261.982 332.337 262.082 331.747 262.082 331.091C262.082 330.443 261.984 329.862 261.788 329.346C261.596 328.83 261.307 328.423 260.919 328.125C260.535 327.827 260.056 327.678 259.481 327.678C258.927 327.678 258.458 327.82 258.074 328.106C257.695 328.391 257.407 328.79 257.211 329.301C257.015 329.812 256.917 330.409 256.917 331.091ZM266.154 336V326.182H268.001V327.741H268.104C268.282 327.213 268.598 326.798 269.05 326.495C269.506 326.188 270.021 326.035 270.596 326.035C270.716 326.035 270.856 326.039 271.018 326.048C271.184 326.056 271.314 326.067 271.408 326.08V327.908C271.331 327.886 271.195 327.863 270.999 327.837C270.803 327.808 270.607 327.793 270.411 327.793C269.959 327.793 269.557 327.888 269.203 328.08C268.854 328.268 268.577 328.53 268.372 328.866C268.167 329.199 268.065 329.578 268.065 330.004V336H266.154ZM276.942 336.198C275.975 336.198 275.142 335.991 274.443 335.578C273.748 335.161 273.211 334.575 272.832 333.82C272.457 333.062 272.27 332.173 272.27 331.155C272.27 330.149 272.457 329.263 272.832 328.496C273.211 327.729 273.74 327.13 274.417 326.7C275.099 326.269 275.896 326.054 276.808 326.054C277.362 326.054 277.899 326.146 278.419 326.329C278.939 326.512 279.405 326.8 279.819 327.192C280.232 327.584 280.558 328.093 280.797 328.719C281.035 329.342 281.154 330.098 281.154 330.989V331.666H273.35V330.234H279.282C279.282 329.732 279.179 329.286 278.975 328.898C278.77 328.506 278.483 328.197 278.112 327.972C277.745 327.746 277.315 327.633 276.821 327.633C276.284 327.633 275.815 327.765 275.414 328.029C275.018 328.289 274.711 328.63 274.494 329.052C274.281 329.469 274.174 329.923 274.174 330.413V331.532C274.174 332.188 274.289 332.746 274.52 333.207C274.754 333.667 275.08 334.018 275.498 334.261C275.915 334.5 276.403 334.619 276.961 334.619C277.324 334.619 277.654 334.568 277.952 334.466C278.25 334.359 278.508 334.202 278.725 333.993C278.943 333.784 279.109 333.526 279.224 333.219L281.033 333.545C280.888 334.078 280.628 334.545 280.253 334.945C279.882 335.342 279.416 335.651 278.853 335.872C278.295 336.089 277.658 336.198 276.942 336.198ZM290.632 328.579L288.9 328.886C288.828 328.664 288.713 328.453 288.555 328.253C288.401 328.053 288.193 327.888 287.928 327.761C287.664 327.633 287.334 327.569 286.938 327.569C286.396 327.569 285.945 327.69 285.583 327.933C285.22 328.172 285.039 328.481 285.039 328.86C285.039 329.188 285.161 329.452 285.404 329.653C285.646 329.853 286.039 330.017 286.58 330.145L288.139 330.503C289.043 330.712 289.716 331.033 290.159 331.468C290.602 331.903 290.824 332.467 290.824 333.162C290.824 333.75 290.654 334.274 290.313 334.734C289.976 335.19 289.505 335.548 288.9 335.808C288.299 336.068 287.602 336.198 286.81 336.198C285.71 336.198 284.813 335.964 284.119 335.495C283.424 335.022 282.998 334.351 282.84 333.482L284.688 333.2C284.803 333.682 285.039 334.046 285.397 334.293C285.755 334.536 286.222 334.658 286.797 334.658C287.423 334.658 287.924 334.528 288.299 334.268C288.674 334.004 288.862 333.682 288.862 333.303C288.862 332.996 288.747 332.738 288.517 332.529C288.291 332.32 287.943 332.163 287.475 332.056L285.813 331.692C284.896 331.483 284.219 331.151 283.78 330.695C283.345 330.239 283.128 329.661 283.128 328.962C283.128 328.383 283.29 327.876 283.614 327.441C283.938 327.006 284.385 326.668 284.956 326.425C285.527 326.178 286.181 326.054 286.919 326.054C287.98 326.054 288.815 326.284 289.424 326.744C290.034 327.2 290.436 327.812 290.632 328.579ZM300.283 328.579L298.55 328.886C298.478 328.664 298.363 328.453 298.205 328.253C298.052 328.053 297.843 327.888 297.579 327.761C297.315 327.633 296.984 327.569 296.588 327.569C296.047 327.569 295.595 327.69 295.233 327.933C294.871 328.172 294.69 328.481 294.69 328.86C294.69 329.188 294.811 329.452 295.054 329.653C295.297 329.853 295.689 330.017 296.23 330.145L297.79 330.503C298.693 330.712 299.366 331.033 299.81 331.468C300.253 331.903 300.474 332.467 300.474 333.162C300.474 333.75 300.304 334.274 299.963 334.734C299.626 335.19 299.156 335.548 298.55 335.808C297.95 336.068 297.253 336.198 296.46 336.198C295.361 336.198 294.464 335.964 293.769 335.495C293.075 335.022 292.648 334.351 292.491 333.482L294.338 333.2C294.453 333.682 294.69 334.046 295.048 334.293C295.406 334.536 295.872 334.658 296.447 334.658C297.074 334.658 297.575 334.528 297.95 334.268C298.325 334.004 298.512 333.682 298.512 333.303C298.512 332.996 298.397 332.738 298.167 332.529C297.941 332.32 297.594 332.163 297.125 332.056L295.463 331.692C294.547 331.483 293.869 331.151 293.43 330.695C292.996 330.239 292.778 329.661 292.778 328.962C292.778 328.383 292.94 327.876 293.264 327.441C293.588 327.006 294.036 326.668 294.607 326.425C295.178 326.178 295.832 326.054 296.569 326.054C297.63 326.054 298.465 326.284 299.075 326.744C299.684 327.2 300.087 327.812 300.283 328.579ZM302.576 336V326.182H304.487V336H302.576ZM303.541 324.667C303.209 324.667 302.923 324.556 302.684 324.335C302.45 324.109 302.333 323.84 302.333 323.529C302.333 323.214 302.45 322.945 302.684 322.724C302.923 322.498 303.209 322.385 303.541 322.385C303.873 322.385 304.157 322.498 304.391 322.724C304.63 322.945 304.749 323.214 304.749 323.529C304.749 323.84 304.63 324.109 304.391 324.335C304.157 324.556 303.873 324.667 303.541 324.667ZM311.194 336.198C310.273 336.198 309.47 335.987 308.784 335.565C308.098 335.143 307.565 334.553 307.186 333.795C306.807 333.036 306.617 332.15 306.617 331.136C306.617 330.117 306.807 329.227 307.186 328.464C307.565 327.701 308.098 327.109 308.784 326.687C309.47 326.265 310.273 326.054 311.194 326.054C312.114 326.054 312.918 326.265 313.604 326.687C314.29 327.109 314.822 327.701 315.202 328.464C315.581 329.227 315.771 330.117 315.771 331.136C315.771 332.15 315.581 333.036 315.202 333.795C314.822 334.553 314.29 335.143 313.604 335.565C312.918 335.987 312.114 336.198 311.194 336.198ZM311.2 334.594C311.797 334.594 312.291 334.436 312.683 334.121C313.075 333.805 313.365 333.386 313.553 332.862C313.744 332.337 313.84 331.76 313.84 331.129C313.84 330.503 313.744 329.928 313.553 329.403C313.365 328.875 313.075 328.451 312.683 328.131C312.291 327.812 311.797 327.652 311.2 327.652C310.599 327.652 310.101 327.812 309.705 328.131C309.313 328.451 309.021 328.875 308.829 329.403C308.641 329.928 308.548 330.503 308.548 331.129C308.548 331.76 308.641 332.337 308.829 332.862C309.021 333.386 309.313 333.805 309.705 334.121C310.101 334.436 310.599 334.594 311.2 334.594ZM319.815 330.17V336H317.904V326.182H319.738V327.78H319.86C320.086 327.26 320.439 326.842 320.921 326.527C321.407 326.212 322.018 326.054 322.756 326.054C323.425 326.054 324.01 326.195 324.513 326.476C325.016 326.753 325.406 327.166 325.683 327.716C325.96 328.266 326.099 328.945 326.099 329.755V336H324.187V329.985C324.187 329.273 324.002 328.717 323.631 328.317C323.26 327.912 322.751 327.71 322.104 327.71C321.66 327.71 321.266 327.805 320.921 327.997C320.58 328.189 320.309 328.47 320.109 328.841C319.913 329.207 319.815 329.651 319.815 330.17Z" fill="#043F2E"/>
<g clip-path="url(#clip3_233_422)">
<path d="M316 501C316 504.9 319.1 508 323 508C326.9 508 330 504.9 330 501C330 497.1 326.9 494 323 494C319.1 494 316 497.1 316 501ZM328 501C328 503.8 325.8 506 323 506C320.2 506 318 503.8 318 501C318 498.2 320.2 496 323 496C325.8 496 328 498.2 328 501Z" fill="#043F2E"/>
<path d="M323 503C324.105 503 325 502.105 325 501C325 499.895 324.105 499 323 499C321.895 499 321 499.895 321 501C321 502.105 321.895 503 323 503Z" fill="#043F2E"/>
<path d="M331 496C332.657 496 334 494.657 334 493C334 491.343 332.657 490 331 490C329.343 490 328 491.343 328 493C328 494.657 329.343 496 331 496Z" fill="#043F2E"/>
<path d="M334.2 496.8C333.7 497.2 333.1 497.6 332.4 497.8C332.8 498.8 332.9 499.9 332.9 501C332.9 506.5 328.4 511 322.9 511C317.4 511 313 506.5 313 501C313 495.5 317.5 491 323 491C324.1 491 325.2 491.2 326.2 491.5C326.4 490.8 326.7 490.2 327.2 489.7C325.9 489.3 324.5 489 323 489C316.4 489 311 494.4 311 501C311 507.6 316.4 513 323 513C329.6 513 335 507.6 335 501C335 499.5 334.7 498.1 334.2 496.8Z" fill="#043F2E"/>
</g>
<path d="M312.438 537V523.909H314.413V530.161H314.573L320.064 523.909H322.55L317.271 529.803L322.57 537H320.192L315.96 531.151L314.413 532.928V537H312.438ZM326.149 531.17V537H324.238V527.182H326.072V528.78H326.194C326.42 528.26 326.773 527.842 327.255 527.527C327.741 527.212 328.352 527.054 329.089 527.054C329.759 527.054 330.344 527.195 330.847 527.476C331.35 527.753 331.74 528.166 332.017 528.716C332.294 529.266 332.433 529.945 332.433 530.755V537H330.521V530.985C330.521 530.273 330.336 529.717 329.965 529.317C329.594 528.912 329.085 528.71 328.438 528.71C327.994 528.71 327.6 528.805 327.255 528.997C326.914 529.189 326.643 529.47 326.443 529.841C326.247 530.207 326.149 530.651 326.149 531.17ZM339.131 537.198C338.211 537.198 337.408 536.987 336.722 536.565C336.036 536.143 335.503 535.553 335.124 534.795C334.744 534.036 334.555 533.15 334.555 532.136C334.555 531.117 334.744 530.227 335.124 529.464C335.503 528.701 336.036 528.109 336.722 527.687C337.408 527.265 338.211 527.054 339.131 527.054C340.052 527.054 340.855 527.265 341.541 527.687C342.227 528.109 342.76 528.701 343.139 529.464C343.518 530.227 343.708 531.117 343.708 532.136C343.708 533.15 343.518 534.036 343.139 534.795C342.76 535.553 342.227 536.143 341.541 536.565C340.855 536.987 340.052 537.198 339.131 537.198ZM339.138 535.594C339.734 535.594 340.229 535.436 340.621 535.121C341.013 534.805 341.303 534.386 341.49 533.862C341.682 533.337 341.778 532.76 341.778 532.129C341.778 531.503 341.682 530.928 341.49 530.403C341.303 529.875 341.013 529.451 340.621 529.131C340.229 528.812 339.734 528.652 339.138 528.652C338.537 528.652 338.038 528.812 337.642 529.131C337.25 529.451 336.958 529.875 336.766 530.403C336.579 530.928 336.485 531.503 336.485 532.129C336.485 532.76 336.579 533.337 336.766 533.862C336.958 534.386 337.25 534.805 337.642 535.121C338.038 535.436 338.537 535.594 339.138 535.594ZM347.671 537L344.782 527.182H346.757L348.681 534.392H348.777L350.707 527.182H352.683L354.6 534.36H354.696L356.607 527.182H358.582L355.7 537H353.75L351.756 529.911H351.609L349.614 537H347.671ZM362.307 523.909V537H360.396V523.909H362.307ZM369.11 537.198C368.143 537.198 367.31 536.991 366.611 536.578C365.916 536.161 365.379 535.575 365 534.82C364.625 534.062 364.438 533.173 364.438 532.155C364.438 531.149 364.625 530.263 365 529.496C365.379 528.729 365.908 528.13 366.585 527.7C367.267 527.269 368.064 527.054 368.976 527.054C369.53 527.054 370.067 527.146 370.587 527.329C371.107 527.512 371.573 527.8 371.987 528.192C372.4 528.584 372.726 529.093 372.964 529.719C373.203 530.342 373.322 531.098 373.322 531.989V532.666H365.518V531.234H371.45C371.45 530.732 371.347 530.286 371.143 529.898C370.938 529.506 370.651 529.197 370.28 528.972C369.913 528.746 369.483 528.633 368.989 528.633C368.452 528.633 367.983 528.765 367.582 529.029C367.186 529.289 366.879 529.63 366.662 530.052C366.449 530.469 366.342 530.923 366.342 531.413V532.532C366.342 533.188 366.457 533.746 366.688 534.207C366.922 534.667 367.248 535.018 367.665 535.261C368.083 535.5 368.571 535.619 369.129 535.619C369.491 535.619 369.822 535.568 370.12 535.466C370.418 535.359 370.676 535.202 370.893 534.993C371.111 534.784 371.277 534.526 371.392 534.219L373.201 534.545C373.056 535.078 372.796 535.545 372.421 535.945C372.05 536.342 371.584 536.651 371.021 536.872C370.463 537.089 369.826 537.198 369.11 537.198ZM379.118 537.192C378.326 537.192 377.618 536.989 376.996 536.585C376.378 536.175 375.893 535.594 375.539 534.839C375.189 534.081 375.015 533.171 375.015 532.11C375.015 531.049 375.192 530.141 375.545 529.387C375.903 528.633 376.393 528.055 377.015 527.655C377.638 527.254 378.343 527.054 379.131 527.054C379.741 527.054 380.231 527.156 380.601 527.361C380.976 527.561 381.266 527.795 381.471 528.064C381.68 528.332 381.841 528.569 381.956 528.773H382.072V523.909H383.983V537H382.116V535.472H381.956C381.841 535.681 381.675 535.92 381.458 536.188C381.245 536.457 380.951 536.691 380.576 536.891C380.201 537.092 379.715 537.192 379.118 537.192ZM379.54 535.562C380.09 535.562 380.555 535.417 380.934 535.127C381.317 534.833 381.607 534.426 381.803 533.906C382.003 533.386 382.104 532.781 382.104 532.091C382.104 531.409 382.006 530.812 381.809 530.301C381.613 529.79 381.326 529.391 380.947 529.106C380.567 528.82 380.099 528.678 379.54 528.678C378.965 528.678 378.486 528.827 378.102 529.125C377.719 529.423 377.429 529.83 377.233 530.346C377.041 530.862 376.945 531.443 376.945 532.091C376.945 532.747 377.043 533.337 377.239 533.862C377.435 534.386 377.725 534.801 378.108 535.108C378.496 535.411 378.974 535.562 379.54 535.562ZM390.827 540.886C390.047 540.886 389.376 540.784 388.814 540.58C388.255 540.375 387.799 540.104 387.446 539.768C387.092 539.431 386.828 539.063 386.653 538.662L388.296 537.984C388.411 538.172 388.564 538.37 388.756 538.579C388.952 538.792 389.216 538.973 389.549 539.122C389.885 539.271 390.318 539.346 390.846 539.346C391.571 539.346 392.169 539.169 392.642 538.815C393.115 538.466 393.352 537.908 393.352 537.141V535.21H393.23C393.115 535.419 392.949 535.651 392.732 535.907C392.519 536.163 392.225 536.384 391.85 536.572C391.475 536.759 390.987 536.853 390.386 536.853C389.61 536.853 388.912 536.672 388.289 536.31C387.672 535.943 387.181 535.404 386.819 534.692C386.461 533.977 386.282 533.097 386.282 532.053C386.282 531.009 386.459 530.114 386.813 529.368C387.171 528.622 387.661 528.051 388.283 527.655C388.905 527.254 389.61 527.054 390.399 527.054C391.008 527.054 391.5 527.156 391.875 527.361C392.25 527.561 392.542 527.795 392.751 528.064C392.964 528.332 393.128 528.569 393.243 528.773H393.384V527.182H395.257V537.217C395.257 538.061 395.061 538.754 394.669 539.295C394.277 539.836 393.746 540.237 393.077 540.496C392.412 540.756 391.662 540.886 390.827 540.886ZM390.808 535.268C391.358 535.268 391.822 535.14 392.201 534.884C392.585 534.624 392.875 534.254 393.071 533.772C393.271 533.286 393.371 532.705 393.371 532.027C393.371 531.366 393.273 530.785 393.077 530.282C392.881 529.779 392.593 529.387 392.214 529.106C391.835 528.82 391.366 528.678 390.808 528.678C390.233 528.678 389.753 528.827 389.37 529.125C388.986 529.419 388.696 529.82 388.5 530.327C388.309 530.834 388.213 531.401 388.213 532.027C388.213 532.67 388.311 533.235 388.507 533.721C388.703 534.207 388.993 534.586 389.376 534.859C389.764 535.131 390.241 535.268 390.808 535.268ZM402.051 537.198C401.084 537.198 400.251 536.991 399.552 536.578C398.858 536.161 398.321 535.575 397.941 534.82C397.566 534.062 397.379 533.173 397.379 532.155C397.379 531.149 397.566 530.263 397.941 529.496C398.321 528.729 398.849 528.13 399.527 527.7C400.208 527.269 401.005 527.054 401.917 527.054C402.471 527.054 403.008 527.146 403.528 527.329C404.048 527.512 404.515 527.8 404.928 528.192C405.341 528.584 405.667 529.093 405.906 529.719C406.145 530.342 406.264 531.098 406.264 531.989V532.666H398.459V531.234H404.391C404.391 530.732 404.289 530.286 404.084 529.898C403.88 529.506 403.592 529.197 403.221 528.972C402.855 528.746 402.424 528.633 401.93 528.633C401.393 528.633 400.924 528.765 400.524 529.029C400.127 529.289 399.821 529.63 399.603 530.052C399.39 530.469 399.284 530.923 399.284 531.413V532.532C399.284 533.188 399.399 533.746 399.629 534.207C399.863 534.667 400.189 535.018 400.607 535.261C401.025 535.5 401.512 535.619 402.071 535.619C402.433 535.619 402.763 535.568 403.061 535.466C403.36 535.359 403.618 535.202 403.835 534.993C404.052 534.784 404.218 534.526 404.333 534.219L406.142 534.545C405.998 535.078 405.738 535.545 405.363 535.945C404.992 536.342 404.525 536.651 403.963 536.872C403.404 537.089 402.767 537.198 402.051 537.198ZM413.301 537V523.909H417.968C418.982 523.909 419.824 524.084 420.493 524.433C421.166 524.783 421.669 525.266 422.001 525.884C422.333 526.498 422.5 527.207 422.5 528.013C422.5 528.814 422.331 529.519 421.995 530.129C421.662 530.734 421.159 531.205 420.486 531.541C419.817 531.878 418.975 532.046 417.961 532.046H414.426V530.346H417.782C418.422 530.346 418.941 530.254 419.342 530.071C419.747 529.888 420.043 529.621 420.23 529.272C420.418 528.923 420.512 528.503 420.512 528.013C420.512 527.518 420.416 527.09 420.224 526.728C420.037 526.366 419.74 526.089 419.336 525.897C418.935 525.701 418.409 525.603 417.757 525.603H415.277V537H413.301ZM419.764 531.094L422.998 537H420.748L417.578 531.094H419.764ZM428.858 537.198C427.891 537.198 427.058 536.991 426.359 536.578C425.664 536.161 425.127 535.575 424.748 534.82C424.373 534.062 424.186 533.173 424.186 532.155C424.186 531.149 424.373 530.263 424.748 529.496C425.127 528.729 425.656 528.13 426.333 527.7C427.015 527.269 427.812 527.054 428.724 527.054C429.278 527.054 429.815 527.146 430.335 527.329C430.855 527.512 431.321 527.8 431.735 528.192C432.148 528.584 432.474 529.093 432.713 529.719C432.951 530.342 433.07 531.098 433.07 531.989V532.666H425.266V531.234H431.198C431.198 530.732 431.095 530.286 430.891 529.898C430.686 529.506 430.399 529.197 430.028 528.972C429.661 528.746 429.231 528.633 428.737 528.633C428.2 528.633 427.731 528.765 427.33 529.029C426.934 529.289 426.627 529.63 426.41 530.052C426.197 530.469 426.09 530.923 426.09 531.413V532.532C426.09 533.188 426.205 533.746 426.436 534.207C426.67 534.667 426.996 535.018 427.414 535.261C427.831 535.5 428.319 535.619 428.877 535.619C429.24 535.619 429.57 535.568 429.868 535.466C430.166 535.359 430.424 535.202 430.642 534.993C430.859 534.784 431.025 534.526 431.14 534.219L432.949 534.545C432.804 535.078 432.544 535.545 432.169 535.945C431.798 536.342 431.332 536.651 430.769 536.872C430.211 537.089 429.574 537.198 428.858 537.198ZM439.774 527.182V528.716H434.411V527.182H439.774ZM435.849 524.83H437.761V534.117C437.761 534.488 437.816 534.767 437.927 534.955C438.038 535.138 438.18 535.263 438.355 535.332C438.534 535.396 438.728 535.428 438.937 535.428C439.09 535.428 439.224 535.417 439.339 535.396C439.455 535.374 439.544 535.357 439.608 535.344L439.953 536.923C439.842 536.966 439.685 537.009 439.48 537.051C439.276 537.098 439.02 537.124 438.713 537.128C438.21 537.136 437.741 537.047 437.307 536.859C436.872 536.672 436.521 536.382 436.252 535.99C435.984 535.598 435.849 535.106 435.849 534.513V524.83ZM441.888 537V527.182H443.736V528.741H443.838C444.017 528.213 444.332 527.798 444.784 527.495C445.24 527.188 445.756 527.035 446.331 527.035C446.45 527.035 446.591 527.039 446.753 527.048C446.919 527.056 447.049 527.067 447.143 527.08V528.908C447.066 528.886 446.93 528.863 446.733 528.837C446.537 528.808 446.341 528.793 446.145 528.793C445.694 528.793 445.291 528.888 444.937 529.08C444.588 529.268 444.311 529.53 444.106 529.866C443.902 530.199 443.8 530.578 443.8 531.004V537H441.888ZM448.797 537V527.182H450.708V537H448.797ZM449.762 525.667C449.429 525.667 449.144 525.556 448.905 525.335C448.671 525.109 448.554 524.84 448.554 524.529C448.554 524.214 448.671 523.945 448.905 523.724C449.144 523.498 449.429 523.385 449.762 523.385C450.094 523.385 450.377 523.498 450.612 523.724C450.85 523.945 450.97 524.214 450.97 524.529C450.97 524.84 450.85 525.109 450.612 525.335C450.377 525.556 450.094 525.667 449.762 525.667ZM457.51 537.198C456.543 537.198 455.71 536.991 455.011 536.578C454.317 536.161 453.78 535.575 453.4 534.82C453.025 534.062 452.838 533.173 452.838 532.155C452.838 531.149 453.025 530.263 453.4 529.496C453.78 528.729 454.308 528.13 454.986 527.7C455.667 527.269 456.464 527.054 457.376 527.054C457.93 527.054 458.467 527.146 458.987 527.329C459.507 527.512 459.974 527.8 460.387 528.192C460.8 528.584 461.126 529.093 461.365 529.719C461.604 530.342 461.723 531.098 461.723 531.989V532.666H453.918V531.234H459.85C459.85 530.732 459.748 530.286 459.543 529.898C459.339 529.506 459.051 529.197 458.68 528.972C458.314 528.746 457.883 528.633 457.389 528.633C456.852 528.633 456.383 528.765 455.983 529.029C455.586 529.289 455.28 529.63 455.062 530.052C454.849 530.469 454.743 530.923 454.743 531.413V532.532C454.743 533.188 454.858 533.746 455.088 534.207C455.322 534.667 455.648 535.018 456.066 535.261C456.483 535.5 456.971 535.619 457.53 535.619C457.892 535.619 458.222 535.568 458.52 535.466C458.819 535.359 459.077 535.202 459.294 534.993C459.511 534.784 459.677 534.526 459.792 534.219L461.601 534.545C461.456 535.078 461.197 535.545 460.822 535.945C460.451 536.342 459.984 536.651 459.422 536.872C458.863 537.089 458.226 537.198 457.51 537.198ZM471.961 527.182L468.401 537H466.355L462.789 527.182H464.841L467.327 534.737H467.429L469.909 527.182H471.961ZM476.333 537.217C475.711 537.217 475.149 537.102 474.646 536.872C474.143 536.638 473.745 536.299 473.451 535.856C473.161 535.413 473.016 534.869 473.016 534.226C473.016 533.672 473.123 533.216 473.336 532.858C473.549 532.5 473.836 532.217 474.199 532.008C474.561 531.799 474.966 531.641 475.413 531.535C475.86 531.428 476.316 531.347 476.781 531.292C477.369 531.224 477.846 531.168 478.213 531.126C478.579 531.079 478.846 531.004 479.012 530.902C479.178 530.8 479.261 530.634 479.261 530.403V530.359C479.261 529.8 479.103 529.368 478.788 529.061C478.477 528.754 478.012 528.601 477.395 528.601C476.751 528.601 476.244 528.744 475.873 529.029C475.507 529.31 475.253 529.624 475.113 529.969L473.316 529.56C473.529 528.963 473.841 528.482 474.25 528.115C474.663 527.744 475.138 527.476 475.675 527.31C476.212 527.139 476.777 527.054 477.369 527.054C477.761 527.054 478.176 527.101 478.615 527.195C479.059 527.284 479.472 527.45 479.855 527.693C480.243 527.936 480.561 528.283 480.808 528.735C481.055 529.183 481.179 529.764 481.179 530.48V537H479.312V535.658H479.235C479.112 535.905 478.926 536.148 478.679 536.386C478.432 536.625 478.115 536.823 477.727 536.981C477.339 537.138 476.875 537.217 476.333 537.217ZM476.749 535.683C477.277 535.683 477.729 535.579 478.104 535.37C478.483 535.161 478.771 534.888 478.967 534.552C479.167 534.211 479.267 533.847 479.267 533.459V532.193C479.199 532.261 479.067 532.325 478.871 532.385C478.679 532.44 478.46 532.489 478.213 532.532C477.966 532.57 477.725 532.607 477.49 532.641C477.256 532.67 477.06 532.696 476.902 532.717C476.532 532.764 476.193 532.843 475.886 532.954C475.583 533.065 475.341 533.224 475.157 533.433C474.978 533.638 474.889 533.911 474.889 534.251C474.889 534.724 475.064 535.082 475.413 535.325C475.762 535.564 476.208 535.683 476.749 535.683ZM485.635 523.909V537H483.724V523.909H485.635Z" fill="#043F2E"/>
<path d="M27 181.53C26.6563 181.376 26.2976 181.244 25.9337 181.132C24.8825 180.807 23.7136 180.621 22.5677 180.543C20.3224 180.391 17.9488 180.643 16.5848 181.266L16 181.533V195.221L17.0817 195.132C18.2362 195.038 20.3205 195.172 22.4162 195.558C23.4554 195.749 24.4705 195.998 25.3516 196.299C26.0187 196.527 26.5753 196.774 27 197.028V181.53Z" fill="#043F2E"/>
<path d="M24.882 200L25.382 201H30.618L31.118 200H39V197.146L38.7548 197.126C37.837 197.05 35.9413 197.157 33.9463 197.525C32.9749 197.704 32.0594 197.931 31.2952 198.192C30.491 198.467 30.0326 198.72 29.8388 198.87L29.2258 199.346C28.5044 199.906 27.4956 199.906 26.7742 199.346L26.1612 198.87C25.9674 198.72 25.509 198.467 24.7048 198.192C23.9406 197.931 23.0251 197.704 22.0537 197.525C20.0587 197.157 18.163 197.05 17.2452 197.126L17 197.146V200H24.882Z" fill="#043F2E"/>
<path d="M29 197.028C29.4247 196.774 29.9813 196.527 30.6484 196.299C31.5295 195.998 32.5446 195.75 33.5838 195.558C35.6795 195.172 37.7638 195.038 38.9183 195.132L40 195.221V181.533L39.4152 181.266C38.0512 180.643 35.6776 180.391 33.4323 180.543C32.2863 180.621 31.1175 180.807 30.0663 181.132C29.7024 181.245 29.3437 181.376 29 181.531V197.028Z" fill="#043F2E"/>
<path d="M24.5781 216.348C24.5099 215.743 24.2287 215.274 23.7344 214.942C23.2401 214.605 22.6179 214.437 21.8679 214.437C21.331 214.437 20.8665 214.522 20.4744 214.692C20.0824 214.859 19.7777 215.089 19.5604 215.383C19.3473 215.673 19.2408 216.003 19.2408 216.374C19.2408 216.685 19.3132 216.953 19.4581 217.179C19.6072 217.405 19.8011 217.594 20.0398 217.748C20.2827 217.897 20.5426 218.023 20.8196 218.125C21.0966 218.223 21.3629 218.304 21.6186 218.368L22.897 218.7C23.3146 218.803 23.7429 218.941 24.1818 219.116C24.6207 219.29 25.0277 219.521 25.4027 219.806C25.7777 220.092 26.0803 220.445 26.3104 220.867C26.5447 221.289 26.6619 221.794 26.6619 222.382C26.6619 223.124 26.4702 223.782 26.0866 224.357C25.7074 224.933 25.1555 225.386 24.4311 225.719C23.7109 226.051 22.8395 226.217 21.8168 226.217C20.8366 226.217 19.9886 226.062 19.2727 225.751C18.5568 225.44 17.9964 224.999 17.5916 224.428C17.1868 223.852 16.9631 223.17 16.9205 222.382H18.902C18.9403 222.855 19.0938 223.249 19.3622 223.565C19.6349 223.876 19.9822 224.108 20.4041 224.261C20.8303 224.411 21.2969 224.485 21.804 224.485C22.3622 224.485 22.8587 224.398 23.2933 224.223C23.7322 224.044 24.0774 223.797 24.3288 223.482C24.5803 223.162 24.706 222.789 24.706 222.363C24.706 221.975 24.5952 221.658 24.3736 221.411C24.1563 221.163 23.8601 220.959 23.4851 220.797C23.1143 220.635 22.6946 220.492 22.2259 220.369L20.679 219.947C19.6307 219.661 18.7997 219.241 18.1861 218.688C17.5767 218.134 17.272 217.401 17.272 216.489C17.272 215.734 17.4766 215.076 17.8857 214.513C18.2947 213.951 18.8487 213.514 19.5476 213.203C20.2464 212.888 21.0348 212.73 21.9126 212.73C22.799 212.73 23.581 212.886 24.2585 213.197C24.9403 213.508 25.4773 213.936 25.8693 214.482C26.2614 215.023 26.4659 215.645 26.483 216.348H24.5781ZM33.4519 216.182V217.716H28.089V216.182H33.4519ZM29.5272 213.83H31.4384V223.117C31.4384 223.488 31.4938 223.767 31.6046 223.955C31.7154 224.138 31.8581 224.263 32.0328 224.332C32.2118 224.396 32.4057 224.428 32.6145 224.428C32.7679 224.428 32.9022 224.417 33.0172 224.396C33.1323 224.374 33.2218 224.357 33.2857 224.344L33.6309 225.923C33.5201 225.966 33.3624 226.009 33.1578 226.051C32.9533 226.098 32.6976 226.124 32.3908 226.128C31.888 226.136 31.4192 226.047 30.9846 225.859C30.5499 225.672 30.1983 225.382 29.9299 224.99C29.6614 224.598 29.5272 224.106 29.5272 223.513V213.83ZM39.5962 226.198C38.6758 226.198 37.8725 225.987 37.1864 225.565C36.5004 225.143 35.9677 224.553 35.5884 223.795C35.2092 223.036 35.0195 222.15 35.0195 221.136C35.0195 220.117 35.2092 219.227 35.5884 218.464C35.9677 217.701 36.5004 217.109 37.1864 216.687C37.8725 216.265 38.6758 216.054 39.5962 216.054C40.5167 216.054 41.32 216.265 42.006 216.687C42.6921 217.109 43.2248 217.701 43.604 218.464C43.9833 219.227 44.1729 220.117 44.1729 221.136C44.1729 222.15 43.9833 223.036 43.604 223.795C43.2248 224.553 42.6921 225.143 42.006 225.565C41.32 225.987 40.5167 226.198 39.5962 226.198ZM39.6026 224.594C40.1992 224.594 40.6935 224.436 41.0856 224.121C41.4776 223.805 41.7674 223.386 41.9549 222.862C42.1467 222.337 42.2425 221.76 42.2425 221.129C42.2425 220.503 42.1467 219.928 41.9549 219.403C41.7674 218.875 41.4776 218.451 41.0856 218.131C40.6935 217.812 40.1992 217.652 39.6026 217.652C39.0018 217.652 38.5032 217.812 38.1069 218.131C37.7148 218.451 37.4229 218.875 37.2312 219.403C37.0437 219.928 36.9499 220.503 36.9499 221.129C36.9499 221.76 37.0437 222.337 37.2312 222.862C37.4229 223.386 37.7148 223.805 38.1069 224.121C38.5032 224.436 39.0018 224.594 39.6026 224.594ZM46.3063 226V216.182H48.1536V217.741H48.2559C48.4348 217.213 48.7502 216.798 49.2019 216.495C49.6578 216.188 50.1735 216.035 50.7488 216.035C50.8681 216.035 51.0087 216.039 51.1706 216.048C51.3368 216.056 51.4668 216.067 51.5605 216.08V217.908C51.4838 217.886 51.3475 217.863 51.1515 217.837C50.9554 217.808 50.7594 217.793 50.5634 217.793C50.1117 217.793 49.709 217.888 49.3553 218.08C49.0059 218.268 48.7289 218.53 48.5243 218.866C48.3198 219.199 48.2175 219.578 48.2175 220.004V226H46.3063ZM53.2145 226V216.182H55.1257V226H53.2145ZM54.1797 214.667C53.8473 214.667 53.5618 214.556 53.3232 214.335C53.0888 214.109 52.9716 213.84 52.9716 213.529C52.9716 213.214 53.0888 212.945 53.3232 212.724C53.5618 212.498 53.8473 212.385 54.1797 212.385C54.5121 212.385 54.7955 212.498 55.0298 212.724C55.2685 212.945 55.3878 213.214 55.3878 213.529C55.3878 213.84 55.2685 214.109 55.0298 214.335C54.7955 214.556 54.5121 214.667 54.1797 214.667ZM61.9284 226.198C60.9611 226.198 60.128 225.991 59.4292 225.578C58.7346 225.161 58.1976 224.575 57.8184 223.82C57.4434 223.062 57.2559 222.173 57.2559 221.155C57.2559 220.149 57.4434 219.263 57.8184 218.496C58.1976 217.729 58.726 217.13 59.4036 216.7C60.0854 216.269 60.8823 216.054 61.7942 216.054C62.3482 216.054 62.8851 216.146 63.405 216.329C63.9249 216.512 64.3915 216.8 64.8049 217.192C65.2182 217.584 65.5442 218.093 65.7828 218.719C66.0215 219.342 66.1408 220.098 66.1408 220.989V221.666H58.3361V220.234H64.2679C64.2679 219.732 64.1657 219.286 63.9611 218.898C63.7566 218.506 63.4689 218.197 63.0982 217.972C62.7317 217.746 62.3013 217.633 61.807 217.633C61.2701 217.633 60.8013 217.765 60.4007 218.029C60.0044 218.289 59.6976 218.63 59.4803 219.052C59.2672 219.469 59.1607 219.923 59.1607 220.413V221.532C59.1607 222.188 59.2757 222.746 59.5059 223.207C59.7402 223.667 60.0662 224.018 60.4838 224.261C60.9015 224.5 61.3894 224.619 61.9476 224.619C62.3098 224.619 62.6401 224.568 62.9384 224.466C63.2367 224.359 63.4945 224.202 63.7118 223.993C63.9292 223.784 64.0953 223.526 64.2104 223.219L66.0194 223.545C65.8745 224.078 65.6145 224.545 65.2395 224.945C64.8688 225.342 64.4022 225.651 63.8397 225.872C63.2814 226.089 62.6444 226.198 61.9284 226.198ZM75.6186 218.579L73.8864 218.886C73.8139 218.664 73.6989 218.453 73.5412 218.253C73.3878 218.053 73.179 217.888 72.9148 217.761C72.6506 217.633 72.3203 217.569 71.924 217.569C71.3828 217.569 70.9311 217.69 70.5689 217.933C70.2067 218.172 70.0256 218.481 70.0256 218.86C70.0256 219.188 70.147 219.452 70.3899 219.653C70.6328 219.853 71.0249 220.017 71.5661 220.145L73.1257 220.503C74.0291 220.712 74.7024 221.033 75.1456 221.468C75.5888 221.903 75.8104 222.467 75.8104 223.162C75.8104 223.75 75.6399 224.274 75.299 224.734C74.9624 225.19 74.4915 225.548 73.8864 225.808C73.2855 226.068 72.5888 226.198 71.7962 226.198C70.6967 226.198 69.7997 225.964 69.1051 225.495C68.4105 225.022 67.9844 224.351 67.8267 223.482L69.674 223.2C69.7891 223.682 70.0256 224.046 70.3835 224.293C70.7415 224.536 71.2081 224.658 71.7834 224.658C72.4098 224.658 72.9105 224.528 73.2855 224.268C73.6605 224.004 73.848 223.682 73.848 223.303C73.848 222.996 73.733 222.738 73.5028 222.529C73.277 222.32 72.9297 222.163 72.4609 222.056L70.799 221.692C69.8828 221.483 69.2053 221.151 68.7663 220.695C68.3317 220.239 68.1143 219.661 68.1143 218.962C68.1143 218.383 68.2763 217.876 68.6001 217.441C68.924 217.006 69.3714 216.668 69.9425 216.425C70.5135 216.178 71.1676 216.054 71.9048 216.054C72.9659 216.054 73.8011 216.284 74.4105 216.744C75.0199 217.2 75.4226 217.812 75.6186 218.579Z" fill="#043F2E"/>
<defs>
<clipPath id="clip0_233_422">
<rect width="24" height="24" fill="white" transform="translate(16 489)"/>
</clipPath>
<clipPath id="clip1_233_422">
<rect width="24" height="24" fill="white" transform="translate(16 354)"/>
</clipPath>
<clipPath id="clip2_233_422">
<rect width="24" height="24" fill="white" transform="translate(279 110)"/>
</clipPath>
<clipPath id="clip3_233_422">
<rect width="24" height="24" fill="white" transform="translate(311 489)"/>
</clipPath>
</defs>
</svg>
