<svg width="304" height="35" viewBox="0 0 304 35" fill="none" xmlns="http://www.w3.org/2000/svg">
<path d="M80.2583 34.5633H72.045L59.5056 21.6178L46.9662 34.5633H38.6902L55.3676 17.3445L38.6902 0H46.9662L80.2583 34.5633ZM80.2583 0L65.3991 15.4592L61.3238 11.1859L72.045 0H80.2583Z" fill="white"/>
<path d="M104.316 34.5633H98.0462V6.22139H81.4314V0H120.868V6.22139H104.316V34.5633Z" fill="white"/>
<path d="M166.66 34.5633H158.133L148.352 25.1998H135.625V18.9784H152.992C154.747 18.9784 156.231 18.35 157.443 17.0931C158.697 15.7944 159.324 14.2862 159.324 12.5685C159.324 10.8089 158.697 9.32161 157.443 8.10666C156.231 6.84981 154.747 6.22139 152.992 6.22139H132.364V34.5633H126.095V0H152.992C155.332 0 157.443 0.565581 159.324 1.69674C161.205 2.82791 162.71 4.35707 163.838 6.28423C164.967 8.1695 165.531 10.2642 165.531 12.5685C165.531 14.4537 165.134 16.2343 164.34 17.9101C163.588 19.544 162.522 20.9684 161.142 22.1834C159.805 23.3564 158.258 24.1943 156.503 24.697L166.66 34.5633Z" fill="white"/>
<path d="M213.623 17.2188C213.623 20.4028 212.954 23.3145 211.616 25.9539C210.321 28.5514 208.482 30.6461 206.099 32.2381C203.717 33.7882 200.937 34.5633 197.76 34.5633H186.851C183.674 34.5633 180.874 33.7882 178.45 32.2381C176.067 30.6461 174.207 28.5514 172.87 25.9539C171.574 23.3145 170.926 20.4028 170.926 17.2188C170.926 14.0348 171.574 11.144 172.87 8.54656C174.207 5.94908 176.067 3.87528 178.45 2.32517C180.874 0.775056 183.674 0 186.851 0H197.76C200.937 0 203.717 0.775056 206.099 2.32517C208.482 3.87528 210.321 5.94908 211.616 8.54656C212.954 11.144 213.623 14.0348 213.623 17.2188ZM207.353 17.2188C207.353 15.2078 206.977 13.3645 206.224 11.6887C205.472 10.0129 204.364 8.69319 202.902 7.72961C201.48 6.72413 199.767 6.22139 197.76 6.22139H186.851C184.845 6.22139 183.11 6.72413 181.647 7.72961C180.226 8.69319 179.118 10.0129 178.324 11.6887C177.572 13.3645 177.196 15.2078 177.196 17.2188C177.196 19.2298 177.572 21.0731 178.324 22.7489C179.118 24.4247 180.226 25.7654 181.647 26.7708C183.11 27.7763 184.845 28.2791 186.851 28.2791H197.76C199.767 28.2791 201.48 27.7763 202.902 26.7708C204.364 25.7654 205.472 24.4247 206.224 22.7489C206.977 21.0731 207.353 19.2298 207.353 17.2188Z" fill="white"/>
<path d="M260.005 12.5685C260.005 14.8308 259.441 16.9255 258.312 18.8527C257.184 20.7799 255.658 22.33 253.736 23.503C251.855 24.6342 249.765 25.1998 247.466 25.1998H230.036V18.9784H247.466C249.221 18.9784 250.705 18.35 251.917 17.0931C253.171 15.7944 253.798 14.2862 253.798 12.5685C253.798 10.8089 253.171 9.32161 251.917 8.10666C250.705 6.84981 249.221 6.22139 247.466 6.22139H226.776V34.5633H220.569V0H247.466C249.765 0 251.855 0.565581 253.736 1.69674C255.658 2.82791 257.184 4.35707 258.312 6.28423C259.441 8.1695 260.005 10.2642 260.005 12.5685Z" fill="white"/>
<path d="M304 24.3828C304 26.2681 303.436 27.9858 302.307 29.5359C301.179 31.0441 299.653 32.2591 297.73 33.1808C295.849 34.1025 293.759 34.5633 291.461 34.5633H264.501V28.2791H291.461C293.174 28.2791 294.637 27.902 295.849 27.1479C297.103 26.3938 297.73 25.4721 297.73 24.3828V22.8118H276.978C274.679 22.8118 272.589 22.2462 270.708 21.115C268.827 19.9839 267.322 18.4757 266.194 16.5904C265.065 14.6632 264.501 12.5475 264.501 10.2433V0H270.708V10.2433C270.708 12.0029 271.314 13.4902 272.526 14.7051C273.78 15.9201 275.264 16.5275 276.978 16.5275H297.73V0H304V24.3828Z" fill="white"/>
<path d="M185.725 14.4063H198.738V20.3348H185.725V14.4063Z" fill="white"/>
<path d="M0 14.4063H14.1956V20.3348H0V14.4063Z" fill="white"/>
<path d="M21.2933 14.4063H35.4889V20.3348H21.2933V14.4063Z" fill="white"/>
<path d="M0 28.6348H35.4889V34.5633H0V28.6348Z" fill="white"/>
<path d="M0 0.177858H35.4889V6.10638H0V0.177858Z" fill="white"/>
</svg>
