<svg width="304" height="71" viewBox="0 0 304 71" fill="none" xmlns="http://www.w3.org/2000/svg">
<path d="M80.2583 34.5633H72.045L59.5056 21.6178L46.9662 34.5633H38.6902L55.3676 17.3445L38.6902 0H46.9662L80.2583 34.5633ZM80.2583 0L65.3991 15.4592L61.3238 11.1859L72.045 0H80.2583Z" fill="black"/>
<path d="M104.316 34.5633H98.0462V6.22139H81.4314V0H120.868V6.22139H104.316V34.5633Z" fill="black"/>
<path d="M166.66 34.5633H158.133L148.352 25.1998H135.625V18.9784H152.992C154.747 18.9784 156.231 18.35 157.443 17.0931C158.697 15.7944 159.324 14.2862 159.324 12.5685C159.324 10.8089 158.697 9.32161 157.443 8.10666C156.231 6.84981 154.747 6.22139 152.992 6.22139H132.364V34.5633H126.095V0H152.992C155.332 0 157.443 0.565581 159.324 1.69674C161.205 2.82791 162.71 4.35707 163.838 6.28423C164.967 8.1695 165.531 10.2642 165.531 12.5685C165.531 14.4537 165.134 16.2343 164.34 17.9101C163.588 19.544 162.522 20.9684 161.142 22.1834C159.805 23.3564 158.258 24.1943 156.503 24.697L166.66 34.5633Z" fill="black"/>
<path d="M213.623 17.2188C213.623 20.4028 212.954 23.3145 211.616 25.9539C210.321 28.5514 208.482 30.6461 206.099 32.2381C203.717 33.7882 200.937 34.5633 197.76 34.5633H186.851C183.674 34.5633 180.874 33.7882 178.45 32.2381C176.067 30.6461 174.207 28.5514 172.87 25.9539C171.574 23.3145 170.926 20.4028 170.926 17.2188C170.926 14.0348 171.574 11.144 172.87 8.54656C174.207 5.94908 176.067 3.87528 178.45 2.32517C180.874 0.775056 183.674 0 186.851 0H197.76C200.937 0 203.717 0.775056 206.099 2.32517C208.482 3.87528 210.321 5.94908 211.616 8.54656C212.954 11.144 213.623 14.0348 213.623 17.2188ZM207.353 17.2188C207.353 15.2078 206.977 13.3645 206.224 11.6887C205.472 10.0129 204.364 8.69319 202.902 7.72961C201.48 6.72413 199.767 6.22139 197.76 6.22139H186.851C184.845 6.22139 183.11 6.72413 181.647 7.72961C180.226 8.69319 179.118 10.0129 178.324 11.6887C177.572 13.3645 177.196 15.2078 177.196 17.2188C177.196 19.2298 177.572 21.0731 178.324 22.7489C179.118 24.4247 180.226 25.7654 181.647 26.7708C183.11 27.7763 184.845 28.2791 186.851 28.2791H197.76C199.767 28.2791 201.48 27.7763 202.902 26.7708C204.364 25.7654 205.472 24.4247 206.224 22.7489C206.977 21.0731 207.353 19.2298 207.353 17.2188Z" fill="black"/>
<path d="M260.005 12.5685C260.005 14.8308 259.441 16.9255 258.312 18.8527C257.184 20.7799 255.658 22.33 253.736 23.503C251.855 24.6342 249.765 25.1998 247.466 25.1998H230.036V18.9784H247.466C249.221 18.9784 250.705 18.35 251.917 17.0931C253.171 15.7944 253.798 14.2862 253.798 12.5685C253.798 10.8089 253.171 9.32161 251.917 8.10666C250.705 6.84981 249.221 6.22139 247.466 6.22139H226.776V34.5633H220.569V0H247.466C249.765 0 251.855 0.565581 253.736 1.69674C255.658 2.82791 257.184 4.35707 258.312 6.28423C259.441 8.1695 260.005 10.2642 260.005 12.5685Z" fill="black"/>
<path d="M304 24.3828C304 26.2681 303.436 27.9858 302.307 29.5359C301.179 31.0441 299.653 32.2591 297.73 33.1808C295.849 34.1025 293.759 34.5633 291.461 34.5633H264.501V28.2791H291.461C293.174 28.2791 294.637 27.902 295.849 27.1479C297.103 26.3938 297.73 25.4721 297.73 24.3828V22.8118H276.978C274.679 22.8118 272.589 22.2462 270.708 21.115C268.827 19.9839 267.322 18.4757 266.194 16.5904C265.065 14.6632 264.501 12.5475 264.501 10.2433V0H270.708V10.2433C270.708 12.0029 271.314 13.4902 272.526 14.7051C273.78 15.9201 275.264 16.5275 276.978 16.5275H297.73V0H304V24.3828Z" fill="black"/>
<path d="M185.725 14.4063H198.738V20.3348H185.725V14.4063Z" fill="#16A34A"/>
<path d="M0 14.4063H14.1956V20.3348H0V14.4063Z" fill="#DC2626"/>
<path d="M21.2933 14.4063H35.4889V20.3348H21.2933V14.4063Z" fill="#DC2626"/>
<path d="M0 28.6348H35.4889V34.5633H0V28.6348Z" fill="#DC2626"/>
<path d="M0 0.177858H35.4889V6.10638H0V0.177858Z" fill="#DC2626"/>
<path d="M6.32175 67.5852V53.7361H10.8454C11.7413 53.7361 12.5173 53.9069 13.1735 54.2484C13.8422 54.5898 14.3533 55.0768 14.7066 55.7092C15.0725 56.3289 15.2555 57.0624 15.2555 57.9098C15.2555 58.7572 15.0725 59.4971 14.7066 60.1295C14.3407 60.7492 13.8296 61.2298 13.1735 61.5713C12.5173 61.9128 11.7413 62.0835 10.8454 62.0835H8.36591V67.5852H6.32175ZM8.36591 60.2623H10.8454C11.552 60.2623 12.1135 60.0472 12.5299 59.6172C12.959 59.1872 13.1735 58.6181 13.1735 57.9098C13.1735 57.2016 12.959 56.6324 12.5299 56.2024C12.1135 55.7724 11.552 55.5574 10.8454 55.5574H8.36591V60.2623Z" fill="#A8A29E"/>
<path d="M18.0493 67.5852V57.151H20.0746V59.1999C20.1755 58.5043 20.4721 57.9604 20.9642 57.5683C21.4563 57.1636 22.1061 56.9613 22.9137 56.9613C23.9862 56.9613 24.8191 57.2964 25.4121 57.9667C26.0052 58.6371 26.3017 59.5793 26.3017 60.7934V61.723H24.2575V60.8504C24.2575 59.4465 23.5698 58.7446 22.1944 58.7446C21.5131 58.7446 20.9894 58.9469 20.6235 59.3516C20.2702 59.7437 20.0935 60.3192 20.0935 61.078V67.5852H18.0493Z" fill="#A8A29E"/>
<path d="M33.1082 67.7559C31.8211 67.7559 30.7927 67.3828 30.023 66.6366C29.2659 65.8904 28.8874 64.8723 28.8874 63.5822V61.1539C28.8874 59.8512 29.2659 58.8331 30.023 58.0995C30.7801 57.3533 31.8085 56.9802 33.1082 56.9802C34.4078 56.9802 35.4362 57.3533 36.1933 58.0995C36.9504 58.8331 37.329 59.8512 37.329 61.1539V63.5822C37.329 64.8723 36.9441 65.8904 36.1744 66.6366C35.4173 67.3828 34.3952 67.7559 33.1082 67.7559ZM33.1082 65.9536C33.7896 65.9536 34.3195 65.7639 34.6981 65.3845C35.0892 64.9924 35.2848 64.4359 35.2848 63.715V61.0211C35.2848 60.3002 35.0892 59.75 34.6981 59.3706C34.3195 58.9785 33.7896 58.7825 33.1082 58.7825C32.4268 58.7825 31.8905 58.9785 31.4993 59.3706C31.1208 59.75 30.9315 60.3002 30.9315 61.0211V63.715C30.9315 64.4359 31.1208 64.9924 31.4993 65.3845C31.8905 65.7639 32.4268 65.9536 33.1082 65.9536Z" fill="#A8A29E"/>
<path d="M41.7317 71V69.2357H44.6654C45.2332 69.2357 45.6812 69.0776 46.0093 68.7614C46.3373 68.4452 46.5014 68.0152 46.5014 67.4713V66.6935L46.5392 64.9482C46.3752 65.5679 46.0471 66.0485 45.555 66.39C45.0755 66.7315 44.4761 66.9022 43.7569 66.9022C42.6843 66.9022 41.8389 66.5544 41.2206 65.8588C40.6023 65.1632 40.2932 64.2083 40.2932 62.9941V60.8883C40.2932 59.6868 40.6023 58.7319 41.2206 58.0236C41.8389 57.3154 42.6843 56.9613 43.7569 56.9613C44.4761 56.9613 45.0755 57.132 45.555 57.4735C46.0345 57.815 46.3563 58.2956 46.5203 58.9153V57.151H48.5266V67.5093C48.5266 68.5843 48.1796 69.4317 47.4856 70.0514C46.8042 70.6838 45.8705 71 44.6843 71H41.7317ZM44.4194 65.1758C45.0629 65.1758 45.5676 64.9798 45.9336 64.5877C46.3121 64.183 46.5014 63.6202 46.5014 62.8993V61.0021C46.5014 60.2939 46.3121 59.7437 45.9336 59.3516C45.5676 58.9469 45.0629 58.7446 44.4194 58.7446C43.7506 58.7446 43.2332 58.9343 42.8673 59.3137C42.514 59.6931 42.3373 60.2117 42.3373 60.8693V63.0321C42.3373 63.7024 42.514 64.2272 42.8673 64.6067C43.2332 64.9861 43.7506 65.1758 44.4194 65.1758Z" fill="#A8A29E"/>
<path d="M52.0965 67.5852V57.151H54.1217V59.1999C54.2227 58.5043 54.5192 57.9604 55.0113 57.5683C55.5034 57.1636 56.1533 56.9613 56.9608 56.9613C58.0334 56.9613 58.8662 57.2964 59.4593 57.9667C60.0523 58.6371 60.3488 59.5793 60.3488 60.7934V61.723H58.3047V60.8504C58.3047 59.4465 57.617 58.7446 56.2416 58.7446C55.5602 58.7446 55.0365 58.9469 54.6706 59.3516C54.3173 59.7437 54.1407 60.3192 54.1407 61.078V67.5852H52.0965Z" fill="#A8A29E"/>
<path d="M66.1143 67.7749C65.0544 67.7749 64.2089 67.4777 63.578 66.8832C62.9597 66.2762 62.6506 65.4857 62.6506 64.5118C62.6506 63.5253 62.985 62.7348 63.6537 62.1404C64.3225 61.5333 65.2121 61.2298 66.3225 61.2298H69.1995V60.4709C69.1995 59.2694 68.5244 58.6687 67.1742 58.6687C66.5686 58.6687 66.0828 58.7825 65.7168 59.0102C65.3509 59.2378 65.1553 59.554 65.1301 59.9587H63.1238C63.1869 59.086 63.578 58.3715 64.2973 57.815C65.0165 57.2458 65.9818 56.9613 67.1932 56.9613C68.4802 56.9613 69.4771 57.2711 70.1837 57.8908C70.8903 58.4979 71.2436 59.3516 71.2436 60.452V67.5852H69.2373V65.6311H69.2184C69.1301 66.3014 68.8146 66.8263 68.272 67.2057C67.7294 67.5852 67.0102 67.7749 66.1143 67.7749ZM66.7011 66.0864C67.4708 66.0864 68.0764 65.903 68.5181 65.5363C68.9723 65.1568 69.1995 64.6509 69.1995 64.0186V62.6716H66.4739C65.9313 62.6716 65.496 62.8297 65.1679 63.1459C64.8525 63.4621 64.6947 63.8668 64.6947 64.36C64.6947 64.8912 64.8714 65.3149 65.2247 65.6311C65.578 65.9347 66.0701 66.0864 66.7011 66.0864Z" fill="#A8A29E"/>
<path d="M73.8293 67.5852V57.151H75.5706V58.6118H75.6085C75.6589 58.1185 75.8419 57.7201 76.1574 57.4166C76.4728 57.113 76.8703 56.9613 77.3498 56.9613C77.804 56.9613 78.1889 57.1067 78.5044 57.3976C78.8324 57.6758 79.0596 58.0553 79.1857 58.5359C79.2615 58.0553 79.457 57.6758 79.7725 57.3976C80.088 57.1067 80.4917 56.9613 80.9839 56.9613C81.6274 56.9613 82.151 57.2142 82.5548 57.7201C82.9712 58.2134 83.1794 58.8521 83.1794 59.6362V67.5852H81.3245V59.7311C81.3245 59.3516 81.2362 59.0544 81.0596 58.8394C80.8829 58.6118 80.6368 58.4979 80.3214 58.4979C80.0059 58.4979 79.7599 58.6054 79.5832 58.8204C79.4192 59.0354 79.3372 59.3327 79.3372 59.7121V67.5852H77.6716V59.7311C77.6716 59.3516 77.5832 59.0544 77.4066 58.8394C77.2425 58.6118 77.0028 58.4979 76.6873 58.4979C76.3719 58.4979 76.1258 58.6054 75.9492 58.8204C75.7725 59.0354 75.6842 59.3327 75.6842 59.7121V67.5852H73.8293Z" fill="#A8A29E"/>
<path d="M85.1783 67.5852V57.151H86.9197V58.6118H86.9575C87.008 58.1185 87.191 57.7201 87.5064 57.4166C87.8219 57.113 88.2193 56.9613 88.6988 56.9613C89.1531 56.9613 89.538 57.1067 89.8534 57.3976C90.1815 57.6758 90.4086 58.0553 90.5348 58.5359C90.6105 58.0553 90.8061 57.6758 91.1215 57.3976C91.437 57.1067 91.8408 56.9613 92.3329 56.9613C92.9764 56.9613 93.5001 57.2142 93.9039 57.7201C94.3203 58.2134 94.5285 58.8521 94.5285 59.6362V67.5852H92.6736V59.7311C92.6736 59.3516 92.5853 59.0544 92.4086 58.8394C92.232 58.6118 91.9859 58.4979 91.6704 58.4979C91.355 58.4979 91.1089 58.6054 90.9323 58.8204C90.7682 59.0354 90.6862 59.3327 90.6862 59.7121V67.5852H89.0206V59.7311C89.0206 59.3516 88.9323 59.0544 88.7556 58.8394C88.5916 58.6118 88.3518 58.4979 88.0364 58.4979C87.7209 58.4979 87.4749 58.6054 87.2982 58.8204C87.1216 59.0354 87.0332 59.3327 87.0332 59.7121V67.5852H85.1783Z" fill="#A8A29E"/>
<path d="M97.0574 67.5852V65.726H100.672V59.0102H97.4359V57.151H102.717V65.726H106.067V67.5852H97.0574ZM101.524 55.3487C101.083 55.3487 100.729 55.2349 100.464 55.0072C100.199 54.7669 100.067 54.4507 100.067 54.0586C100.067 53.6539 100.199 53.3377 100.464 53.1101C100.729 52.8698 101.083 52.7496 101.524 52.7496C101.966 52.7496 102.319 52.8698 102.584 53.1101C102.849 53.3377 102.982 53.6539 102.982 54.0586C102.982 54.4507 102.849 54.7669 102.584 55.0072C102.319 55.2349 101.966 55.3487 101.524 55.3487Z" fill="#A8A29E"/>
<path d="M108.463 67.5852V57.151H110.488V59.143C110.589 58.46 110.88 57.9288 111.359 57.5494C111.851 57.1573 112.488 56.9613 113.271 56.9613C114.305 56.9613 115.132 57.2964 115.75 57.9667C116.369 58.6244 116.678 59.5161 116.678 60.6417V67.5852H114.634V60.9452C114.634 60.2243 114.451 59.6741 114.085 59.2947C113.719 58.9026 113.22 58.7066 112.589 58.7066C111.946 58.7066 111.435 58.909 111.056 59.3137C110.69 59.7184 110.507 60.2812 110.507 61.0021V67.5852H108.463Z" fill="#A8A29E"/>
<path d="M121.175 71V69.2357H124.109C124.677 69.2357 125.125 69.0776 125.453 68.7614C125.781 68.4452 125.945 68.0152 125.945 67.4713V66.6935L125.983 64.9482C125.819 65.5679 125.49 66.0485 124.998 66.39C124.519 66.7315 123.919 66.9022 123.2 66.9022C122.128 66.9022 121.282 66.5544 120.664 65.8588C120.046 65.1632 119.737 64.2083 119.737 62.9941V60.8883C119.737 59.6868 120.046 58.7319 120.664 58.0236C121.282 57.3154 122.128 56.9613 123.2 56.9613C123.919 56.9613 124.519 57.132 124.998 57.4735C125.478 57.815 125.8 58.2956 125.964 58.9153V57.151H127.97V67.5093C127.97 68.5843 127.623 69.4317 126.929 70.0514C126.248 70.6838 125.314 71 124.128 71H121.175ZM123.863 65.1758C124.506 65.1758 125.011 64.9798 125.377 64.5877C125.755 64.183 125.945 63.6202 125.945 62.8993V61.0021C125.945 60.2939 125.755 59.7437 125.377 59.3516C125.011 58.9469 124.506 58.7446 123.863 58.7446C123.194 58.7446 122.677 58.9343 122.311 59.3137C121.957 59.6931 121.781 60.2117 121.781 60.8693V63.0321C121.781 63.7024 121.957 64.2272 122.311 64.6067C122.677 64.9861 123.194 65.1758 123.863 65.1758Z" fill="#A8A29E"/>
<path d="M133.357 70.6206L134.379 64.8154H136.764L135.382 70.6206H133.357Z" fill="#A8A29E"/>
<path d="M153.84 67.5852V53.7361H157.702C158.61 53.7361 159.399 53.9132 160.068 54.2673C160.736 54.6088 161.254 55.1021 161.62 55.7471C161.998 56.3795 162.187 57.1193 162.187 57.9667V63.3166C162.187 64.1893 161.998 64.9418 161.62 65.5742C161.254 66.2066 160.736 66.6998 160.068 67.054C159.399 67.4081 158.61 67.5852 157.702 67.5852H153.84ZM155.885 65.7449H157.702C158.446 65.7449 159.039 65.5299 159.481 65.0999C159.922 64.6699 160.143 64.0755 160.143 63.3166V57.9667C160.143 57.2332 159.922 56.6514 159.481 56.2214C159.039 55.7787 158.446 55.5574 157.702 55.5574H155.885V65.7449Z" fill="#A8A29E"/>
<path d="M169.297 67.7749C168.022 67.7749 167 67.4018 166.231 66.6556C165.461 65.9094 165.076 64.8912 165.076 63.6012V61.1349C165.076 59.8449 165.461 58.8268 166.231 58.0806C167 57.3344 168.022 56.9613 169.297 56.9613C170.155 56.9613 170.899 57.132 171.53 57.4735C172.161 57.8023 172.647 58.2703 172.988 58.8773C173.341 59.4844 173.518 60.1927 173.518 61.0021V62.8803H167.044V63.734C167.044 64.4676 167.246 65.0367 167.65 65.4414C168.054 65.8461 168.603 66.0485 169.297 66.0485C169.865 66.0485 170.338 65.9473 170.716 65.7449C171.095 65.5299 171.322 65.2391 171.398 64.8723H173.423C173.284 65.7576 172.836 66.4659 172.079 66.9971C171.335 67.5156 170.407 67.7749 169.297 67.7749ZM167.044 61.0021V61.4385H171.549V60.9832C171.549 60.2117 171.354 59.6172 170.962 59.1999C170.571 58.7825 170.016 58.5738 169.297 58.5738C168.578 58.5738 168.022 58.7888 167.631 59.2188C167.24 59.6362 167.044 60.2306 167.044 61.0021Z" fill="#A8A29E"/>
<path d="M180.229 67.7559C179.031 67.7559 178.091 67.484 177.409 66.9401C176.728 66.3963 176.387 65.6374 176.387 64.6636H178.412C178.412 65.1063 178.57 65.4541 178.886 65.707C179.201 65.9473 179.649 66.0675 180.229 66.0675H181.062C181.655 66.0675 182.116 65.9473 182.444 65.707C182.772 65.4541 182.936 65.0999 182.936 64.6446C182.936 63.8478 182.513 63.3925 181.668 63.2787L178.923 62.8993C178.154 62.7981 177.561 62.4945 177.144 61.9886C176.728 61.4701 176.52 60.7998 176.52 59.9777C176.52 59.0291 176.835 58.2956 177.466 57.777C178.11 57.2458 179.018 56.9802 180.192 56.9802H181.043C182.128 56.9802 183.005 57.2395 183.674 57.758C184.356 58.2766 184.715 58.9596 184.753 59.8069H182.709C182.684 59.4655 182.52 59.1872 182.217 58.9722C181.927 58.7446 181.535 58.6307 181.043 58.6307H180.192C179.649 58.6307 179.226 58.7509 178.923 58.9912C178.633 59.2315 178.488 59.5477 178.488 59.9397C178.488 60.5974 178.848 60.9768 179.567 61.078L182.141 61.4195C183.996 61.6725 184.923 62.7412 184.923 64.6256C184.923 65.6248 184.589 66.3963 183.92 66.9401C183.251 67.484 182.299 67.7559 181.062 67.7559H180.229Z" fill="#A8A29E"/>
<path d="M187.85 67.5852V65.726H191.465V59.0102H188.228V57.151H193.509V65.726H196.859V67.5852H187.85ZM192.317 55.3487C191.875 55.3487 191.522 55.2349 191.257 55.0072C190.992 54.7669 190.859 54.4507 190.859 54.0586C190.859 53.6539 190.992 53.3377 191.257 53.1101C191.522 52.8698 191.875 52.7496 192.317 52.7496C192.758 52.7496 193.112 52.8698 193.377 53.1101C193.642 53.3377 193.774 53.6539 193.774 54.0586C193.774 54.4507 193.642 54.7669 193.377 55.0072C193.112 55.2349 192.758 55.3487 192.317 55.3487Z" fill="#A8A29E"/>
<path d="M200.618 71V69.2357H203.552C204.12 69.2357 204.568 69.0776 204.896 68.7614C205.224 68.4452 205.388 68.0152 205.388 67.4713V66.6935L205.426 64.9482C205.262 65.5679 204.934 66.0485 204.442 66.39C203.962 66.7315 203.363 66.9022 202.644 66.9022C201.571 66.9022 200.726 66.5544 200.107 65.8588C199.489 65.1632 199.18 64.2083 199.18 62.9941V60.8883C199.18 59.6868 199.489 58.7319 200.107 58.0236C200.726 57.3154 201.571 56.9613 202.644 56.9613C203.363 56.9613 203.962 57.132 204.442 57.4735C204.921 57.815 205.243 58.2956 205.407 58.9153V57.151H207.413V67.5093C207.413 68.5843 207.066 69.4317 206.372 70.0514C205.691 70.6838 204.757 71 203.571 71H200.618ZM203.306 65.1758C203.95 65.1758 204.454 64.9798 204.82 64.5877C205.199 64.183 205.388 63.6202 205.388 62.8993V61.0021C205.388 60.2939 205.199 59.7437 204.82 59.3516C204.454 58.9469 203.95 58.7446 203.306 58.7446C202.637 58.7446 202.12 58.9343 201.754 59.3137C201.401 59.6931 201.224 60.2117 201.224 60.8693V63.0321C201.224 63.7024 201.401 64.2272 201.754 64.6067C202.12 64.9861 202.637 65.1758 203.306 65.1758Z" fill="#A8A29E"/>
<path d="M210.605 67.5852V57.151H212.63V59.143C212.731 58.46 213.021 57.9288 213.501 57.5494C213.993 57.1573 214.63 56.9613 215.412 56.9613C216.447 56.9613 217.273 57.2964 217.892 57.9667C218.51 58.6244 218.819 59.5161 218.819 60.6417V67.5852H216.775V60.9452C216.775 60.2243 216.592 59.6741 216.226 59.2947C215.86 58.9026 215.362 58.7066 214.731 58.7066C214.087 58.7066 213.576 58.909 213.198 59.3137C212.832 59.7184 212.649 60.2812 212.649 61.0021V67.5852H210.605Z" fill="#A8A29E"/>
<path d="M224.149 70.6206L225.171 64.8154H227.556L226.174 70.6206H224.149Z" fill="#A8A29E"/>
<path d="M247.207 67.7559C246.059 67.7559 245.144 67.4334 244.462 66.7884C243.794 66.1307 243.459 65.2391 243.459 64.1134V62.9562C243.459 61.957 243.724 61.1539 244.254 60.5468C244.784 59.9397 245.51 59.5983 246.431 59.5224L245.958 58.8963C245.339 58.0869 245.03 57.328 245.03 56.6198C245.03 55.7091 245.339 54.9693 245.958 54.4001C246.589 53.831 247.403 53.5464 248.399 53.5464C249.106 53.5464 249.731 53.7045 250.273 54.0207C250.816 54.3242 251.238 54.7543 251.541 55.3108C251.844 55.8546 251.996 56.487 251.996 57.2079H250.065C250.065 56.6261 249.907 56.1518 249.592 55.785C249.289 55.4183 248.891 55.2349 248.399 55.2349C247.97 55.2349 247.623 55.3677 247.358 55.6333C247.093 55.8989 246.961 56.2467 246.961 56.6767C246.961 57.1067 247.125 57.5304 247.453 57.9478L251.03 62.6526L252.601 60.6607H254.778L252.071 64.0375L254.759 67.5852H252.582L250.955 65.4224L250.368 66.1623C249.977 66.6809 249.503 67.0793 248.948 67.3575C248.393 67.6231 247.813 67.7559 247.207 67.7559ZM247.302 66.0106C247.668 66.0106 248.002 65.922 248.305 65.7449C248.608 65.5679 248.885 65.3213 249.138 65.0051L249.876 64.0565L247.604 61.078H247.188C246.645 61.078 246.216 61.2488 245.901 61.5902C245.585 61.9191 245.428 62.3744 245.428 62.9562V64.1134C245.428 64.6952 245.592 65.1568 245.92 65.4983C246.261 65.8398 246.721 66.0106 247.302 66.0106Z" fill="#A8A29E"/>
<path d="M267.369 67.5852V53.7361H269.413V59.5034H273.463V53.7361H275.508V67.5852H273.463V61.3436H269.413V67.5852H267.369Z" fill="#A8A29E"/>
<path d="M282.939 67.7749C281.639 67.7749 280.604 67.4144 279.835 66.6935C279.077 65.96 278.699 64.9735 278.699 63.734V57.5873C278.699 56.3352 279.077 55.3487 279.835 54.6278C280.604 53.9069 281.639 53.5464 282.939 53.5464C284.226 53.5464 285.248 53.9132 286.005 54.6468C286.775 55.3677 287.159 56.3479 287.159 57.5873H285.115C285.115 56.8664 284.92 56.3162 284.529 55.9368C284.15 55.5574 283.62 55.3677 282.939 55.3677C282.245 55.3677 281.702 55.5574 281.311 55.9368C280.932 56.3162 280.743 56.8664 280.743 57.5873V63.734C280.743 64.4549 280.932 65.0051 281.311 65.3845C281.702 65.7639 282.245 65.9536 282.939 65.9536C283.62 65.9536 284.15 65.7639 284.529 65.3845C284.92 65.0051 285.115 64.4549 285.115 63.734H287.159C287.159 64.9735 286.775 65.96 286.005 66.6935C285.248 67.4144 284.226 67.7749 282.939 67.7749Z" fill="#A8A29E"/>
<path d="M290.313 67.5852V65.726H293.095V55.5953H290.313V53.7361H297.979V55.5953H295.177V65.726H297.979V67.5852H290.313Z" fill="#A8A29E"/>
</svg>
