<svg width="264" height="195" viewBox="0 0 264 195" fill="none" xmlns="http://www.w3.org/2000/svg">
<path d="M0 11C0 4.92487 4.92487 0 11 0H75C103.167 0 126 22.8335 126 51V144C126 172.167 103.167 195 75 195H11C4.92487 195 0 190.075 0 184V179C0 172.925 4.92487 168 11 168H63.5C69.5751 168 74.5 163.075 74.5 157V136C74.5 129.925 69.5751 125 63.5 125H11C4.92487 125 0 120.075 0 114V11Z" fill="#78C51C"/>
<path d="M138 11C138 4.92487 142.925 0 149 0H213C241.167 0 264 22.8335 264 51V144C264 172.167 241.167 195 213 195H149C142.925 195 138 190.075 138 184V179C138 172.925 142.925 168 149 168H201.5C207.575 168 212.5 163.075 212.5 157V136C212.5 129.925 207.575 125 201.5 125H149C142.925 125 138 120.075 138 114V11Z" fill="#78C51C"/>
</svg>
