<svg width="434" height="272" viewBox="0 0 434 272" fill="none" xmlns="http://www.w3.org/2000/svg">
<rect x="17" y="75" width="417" height="63" rx="8" fill="#FB6E5E"/>
<path d="M37.875 122V92.8984H57.4844V97.9766H44.0078V104.812H56.4688V109.793H44.0078V116.922H57.5234V122H37.875ZM67.0156 92.8984V122H60.9805V92.8984H67.0156ZM70.5898 122V100.164H76.625V122H70.5898ZM73.5977 97.3711C72.6992 97.3711 71.931 97.0716 71.293 96.4727C70.6549 95.8737 70.3359 95.151 70.3359 94.3047C70.3359 93.4583 70.6549 92.7422 71.293 92.1562C71.931 91.5573 72.6992 91.2578 73.5977 91.2578C74.5091 91.2578 75.2839 91.5573 75.9219 92.1562C76.5599 92.7422 76.8789 93.4583 76.8789 94.3047C76.8789 95.151 76.5599 95.8737 75.9219 96.4727C75.2839 97.0716 74.5091 97.3711 73.5977 97.3711ZM80.1992 122V100.164H85.9219V104.051H86.1953C86.651 102.762 87.4128 101.746 88.4805 101.004C89.5482 100.262 90.8177 99.8906 92.2891 99.8906C93.7865 99.8906 95.056 100.268 96.0977 101.023C97.1523 101.766 97.8555 102.775 98.207 104.051H98.4414C98.8841 102.788 99.6914 101.779 100.863 101.023C102.035 100.268 103.415 99.8906 105.004 99.8906C107.035 99.8906 108.689 100.535 109.965 101.824C111.254 103.113 111.898 104.943 111.898 107.312V122H105.844V108.523C105.844 107.299 105.518 106.388 104.867 105.789C104.229 105.19 103.428 104.891 102.465 104.891C101.371 104.891 100.512 105.242 99.8867 105.945C99.2747 106.635 98.9688 107.547 98.9688 108.68V122H93.1094V108.367C93.1094 107.312 92.8034 106.473 92.1914 105.848C91.5794 105.21 90.7786 104.891 89.7891 104.891C89.112 104.891 88.5065 105.06 87.9727 105.398C87.4388 105.737 87.0156 106.206 86.7031 106.805C86.3906 107.391 86.2344 108.094 86.2344 108.914V122H80.1992ZM115.473 122V100.164H121.508V122H115.473ZM118.48 97.3711C117.582 97.3711 116.814 97.0716 116.176 96.4727C115.538 95.8737 115.219 95.151 115.219 94.3047C115.219 93.4583 115.538 92.7422 116.176 92.1562C116.814 91.5573 117.582 91.2578 118.48 91.2578C119.392 91.2578 120.167 91.5573 120.805 92.1562C121.443 92.7422 121.762 93.4583 121.762 94.3047C121.762 95.151 121.443 95.8737 120.805 96.4727C120.167 97.0716 119.392 97.3711 118.48 97.3711ZM131.117 109.383V122H125.082V100.164H131.02V104.051H131.234C131.729 102.762 132.517 101.746 133.598 101.004C134.678 100.262 136.033 99.8906 137.66 99.8906C139.171 99.8906 140.486 100.223 141.605 100.887C142.738 101.551 143.617 102.495 144.242 103.719C144.867 104.943 145.18 106.408 145.18 108.113V122H139.145V109.188C139.145 107.859 138.799 106.818 138.109 106.062C137.419 105.294 136.469 104.91 135.258 104.91C134.451 104.91 133.734 105.092 133.109 105.457C132.484 105.809 131.996 106.316 131.645 106.98C131.293 107.645 131.117 108.445 131.117 109.383ZM154.965 122.41C153.585 122.41 152.341 122.169 151.234 121.688C150.141 121.193 149.281 120.464 148.656 119.5C148.031 118.536 147.719 117.339 147.719 115.906C147.719 114.682 147.94 113.667 148.383 112.859C148.826 112.039 149.431 111.375 150.199 110.867C150.967 110.359 151.84 109.975 152.816 109.715C153.793 109.454 154.828 109.272 155.922 109.168C157.185 109.051 158.201 108.934 158.969 108.816C159.737 108.699 160.297 108.523 160.648 108.289C161.013 108.042 161.195 107.69 161.195 107.234V107.137C161.195 106.238 160.909 105.542 160.336 105.047C159.776 104.552 158.982 104.305 157.953 104.305C156.872 104.305 156.007 104.546 155.355 105.027C154.717 105.496 154.294 106.095 154.086 106.824L148.48 106.375C148.767 105.047 149.327 103.901 150.16 102.938C150.993 101.961 152.068 101.212 153.383 100.691C154.711 100.158 156.247 99.8906 157.992 99.8906C159.203 99.8906 160.362 100.034 161.469 100.32C162.576 100.607 163.559 101.049 164.418 101.648C165.29 102.234 165.98 102.996 166.488 103.934C166.996 104.871 167.25 105.984 167.25 107.273V122H161.488V118.953H161.332C160.98 119.643 160.512 120.249 159.926 120.77C159.34 121.277 158.637 121.681 157.816 121.98C156.996 122.267 156.046 122.41 154.965 122.41ZM156.703 118.23C157.589 118.23 158.37 118.055 159.047 117.703C159.737 117.339 160.271 116.857 160.648 116.258C161.039 115.646 161.234 114.962 161.234 114.207V111.883C161.052 112 160.792 112.111 160.453 112.215C160.128 112.319 159.763 112.41 159.359 112.488C158.956 112.566 158.552 112.638 158.148 112.703C157.745 112.755 157.38 112.807 157.055 112.859C156.339 112.964 155.714 113.133 155.18 113.367C154.646 113.589 154.229 113.895 153.93 114.285C153.643 114.663 153.5 115.138 153.5 115.711C153.5 116.531 153.799 117.156 154.398 117.586C154.997 118.016 155.766 118.23 156.703 118.23ZM182.367 100.164V104.734H169.223V100.164H182.367ZM172.211 94.9688H178.246V115.281C178.246 116.01 178.409 116.551 178.734 116.902C179.06 117.241 179.581 117.41 180.297 117.41C180.531 117.41 180.792 117.391 181.078 117.352C181.365 117.312 181.612 117.267 181.82 117.215L182.777 121.746C182.113 121.941 181.469 122.085 180.844 122.176C180.232 122.267 179.626 122.312 179.027 122.312C176.853 122.312 175.173 121.772 173.988 120.691C172.803 119.598 172.211 118.061 172.211 116.082V94.9688ZM194.711 122.43C192.471 122.43 190.538 121.974 188.91 121.062C187.283 120.151 186.033 118.855 185.16 117.176C184.301 115.483 183.871 113.484 183.871 111.18C183.871 108.94 184.301 106.974 185.16 105.281C186.033 103.589 187.257 102.267 188.832 101.316C190.421 100.366 192.283 99.8906 194.418 99.8906C195.863 99.8906 197.211 100.125 198.461 100.594C199.711 101.049 200.805 101.74 201.742 102.664C202.68 103.576 203.409 104.728 203.93 106.121C204.451 107.501 204.711 109.122 204.711 110.984V112.625H186.273V108.895H201.781L198.969 109.871C198.969 108.764 198.799 107.801 198.461 106.98C198.122 106.16 197.615 105.529 196.938 105.086C196.273 104.63 195.447 104.402 194.457 104.402C193.467 104.402 192.628 104.63 191.938 105.086C191.26 105.542 190.74 106.16 190.375 106.941C190.01 107.723 189.828 108.621 189.828 109.637V112.273C189.828 113.458 190.036 114.474 190.453 115.32C190.87 116.154 191.449 116.798 192.191 117.254C192.947 117.697 193.812 117.918 194.789 117.918C195.466 117.918 196.078 117.82 196.625 117.625C197.172 117.43 197.641 117.143 198.031 116.766C198.435 116.388 198.734 115.932 198.93 115.398L204.516 115.77C204.242 117.111 203.669 118.283 202.797 119.285C201.938 120.275 200.824 121.049 199.457 121.609C198.09 122.156 196.508 122.43 194.711 122.43Z" fill="white"/>
<path d="M228.428 90.6895C229.385 90.6895 230.246 90.8535 231.012 91.1816C231.805 91.4824 232.529 91.8242 233.186 92.207C233.869 92.5898 234.512 92.9453 235.113 93.2734C235.715 93.5742 236.33 93.7246 236.959 93.7246C237.451 93.6973 238.012 93.6289 238.641 93.5195C239.188 93.4102 239.816 93.2461 240.527 93.0273C241.266 92.7812 242.086 92.4258 242.988 91.9609C242.086 92.8359 241.348 93.5742 240.773 94.1758C240.227 94.75 239.803 95.2285 239.502 95.6113C239.146 96.0488 238.887 96.3906 238.723 96.6367C238.559 96.9375 238.312 97.3887 237.984 97.9902C237.684 98.5371 237.273 99.2754 236.754 100.205C236.234 101.107 235.578 102.297 234.785 103.773C234.785 101.887 234.594 100.424 234.211 99.3848C233.855 98.3457 233.459 97.5527 233.021 97.0059C232.502 96.377 231.914 95.9805 231.258 95.8164C230.656 95.7344 230.055 95.8438 229.453 96.1445C228.852 96.418 228.25 96.8281 227.648 97.375C227.074 97.9219 226.514 98.5781 225.967 99.3438C225.447 100.082 224.969 100.861 224.531 101.682C224.121 102.502 223.779 103.336 223.506 104.184C223.232 105.004 223.055 105.77 222.973 106.48C222.891 107.109 222.877 107.848 222.932 108.695C222.986 109.516 223.109 110.363 223.301 111.238C223.492 112.086 223.738 112.92 224.039 113.74C224.34 114.561 224.709 115.299 225.146 115.955C225.611 116.584 226.131 117.104 226.705 117.514C227.279 117.896 227.936 118.074 228.674 118.047C229.494 117.992 230.301 117.746 231.094 117.309C231.777 116.953 232.475 116.406 233.186 115.668C233.896 114.902 234.512 113.822 235.031 112.428L241.102 113.535C239.352 115.668 237.643 117.268 235.975 118.334C234.334 119.4 232.857 120.152 231.545 120.59C230.014 121.082 228.564 121.314 227.197 121.287C225.475 121.096 223.861 120.576 222.357 119.729C220.854 118.881 219.555 117.855 218.461 116.652C217.395 115.422 216.561 114.082 215.959 112.633C215.357 111.184 215.098 109.762 215.18 108.367C215.234 107.438 215.426 106.357 215.754 105.127C216.082 103.869 216.52 102.584 217.066 101.271C217.641 99.959 218.324 98.6738 219.117 97.416C219.91 96.1582 220.785 95.0371 221.742 94.0527C222.699 93.041 223.738 92.2344 224.859 91.6328C226.008 91.0039 227.197 90.6895 228.428 90.6895ZM250.844 102.625C251.555 102.625 252.293 102.762 253.058 103.035C253.824 103.281 254.562 103.609 255.273 104.02C255.984 104.402 256.627 104.826 257.201 105.291C257.803 105.729 258.295 106.152 258.678 106.562C259.361 107.301 259.826 108.299 260.072 109.557C260.346 110.787 260.4 112.059 260.236 113.371C260.072 114.656 259.689 115.873 259.088 117.021C258.486 118.17 257.652 119.018 256.586 119.564C255.82 119.947 255.068 120.248 254.33 120.467C253.592 120.686 252.881 120.85 252.197 120.959C251.514 121.068 250.871 121.123 250.269 121.123C249.668 121.123 249.148 121.109 248.711 121.082C247.89 121.027 247.029 120.74 246.127 120.221C245.252 119.701 244.418 119.059 243.625 118.293C242.859 117.527 242.203 116.693 241.656 115.791C241.109 114.861 240.781 113.986 240.672 113.166C240.508 112.045 240.48 110.869 240.59 109.639C240.699 108.408 241.096 107.273 241.779 106.234C242.49 105.195 243.556 104.334 244.978 103.65C246.428 102.967 248.383 102.625 250.844 102.625ZM249.49 118.539C249.791 118.594 250.201 118.525 250.721 118.334C251.24 118.115 251.746 117.773 252.238 117.309C252.758 116.844 253.209 116.256 253.592 115.545C254.002 114.807 254.248 113.918 254.33 112.879C254.412 111.867 254.412 110.938 254.33 110.09C254.275 109.242 254.152 108.504 253.961 107.875C253.769 107.219 253.551 106.686 253.305 106.275C253.058 105.865 252.799 105.578 252.525 105.414C252.06 105.168 251.5 104.977 250.844 104.84C250.187 104.676 249.627 104.703 249.162 104.922C248.943 105.031 248.67 105.264 248.342 105.619C248.014 105.975 247.685 106.426 247.357 106.973C247.029 107.492 246.728 108.094 246.455 108.777C246.209 109.461 246.031 110.172 245.922 110.91C245.812 111.648 245.785 112.441 245.84 113.289C245.922 114.137 246.099 114.943 246.373 115.709C246.646 116.447 247.029 117.09 247.521 117.637C248.041 118.156 248.697 118.457 249.49 118.539ZM261.16 101.559C261.789 101.504 262.322 101.449 262.759 101.395C263.224 101.34 263.607 101.285 263.908 101.23C264.263 101.176 264.564 101.121 264.81 101.066C265.056 101.039 265.33 100.984 265.631 100.902C265.904 100.848 266.205 100.779 266.533 100.697C266.888 100.588 267.271 100.465 267.681 100.328L267.435 105.537C268.037 104.58 268.734 103.855 269.527 103.363C270.32 102.844 271.072 102.461 271.783 102.215C272.631 101.914 273.478 101.736 274.326 101.682C275.201 101.709 276.007 101.846 276.746 102.092C277.375 102.311 278.004 102.652 278.632 103.117C279.289 103.582 279.795 104.266 280.15 105.168C281.08 104.211 281.996 103.473 282.898 102.953C283.828 102.406 284.648 101.996 285.359 101.723C286.207 101.422 287 101.244 287.738 101.189C288.722 101.162 289.625 101.326 290.445 101.682C291.293 102.037 292.031 102.488 292.66 103.035C293.289 103.555 293.795 104.115 294.177 104.717C294.56 105.291 294.779 105.797 294.834 106.234C294.916 106.836 294.875 107.615 294.711 108.572C294.547 109.502 294.355 110.459 294.136 111.443C293.918 112.4 293.713 113.289 293.521 114.109C293.357 114.902 293.289 115.463 293.316 115.791C293.398 116.064 293.59 116.393 293.89 116.775C294.164 117.104 294.56 117.514 295.08 118.006C295.627 118.471 296.406 119.018 297.418 119.646C296.543 119.619 295.763 119.592 295.08 119.564C294.424 119.537 293.863 119.496 293.398 119.441C292.851 119.387 292.373 119.346 291.963 119.318C291.634 119.318 291.238 119.291 290.773 119.236C290.39 119.209 289.884 119.168 289.256 119.113C288.654 119.059 287.957 119.004 287.164 118.949C287.465 118.867 287.711 118.717 287.902 118.498C288.093 118.252 288.257 118.02 288.394 117.801C288.531 117.527 288.64 117.227 288.722 116.898C288.777 116.625 288.832 116.188 288.886 115.586C288.941 114.984 288.982 114.301 289.009 113.535C289.064 112.77 289.091 111.963 289.091 111.115C289.119 110.268 289.119 109.461 289.091 108.695C289.064 107.93 289.009 107.232 288.927 106.604C288.845 105.975 288.736 105.496 288.599 105.168C288.49 104.922 288.299 104.73 288.025 104.594C287.752 104.43 287.437 104.334 287.082 104.307C286.726 104.252 286.371 104.266 286.015 104.348C285.66 104.402 285.345 104.512 285.072 104.676C284.826 104.867 284.498 105.127 284.088 105.455C283.732 105.756 283.267 106.166 282.693 106.686C282.119 107.205 281.394 107.861 280.519 108.654C280.437 110.377 280.369 111.771 280.314 112.838C280.287 113.877 280.259 114.67 280.232 115.217C280.205 115.873 280.191 116.324 280.191 116.57C280.164 116.789 280.177 116.994 280.232 117.186C280.287 117.596 280.451 117.979 280.724 118.334C280.396 118.252 280.041 118.197 279.658 118.17C279.302 118.143 278.974 118.115 278.674 118.088C278.318 118.061 277.963 118.047 277.607 118.047C277.306 118.047 276.978 118.061 276.623 118.088C276.322 118.115 275.953 118.156 275.515 118.211C275.078 118.238 274.599 118.279 274.08 118.334C274.299 118.197 274.476 118.033 274.613 117.842C274.75 117.65 274.859 117.473 274.941 117.309C275.05 117.117 275.132 116.939 275.187 116.775C275.215 116.611 275.269 116.215 275.351 115.586C275.433 114.93 275.488 114.164 275.515 113.289C275.543 112.414 275.543 111.498 275.515 110.541C275.488 109.557 275.392 108.668 275.228 107.875C275.064 107.055 274.804 106.385 274.449 105.865C274.121 105.346 273.683 105.113 273.136 105.168C272.48 105.223 271.81 105.387 271.127 105.66C270.552 105.879 269.937 106.207 269.281 106.645C268.625 107.082 268.009 107.67 267.435 108.408C267.326 110.459 267.257 112.086 267.23 113.289C267.23 114.492 267.244 115.408 267.271 116.037C267.299 116.775 267.326 117.281 267.353 117.555C267.381 117.746 267.449 117.938 267.558 118.129C267.64 118.293 267.736 118.484 267.845 118.703C267.982 118.922 268.132 119.127 268.297 119.318L261.775 118.99C261.994 118.881 262.185 118.744 262.349 118.58C262.513 118.389 262.65 118.197 262.759 118.006C262.869 117.787 262.978 117.568 263.088 117.35C263.17 117.158 263.238 116.707 263.293 115.996C263.375 115.285 263.443 114.451 263.498 113.494C263.552 112.51 263.593 111.484 263.621 110.418C263.675 109.324 263.703 108.312 263.703 107.383C263.73 106.426 263.744 105.619 263.744 104.963C263.744 104.279 263.73 103.869 263.703 103.732C263.621 103.459 263.47 103.172 263.252 102.871C263.06 102.652 262.8 102.42 262.472 102.174C262.144 101.9 261.707 101.695 261.16 101.559ZM295.552 101.887C296.427 101.75 297.138 101.641 297.685 101.559C298.259 101.449 298.724 101.367 299.08 101.312C299.49 101.23 299.804 101.162 300.023 101.107C300.242 101.053 300.556 100.971 300.966 100.861C301.322 100.752 301.787 100.629 302.361 100.492C302.935 100.328 303.66 100.109 304.535 99.8359C304.316 100.109 304.138 100.355 304.001 100.574C303.892 100.766 303.783 100.93 303.673 101.066C303.564 101.23 303.468 101.381 303.386 101.518C303.304 101.654 303.222 101.859 303.14 102.133C303.085 102.352 303.017 102.666 302.935 103.076C302.853 103.459 302.785 103.965 302.73 104.594C304.207 103.664 305.56 102.967 306.791 102.502C308.048 102.037 309.142 101.709 310.072 101.518C311.166 101.299 312.15 101.217 313.025 101.271C314.119 101.354 315.13 101.6 316.06 102.01C317.017 102.393 317.878 102.857 318.644 103.404C319.41 103.951 320.08 104.553 320.654 105.209C321.228 105.865 321.679 106.521 322.007 107.178C322.226 107.615 322.363 108.244 322.418 109.064C322.5 109.885 322.418 110.76 322.171 111.689C321.925 112.619 321.488 113.535 320.859 114.438C320.257 115.312 319.396 116.01 318.275 116.529C316.334 117.404 314.406 117.896 312.492 118.006C311.671 118.061 310.824 118.033 309.949 117.924C309.101 117.814 308.24 117.582 307.365 117.227C306.517 116.871 305.697 116.365 304.904 115.709C304.111 115.025 303.386 114.15 302.73 113.084C302.511 114.479 302.347 115.695 302.238 116.734C302.156 117.746 302.101 118.594 302.074 119.277C302.046 120.07 302.046 120.74 302.074 121.287C302.128 121.834 302.238 122.422 302.402 123.051C302.539 123.598 302.73 124.227 302.976 124.938C303.25 125.676 303.591 126.441 304.001 127.234C303.837 127.18 303.605 127.139 303.304 127.111C303.031 127.111 302.744 127.139 302.443 127.193C302.115 127.248 301.746 127.303 301.335 127.357C300.953 127.439 300.529 127.535 300.064 127.645C299.681 127.727 299.23 127.822 298.71 127.932C298.218 128.068 297.712 128.219 297.193 128.383C297.494 128.027 297.726 127.617 297.89 127.152C298.082 126.715 298.232 126.305 298.341 125.922C298.451 125.457 298.546 124.992 298.628 124.527C298.656 124.117 298.697 123.338 298.751 122.189C298.834 121.068 298.902 119.77 298.957 118.293C299.011 116.789 299.052 115.217 299.08 113.576C299.134 111.936 299.162 110.418 299.162 109.023C299.189 107.602 299.189 106.398 299.162 105.414C299.134 104.43 299.08 103.855 298.998 103.691C298.888 103.5 298.683 103.295 298.382 103.076C298.136 102.885 297.781 102.693 297.316 102.502C296.878 102.311 296.291 102.105 295.552 101.887ZM305.314 109.352C305.123 109.98 305.082 110.596 305.191 111.197C305.3 111.799 305.574 112.359 306.011 112.879C306.476 113.398 307.119 113.863 307.939 114.273C308.787 114.656 309.839 114.943 311.097 115.135C312.355 115.326 313.312 115.299 313.968 115.053C314.625 114.807 315.103 114.424 315.404 113.904C315.732 113.357 315.951 112.729 316.06 112.018C316.169 111.279 316.306 110.514 316.47 109.721C316.634 108.955 316.607 108.176 316.388 107.383C316.169 106.562 315.855 105.824 315.445 105.168C315.062 104.512 314.625 103.979 314.132 103.568C313.668 103.131 313.257 102.912 312.902 102.912C312.054 102.912 311.22 103.131 310.4 103.568C309.58 104.006 308.828 104.553 308.144 105.209C307.46 105.865 306.859 106.576 306.339 107.342C305.847 108.08 305.505 108.75 305.314 109.352ZM324.202 122.148C324.476 121.738 324.695 121.355 324.859 121C325.023 120.645 325.16 120.344 325.269 120.098C325.378 119.797 325.46 119.523 325.515 119.277C325.542 119.113 325.556 118.635 325.556 117.842C325.556 117.049 325.529 116.051 325.474 114.848C325.447 113.645 325.406 112.291 325.351 110.787C325.324 109.283 325.269 107.752 325.187 106.193C325.132 104.635 325.064 103.117 324.982 101.641C324.927 100.164 324.872 98.8379 324.818 97.6621C324.763 96.459 324.708 95.4746 324.654 94.709C324.599 93.9434 324.558 93.5059 324.531 93.3965C324.476 93.2324 324.38 93.0684 324.244 92.9043C323.97 92.5762 323.505 92.2617 322.849 91.9609C324.244 91.6055 325.31 91.3184 326.048 91.0996C326.486 90.9902 326.869 90.8809 327.197 90.7715C327.497 90.6621 327.798 90.5527 328.099 90.4434C328.345 90.334 328.619 90.2109 328.919 90.0742C329.22 89.9102 329.494 89.7324 329.74 89.541C329.603 90.334 329.494 91.0996 329.411 91.8379C329.329 92.5762 329.261 93.2598 329.206 93.8887C329.152 94.5996 329.124 95.2832 329.124 95.9395C328.988 97.2793 328.906 98.7422 328.878 100.328C328.878 101.887 328.892 103.473 328.919 105.086C328.947 106.699 329.001 108.271 329.083 109.803C329.165 111.334 329.247 112.729 329.329 113.986C329.439 115.217 329.535 116.27 329.617 117.145C329.726 117.992 329.808 118.539 329.863 118.785C329.972 119.195 330.081 119.592 330.191 119.975C330.3 120.303 330.423 120.645 330.56 121C330.697 121.383 330.861 121.684 331.052 121.902H327.074C326.718 121.902 326.376 121.916 326.048 121.943C325.747 121.971 325.433 121.998 325.105 122.025C324.777 122.053 324.476 122.094 324.202 122.148ZM342.353 114.396C343.118 114.396 343.829 114.314 344.486 114.15C345.032 114.014 345.552 113.795 346.044 113.494C346.564 113.166 346.905 112.688 347.07 112.059C347.616 112.168 348.081 112.264 348.464 112.346C348.847 112.4 349.175 112.455 349.448 112.51C349.749 112.592 350.009 112.646 350.228 112.674C350.446 112.729 350.706 112.783 351.007 112.838C351.28 112.893 351.609 112.961 351.991 113.043C352.402 113.098 352.88 113.18 353.427 113.289C353.017 113.234 352.593 113.275 352.155 113.412C351.745 113.549 351.349 113.699 350.966 113.863C350.529 114.055 350.118 114.287 349.736 114.561C349.489 114.725 349.202 114.971 348.874 115.299C348.573 115.627 348.136 115.941 347.562 116.242C346.988 116.543 346.222 116.803 345.265 117.021C344.335 117.213 343.132 117.281 341.655 117.227C339.878 117.172 338.388 116.857 337.185 116.283C335.982 115.682 335.011 114.957 334.273 114.109C333.534 113.234 333.001 112.291 332.673 111.279C332.345 110.268 332.167 109.324 332.14 108.449C332.113 107.574 332.372 106.658 332.919 105.701C333.466 104.744 334.232 103.869 335.216 103.076C336.228 102.283 337.445 101.641 338.866 101.148C340.288 100.629 341.847 100.369 343.542 100.369C344.527 100.369 345.429 100.492 346.249 100.738C347.097 100.957 347.863 101.258 348.546 101.641C349.257 102.023 349.872 102.461 350.392 102.953C350.911 103.418 351.349 103.896 351.704 104.389C352.06 104.908 352.361 105.455 352.607 106.029C352.825 106.521 353.003 107.082 353.14 107.711C353.277 108.34 353.318 108.982 353.263 109.639C351.185 109.693 349.503 109.734 348.218 109.762C346.96 109.789 345.976 109.803 345.265 109.803H343.419H342.025C341.532 109.803 340.89 109.816 340.097 109.844C339.304 109.871 338.333 109.912 337.185 109.967C337.321 111.061 337.663 111.908 338.21 112.51C338.784 113.084 339.386 113.521 340.015 113.822C340.726 114.15 341.505 114.342 342.353 114.396ZM338.661 107.014C339.536 107.068 340.261 107.109 340.835 107.137C341.437 107.164 341.929 107.191 342.312 107.219C342.722 107.246 343.05 107.26 343.296 107.26H344.321C345.005 107.26 346.277 107.219 348.136 107.137C348.054 105.934 347.794 105.018 347.357 104.389C346.946 103.76 346.509 103.295 346.044 102.994C345.497 102.666 344.896 102.475 344.239 102.42C342.462 102.447 341.136 102.816 340.261 103.527C339.413 104.238 338.88 105.4 338.661 107.014ZM352.505 98.2363C353.298 98.2363 353.954 98.25 354.474 98.2773C354.993 98.2773 355.403 98.2773 355.704 98.2773H356.524H357.468C357.851 98.2773 358.356 98.2773 358.985 98.2773C359.642 98.25 360.489 98.209 361.528 98.1543C361.036 98.2637 360.653 98.3867 360.38 98.5234C360.106 98.6328 359.901 98.7559 359.765 98.8926C359.601 99.0293 359.505 99.1797 359.478 99.3438C359.505 99.5625 359.601 99.9043 359.765 100.369C359.901 100.779 360.134 101.34 360.462 102.051C360.817 102.762 361.337 103.719 362.021 104.922C363.169 103.609 364.044 102.57 364.646 101.805C365.247 101.039 365.698 100.451 365.999 100.041C366.3 99.5762 366.478 99.2617 366.532 99.0977C366.505 98.9609 366.464 98.8242 366.409 98.6875C366.327 98.4688 366.122 98.127 365.794 97.6621C366.532 97.7168 367.175 97.7578 367.722 97.7852C368.269 97.7852 368.733 97.7988 369.116 97.8262C369.554 97.8535 369.909 97.8672 370.183 97.8672C370.483 97.8672 370.921 97.8535 371.495 97.8262C371.96 97.7988 372.589 97.7715 373.382 97.7441C374.202 97.6895 375.228 97.6074 376.458 97.498C375.446 97.9902 374.585 98.4688 373.874 98.9336C373.163 99.3711 372.575 99.7676 372.11 100.123C371.564 100.533 371.112 100.916 370.757 101.271C370.401 101.682 369.964 102.188 369.444 102.789C368.98 103.336 368.405 104.02 367.722 104.84C367.065 105.633 366.259 106.631 365.302 107.834C366.013 109.064 366.683 110.117 367.312 110.992C367.968 111.867 368.528 112.592 368.993 113.166C369.54 113.85 370.046 114.396 370.511 114.807C370.976 115.217 371.481 115.627 372.028 116.037C372.493 116.393 373.026 116.775 373.628 117.186C374.257 117.568 374.927 117.91 375.638 118.211C374.927 118.266 374.23 118.307 373.546 118.334C372.89 118.334 372.302 118.361 371.782 118.416C371.181 118.471 370.606 118.512 370.06 118.539C369.513 118.594 368.952 118.635 368.378 118.662C367.886 118.689 367.339 118.717 366.737 118.744C366.136 118.771 365.521 118.785 364.892 118.785C365.138 118.539 365.329 118.307 365.466 118.088C365.603 117.869 365.712 117.678 365.794 117.514C365.903 117.322 365.972 117.145 365.999 116.98C365.972 116.762 365.835 116.406 365.589 115.914C365.37 115.477 365.028 114.875 364.564 114.109C364.099 113.316 363.415 112.25 362.513 110.91C361.884 111.566 361.378 112.141 360.995 112.633C360.64 113.125 360.366 113.535 360.175 113.863C359.956 114.246 359.806 114.561 359.724 114.807C359.669 115.053 359.669 115.326 359.724 115.627C359.778 115.873 359.86 116.174 359.97 116.529C360.079 116.857 360.271 117.199 360.544 117.555C359.177 117.637 358.028 117.678 357.099 117.678H355.704C355.267 117.678 354.747 117.664 354.146 117.637C353.626 117.609 352.983 117.596 352.218 117.596C351.425 117.568 350.509 117.527 349.47 117.473C349.771 117.363 350.085 117.227 350.413 117.062C350.741 116.898 351.028 116.748 351.274 116.611C351.575 116.447 351.862 116.27 352.136 116.078C352.437 115.832 352.915 115.367 353.571 114.684C354.118 114.109 354.87 113.303 355.827 112.264C356.784 111.197 358.028 109.775 359.56 107.998C358.657 106.357 357.919 105.059 357.345 104.102C356.798 103.117 356.374 102.352 356.073 101.805C355.718 101.176 355.458 100.752 355.294 100.533C355.13 100.314 354.911 100.068 354.638 99.7949C354.2 99.3574 353.489 98.8379 352.505 98.2363ZM372.255 102.666L379.802 102.748C379.364 104.416 379.036 105.838 378.817 107.014C378.626 108.189 378.503 109.174 378.448 109.967C378.339 110.869 378.311 111.635 378.366 112.264C378.448 112.838 378.585 113.453 378.776 114.109C378.94 114.656 379.186 115.285 379.515 115.996C379.843 116.707 380.28 117.418 380.827 118.129C380.499 118.02 380.143 117.938 379.761 117.883C379.378 117.828 379.022 117.787 378.694 117.76C378.311 117.732 377.929 117.732 377.546 117.76C377.163 117.787 376.739 117.828 376.274 117.883C375.891 117.938 375.427 118.006 374.88 118.088C374.333 118.17 373.759 118.279 373.157 118.416C373.567 117.186 373.882 116.119 374.1 115.217C374.347 114.314 374.524 113.562 374.634 112.961C374.743 112.25 374.811 111.676 374.839 111.238C374.839 110.691 374.839 110.076 374.839 109.393C374.839 108.682 374.839 107.998 374.839 107.342C374.839 106.686 374.825 106.111 374.798 105.619C374.77 105.1 374.716 104.771 374.634 104.635L374.224 104.225C374.059 104.088 373.813 103.896 373.485 103.65C373.184 103.377 372.774 103.049 372.255 102.666ZM375.167 96.3496C375.741 96.0488 376.315 95.9668 376.89 96.1035C377.491 96.2402 377.956 96.5 378.284 96.8828C378.612 97.2656 378.722 97.7168 378.612 98.2363C378.53 98.7559 378.093 99.2617 377.3 99.7539C376.507 100.219 375.809 100.383 375.208 100.246C374.606 100.109 374.182 99.8223 373.936 99.3848C373.69 98.9473 373.649 98.4414 373.813 97.8672C373.977 97.2656 374.429 96.7598 375.167 96.3496ZM380.971 95.1602C381.792 95.2422 382.475 95.3105 383.022 95.3652C383.596 95.4199 384.061 95.4609 384.417 95.4883C384.827 95.5156 385.155 95.5293 385.401 95.5293C385.647 95.5566 385.975 95.5566 386.385 95.5293C386.741 95.502 387.206 95.4746 387.78 95.4473C388.354 95.3926 389.079 95.3105 389.954 95.2012C389.762 95.4746 389.612 95.7207 389.503 95.9395C389.393 96.1309 389.298 96.3086 389.216 96.4727L388.969 96.9648C388.915 97.1289 388.86 97.293 388.805 97.457C388.751 97.5938 388.696 97.7578 388.641 97.9492C388.614 98.1406 388.587 98.3457 388.559 98.5645H394.876L394.301 101.887L388.518 101.559C388.382 102.953 388.286 104.033 388.231 104.799C388.176 105.564 388.122 106.125 388.067 106.48L387.985 107.219C387.903 108.258 387.821 109.393 387.739 110.623C387.657 111.826 387.63 112.947 387.657 113.986C387.684 115.025 387.78 115.9 387.944 116.611C388.108 117.295 388.395 117.637 388.805 117.637C389.216 117.637 389.598 117.527 389.954 117.309C390.309 117.09 390.61 116.83 390.856 116.529C391.13 116.229 391.335 115.928 391.471 115.627C391.608 115.299 391.676 115.053 391.676 114.889C391.676 114.725 391.635 114.533 391.553 114.314C391.417 113.904 391.171 113.385 390.815 112.756C391.608 112.947 392.305 113.139 392.907 113.33C393.208 113.439 393.481 113.549 393.727 113.658C394.001 113.768 394.315 113.891 394.671 114.027C394.971 114.164 395.354 114.328 395.819 114.52C396.284 114.711 396.831 114.943 397.46 115.217C396.858 115.326 396.421 115.504 396.147 115.75C395.983 115.859 395.86 115.982 395.778 116.119C395.587 116.42 395.368 116.83 395.122 117.35C394.876 117.842 394.507 118.334 394.014 118.826C393.522 119.318 392.852 119.756 392.005 120.139C391.184 120.521 390.077 120.74 388.682 120.795C387.233 120.85 386.126 120.604 385.36 120.057C384.622 119.51 384.075 118.881 383.719 118.17C383.391 117.432 383.2 116.707 383.145 115.996C383.091 115.285 383.05 114.807 383.022 114.561C382.995 114.314 382.995 113.699 383.022 112.715C383.05 111.73 383.091 110.65 383.145 109.475C383.2 108.271 383.255 107.123 383.309 106.029C383.364 104.908 383.391 104.088 383.391 103.568C383.391 103.295 383.405 103.008 383.432 102.707C383.432 102.461 383.432 102.201 383.432 101.928C383.46 101.627 383.473 101.34 383.473 101.066L377.526 101.025L377.28 98.6875L383.268 98.8516C383.214 98.5508 383.145 98.2773 383.063 98.0312C383.009 97.7578 382.954 97.5391 382.899 97.375C382.817 97.1836 382.735 97.0195 382.653 96.8828C382.544 96.7461 382.421 96.5957 382.284 96.4316C382.147 96.2949 381.969 96.1172 381.751 95.8984C381.532 95.6797 381.272 95.4336 380.971 95.1602ZM392.846 100.041C393.393 100.123 393.885 100.191 394.323 100.246C394.733 100.273 395.102 100.301 395.43 100.328C395.786 100.355 396.128 100.369 396.456 100.369C396.756 100.369 397.139 100.355 397.604 100.328C397.987 100.301 398.479 100.273 399.081 100.246C399.71 100.191 400.448 100.123 401.295 100.041C401.241 100.15 401.131 100.492 400.967 101.066C400.803 101.613 400.639 102.297 400.475 103.117C400.311 103.91 400.161 104.799 400.024 105.783C399.915 106.74 399.86 107.697 399.86 108.654C399.887 109.584 400.01 110.473 400.229 111.32C400.448 112.141 400.803 112.811 401.295 113.33C402.335 114.396 403.251 115.039 404.044 115.258C404.864 115.477 405.575 115.449 406.176 115.176C406.778 114.902 407.27 114.492 407.653 113.945C408.036 113.398 408.309 112.893 408.473 112.428C408.883 111.17 409.129 109.844 409.211 108.449C409.266 107.246 409.17 105.906 408.924 104.43C408.678 102.953 408.09 101.449 407.161 99.918C407.872 99.9727 408.487 100.014 409.006 100.041C409.526 100.068 409.977 100.096 410.36 100.123C410.797 100.15 411.18 100.178 411.508 100.205C411.809 100.232 412.165 100.232 412.575 100.205C412.93 100.205 413.354 100.191 413.846 100.164C414.366 100.109 414.94 100.055 415.569 100C415.678 102.68 415.774 105.072 415.856 107.178C415.938 109.256 415.993 111.102 416.02 112.715C416.075 114.301 416.102 115.682 416.102 116.857C416.102 118.006 416.102 118.977 416.102 119.77C416.075 121.656 415.993 122.9 415.856 123.502C415.637 124.35 415.241 125.197 414.667 126.045C414.12 126.893 413.422 127.645 412.575 128.301C411.727 128.984 410.743 129.504 409.622 129.859C408.528 130.242 407.325 130.379 406.012 130.27C404.727 130.16 403.702 129.982 402.936 129.736C402.198 129.518 401.61 129.258 401.172 128.957C400.762 128.656 400.461 128.342 400.27 128.014C400.106 127.686 399.983 127.344 399.901 126.988C399.819 126.66 399.737 126.346 399.655 126.045C399.573 125.744 399.409 125.484 399.163 125.266C398.862 125.02 398.547 124.773 398.219 124.527C397.919 124.309 397.59 124.09 397.235 123.871C396.907 123.652 396.579 123.475 396.251 123.338L404.987 122.846C404.741 123.174 404.563 123.475 404.454 123.748C404.344 124.021 404.276 124.254 404.249 124.445C404.221 124.691 404.235 124.896 404.29 125.061C404.399 125.389 404.59 125.744 404.864 126.127C405.165 126.537 405.547 126.852 406.012 127.07C406.477 127.316 407.024 127.398 407.653 127.316C408.309 127.234 409.047 126.893 409.868 126.291C410.551 125.771 411.126 124.938 411.59 123.789C411.973 122.805 412.274 121.424 412.493 119.646C412.711 117.869 412.67 115.531 412.37 112.633C411.878 114.328 411.208 115.627 410.36 116.529C409.512 117.432 408.665 118.088 407.817 118.498C406.833 118.99 405.807 119.25 404.741 119.277C403.319 119.223 402.102 119.045 401.09 118.744C400.079 118.416 399.245 117.979 398.588 117.432C397.932 116.885 397.413 116.242 397.03 115.504C396.674 114.738 396.415 113.891 396.251 112.961C396.086 112.031 396.004 111.102 396.004 110.172C396.004 109.215 396.004 108.326 396.004 107.506C396.032 106.686 396.045 105.947 396.045 105.291C396.045 104.607 395.977 104.061 395.84 103.65C395.676 103.24 395.458 102.83 395.184 102.42C394.965 102.064 394.665 101.682 394.282 101.271C393.872 100.834 393.393 100.424 392.846 100.041Z" fill="white"/>
<path d="M11.4337 45.1109C-4.90974 60.6192 -4.8297 72.1571 18.8415 99.1878L41.0649 69.5566C60.4278 55.4287 63.2883 47.3332 52.1766 33.2584C49.5563 47.6698 45.7775 50.4959 39.8156 49.9325C38.233 49.7829 36.7758 48.8301 36.3585 47.2962C34.7785 41.4878 38.048 31.5177 43.2872 19.1836C32.2057 22.5248 27.0274 26.2606 22.5432 35.7814C21.4951 38.0068 20.9393 40.4318 20.6948 42.8794C19.5447 54.3938 18.6402 62.0977 14.4677 62.7075C12.4809 62.9979 10.9289 61.145 10.2917 59.2409C8.47129 53.8007 9.35739 50.4154 11.4337 45.1109Z" fill="#FB6E5E"/>
<path d="M53.6581 21.406C62.0861 25.7261 69 10 63.0122 1.09535C61.5 8 57.362 8.81267 54.3989 10.8805C51.4357 12.9484 49.3224 19.1836 53.6581 21.406Z" fill="#FB6E5E"/>
<rect x="17" y="148" width="417" height="63" rx="8" fill="#EAFFB8"/>
<path d="M37.875 194.5V165.398H57.4844V170.477H44.0078V177.312H56.4688V182.293H44.0078V189.422H57.5234V194.5H37.875ZM60.9805 194.5V172.664H66.7031V176.551H66.9766C67.4323 175.262 68.194 174.246 69.2617 173.504C70.3294 172.762 71.599 172.391 73.0703 172.391C74.5677 172.391 75.8372 172.768 76.8789 173.523C77.9336 174.266 78.6367 175.275 78.9883 176.551H79.2227C79.6654 175.288 80.4727 174.279 81.6445 173.523C82.8164 172.768 84.1966 172.391 85.7852 172.391C87.8164 172.391 89.4701 173.035 90.7461 174.324C92.0352 175.613 92.6797 177.443 92.6797 179.812V194.5H86.625V181.023C86.625 179.799 86.2995 178.888 85.6484 178.289C85.0104 177.69 84.2096 177.391 83.2461 177.391C82.1523 177.391 81.293 177.742 80.668 178.445C80.056 179.135 79.75 180.047 79.75 181.18V194.5H73.8906V180.867C73.8906 179.812 73.5846 178.973 72.9727 178.348C72.3607 177.71 71.5599 177.391 70.5703 177.391C69.8932 177.391 69.2878 177.56 68.7539 177.898C68.2201 178.237 67.7969 178.706 67.4844 179.305C67.1719 179.891 67.0156 180.594 67.0156 181.414V194.5H60.9805ZM96.2539 202.664V172.664H102.191V176.355H102.465C102.738 175.757 103.129 175.151 103.637 174.539C104.145 173.927 104.809 173.419 105.629 173.016C106.449 172.599 107.465 172.391 108.676 172.391C110.277 172.391 111.742 172.807 113.07 173.641C114.411 174.461 115.486 175.704 116.293 177.371C117.1 179.038 117.504 181.121 117.504 183.621C117.504 186.043 117.113 188.094 116.332 189.773C115.551 191.44 114.49 192.703 113.148 193.562C111.82 194.422 110.323 194.852 108.656 194.852C107.484 194.852 106.488 194.656 105.668 194.266C104.848 193.875 104.177 193.387 103.656 192.801C103.148 192.202 102.751 191.603 102.465 191.004H102.289V202.664H96.2539ZM106.742 190.047C107.732 190.047 108.565 189.773 109.242 189.227C109.919 188.68 110.434 187.924 110.785 186.961C111.137 185.984 111.312 184.865 111.312 183.602C111.312 182.339 111.137 181.232 110.785 180.281C110.447 179.318 109.939 178.562 109.262 178.016C108.585 177.469 107.745 177.195 106.742 177.195C105.766 177.195 104.932 177.462 104.242 177.996C103.565 178.517 103.044 179.259 102.68 180.223C102.328 181.173 102.152 182.299 102.152 183.602C102.152 184.891 102.335 186.017 102.699 186.98C103.064 187.944 103.585 188.699 104.262 189.246C104.952 189.78 105.779 190.047 106.742 190.047ZM129.984 194.93C127.784 194.93 125.876 194.461 124.262 193.523C122.66 192.573 121.423 191.258 120.551 189.578C119.691 187.885 119.262 185.919 119.262 183.68C119.262 181.414 119.691 179.441 120.551 177.762C121.423 176.069 122.66 174.754 124.262 173.816C125.876 172.866 127.784 172.391 129.984 172.391C132.198 172.391 134.105 172.866 135.707 173.816C137.322 174.754 138.559 176.069 139.418 177.762C140.29 179.441 140.727 181.414 140.727 183.68C140.727 185.919 140.29 187.885 139.418 189.578C138.559 191.258 137.322 192.573 135.707 193.523C134.105 194.461 132.198 194.93 129.984 194.93ZM130.023 190.203C131.026 190.203 131.866 189.923 132.543 189.363C133.22 188.79 133.728 188.009 134.066 187.02C134.418 186.03 134.594 184.904 134.594 183.641C134.594 182.365 134.418 181.238 134.066 180.262C133.728 179.285 133.22 178.517 132.543 177.957C131.866 177.397 131.026 177.117 130.023 177.117C129.008 177.117 128.155 177.397 127.465 177.957C126.788 178.517 126.273 179.285 125.922 180.262C125.583 181.238 125.414 182.365 125.414 183.641C125.414 184.904 125.583 186.03 125.922 187.02C126.273 188.009 126.788 188.79 127.465 189.363C128.155 189.923 129.008 190.203 130.023 190.203ZM147.133 194.5L141.195 172.664H147.328L150.707 187.352H150.902L154.438 172.664H160.434L164.008 187.254H164.203L167.523 172.664H173.637L167.699 194.5H161.312L157.562 180.77H157.289L153.539 194.5H147.133ZM184.945 194.93C182.706 194.93 180.772 194.474 179.145 193.562C177.517 192.651 176.267 191.355 175.395 189.676C174.535 187.983 174.105 185.984 174.105 183.68C174.105 181.44 174.535 179.474 175.395 177.781C176.267 176.089 177.491 174.767 179.066 173.816C180.655 172.866 182.517 172.391 184.652 172.391C186.098 172.391 187.445 172.625 188.695 173.094C189.945 173.549 191.039 174.24 191.977 175.164C192.914 176.076 193.643 177.228 194.164 178.621C194.685 180.001 194.945 181.622 194.945 183.484V185.125H176.508V181.395H192.016L189.203 182.371C189.203 181.264 189.034 180.301 188.695 179.48C188.357 178.66 187.849 178.029 187.172 177.586C186.508 177.13 185.681 176.902 184.691 176.902C183.702 176.902 182.862 177.13 182.172 177.586C181.495 178.042 180.974 178.66 180.609 179.441C180.245 180.223 180.062 181.121 180.062 182.137V184.773C180.062 185.958 180.271 186.974 180.688 187.82C181.104 188.654 181.684 189.298 182.426 189.754C183.181 190.197 184.047 190.418 185.023 190.418C185.701 190.418 186.312 190.32 186.859 190.125C187.406 189.93 187.875 189.643 188.266 189.266C188.669 188.888 188.969 188.432 189.164 187.898L194.75 188.27C194.477 189.611 193.904 190.783 193.031 191.785C192.172 192.775 191.059 193.549 189.691 194.109C188.324 194.656 186.742 194.93 184.945 194.93ZM197.543 194.5V172.664H203.383V176.492H203.617C204.021 175.138 204.691 174.116 205.629 173.426C206.566 172.723 207.641 172.371 208.852 172.371C209.164 172.371 209.49 172.391 209.828 172.43C210.18 172.456 210.492 172.508 210.766 172.586V177.938C210.479 177.846 210.082 177.775 209.574 177.723C209.079 177.658 208.617 177.625 208.188 177.625C207.315 177.625 206.527 177.82 205.824 178.211C205.121 178.589 204.568 179.122 204.164 179.812C203.773 180.49 203.578 181.271 203.578 182.156V194.5H197.543Z" fill="#043F2E"/>
<path d="M234.38 194.76C227.26 194.76 222.34 190.64 222.34 183.04C222.34 174.16 228.66 166.96 238.06 166.96C240.94 166.96 243.22 167.6 245.82 169.04L244.9 175.16H241.78L241.7 170.12C240.74 169.56 239.66 169.28 238.46 169.28C232.62 169.28 228.66 175.88 228.66 183.36C228.66 188.6 231.14 192.44 235.78 192.44C236.66 192.44 237.5 192.28 238.38 192L240.38 186.6H243.46L242.42 192.76C240.46 193.88 237.86 194.76 234.38 194.76ZM248.203 193.84L251.443 178.36L248.643 178.08L248.883 176.56L256.643 174L257.403 174.64L256.363 180.6C258.203 176.84 260.643 174.04 262.963 174.04C264.363 174.04 265.643 174.72 266.123 176.04C266.083 177.92 265.163 179.4 263.403 179.4C262.243 179.4 261.403 178.8 260.403 177.72C258.203 180.04 256.843 182.44 255.723 185.04L255.643 185.44C255.083 188.28 254.523 191.12 253.963 194L248.763 194.32L248.203 193.84ZM278.191 176.24C275.991 176.24 272.791 180.36 272.551 185.08C277.991 183.2 279.671 180.4 279.671 178.2C279.671 176.88 278.991 176.24 278.191 176.24ZM273.911 194.6C269.751 194.6 266.911 191.76 266.911 187.08C266.911 180.16 271.991 174.04 278.751 174.04C282.351 174.04 284.311 175.8 284.311 178.36C284.311 181.72 280.551 184.76 272.631 186.72C272.911 189.28 274.351 190.48 276.551 190.48C278.871 190.48 280.711 189.12 281.951 187.56L283.071 188.36C281.431 191.44 278.231 194.6 273.911 194.6ZM292.628 186.96C292.628 189.48 293.468 190.52 294.828 190.52C295.868 190.52 297.028 189.76 298.308 188.52C298.348 188.28 298.388 188.08 298.428 187.84L300.668 177.56C300.028 177.2 299.308 177 298.588 177C297.708 177 296.788 177.44 295.788 178.36C293.908 180.08 292.628 184.12 292.628 186.96ZM301.348 194.6C299.388 194.6 298.028 193.44 298.028 190.96C298.028 190.8 298.028 190.64 298.028 190.52C295.868 192.92 293.308 194.6 291.068 194.6C288.868 194.6 286.828 193.16 286.828 189.04C286.828 181.88 294.468 174.04 300.348 174.04C301.548 174.04 302.628 174.52 303.548 175.32L306.468 173.96L307.148 174.44L303.948 188.44C303.748 189.16 303.628 189.72 303.628 190.16C303.628 190.68 303.908 190.96 304.348 190.96C305.108 190.96 305.988 190.04 307.228 188.44L308.468 189.28C307.028 191.8 304.348 194.6 301.348 194.6ZM312.601 187.88L315.001 176.96H312.001L312.321 175.04L315.841 174.6L318.481 169.16H322.161L321.001 174.68H325.161L324.721 177.16L320.521 177.04L318.161 188.4C318.001 189.16 317.921 189.72 317.921 190.12C317.921 190.68 318.241 190.96 318.641 190.96C319.321 190.96 320.201 190.16 321.521 188.48L322.721 189.28C321.161 192 318.561 194.6 315.121 194.6C313.281 194.6 312.041 193.68 312.041 191.88C312.041 190.72 312.321 189.2 312.601 187.88ZM327.509 191.96C327.509 190.88 327.829 189.2 328.069 188L330.109 178.36L327.269 178.08L327.509 176.56L336.029 174L336.669 174.56L333.669 188.44C333.469 189.16 333.389 189.72 333.389 190.16C333.389 190.68 333.669 190.96 334.069 190.96C334.749 190.96 335.629 190.16 336.949 188.48L338.149 189.28C336.549 192 334.029 194.6 330.589 194.6C328.709 194.6 327.509 193.68 327.509 191.96ZM334.749 170.28C333.229 170.28 331.829 169.2 331.829 167.44C331.829 165.44 333.469 164.04 335.269 164.04C336.949 164.04 338.189 165.2 338.189 166.84C338.189 168.8 336.549 170.28 334.749 170.28ZM345.852 194.04C345.292 188.84 344.772 184.2 344.132 179.6C343.972 178.44 343.612 178.28 343.172 178.28C342.692 178.28 342.092 178.68 341.292 179.68L340.372 178.6C342.532 175.6 344.452 174.04 346.492 174.04C348.532 174.04 349.452 175.32 349.772 177.92C350.172 181.68 350.492 185.68 350.772 189.68C352.772 187.08 354.372 184.64 355.932 181.8L355.532 180.48C355.172 179.44 354.732 178.28 354.732 177.28C354.732 175 356.132 173.92 358.052 173.92C358.812 173.92 359.492 174.2 359.892 174.48C360.332 175.12 360.452 175.68 360.452 176.92C360.452 178.04 360.172 179.28 358.732 181.88C356.772 185.4 353.212 189.92 349.132 194.04L346.252 194.36L345.852 194.04ZM363.99 191.96C363.99 190.88 364.31 189.2 364.55 188L366.59 178.36L363.75 178.08L363.99 176.56L372.51 174L373.15 174.56L370.15 188.44C369.95 189.16 369.87 189.72 369.87 190.16C369.87 190.68 370.15 190.96 370.55 190.96C371.23 190.96 372.11 190.16 373.43 188.48L374.63 189.28C373.03 192 370.51 194.6 367.07 194.6C365.19 194.6 363.99 193.68 363.99 191.96ZM371.23 170.28C369.71 170.28 368.31 169.2 368.31 167.44C368.31 165.44 369.95 164.04 371.75 164.04C373.43 164.04 374.67 165.2 374.67 166.84C374.67 168.8 373.03 170.28 371.23 170.28ZM378.884 187.88L381.284 176.96H378.284L378.604 175.04L382.124 174.6L384.764 169.16H388.444L387.284 174.68H391.444L391.004 177.16L386.804 177.04L384.444 188.4C384.284 189.16 384.204 189.72 384.204 190.12C384.204 190.68 384.524 190.96 384.924 190.96C385.604 190.96 386.484 190.16 387.804 188.48L389.004 189.28C387.444 192 384.844 194.6 381.404 194.6C379.564 194.6 378.324 193.68 378.324 191.88C378.324 190.72 378.604 189.2 378.884 187.88ZM388.792 199.88C389.112 198.44 390.192 197.64 391.632 197.64C393.072 197.64 393.992 198.4 395.152 200.04C396.552 199.04 397.832 197.96 398.992 196.68C399.032 196.64 399.072 196.6 399.072 196.6C398.272 191.2 397.432 186.28 396.512 180.68C396.232 178.52 395.992 178.28 395.432 178.28C394.992 178.28 394.392 178.68 393.592 179.68L392.672 178.6C394.872 175.52 396.832 174.04 398.792 174.04C400.832 174.04 401.592 175.28 401.952 178.56C402.472 183.08 402.912 187.4 403.312 191.6C404.952 187.44 406.072 183.84 407.112 179.8C408.272 175.32 409.032 174 411.072 174C412.272 174 413.432 174.8 413.432 176.16C413.432 177.56 412.832 178.72 411.912 180.44C411.032 182 410.032 183.84 408.672 185.92C407.152 188.2 405.632 190.84 403.352 193.84C402.112 195.56 400.752 197.28 398.672 199.52C396.632 201.64 394.552 203.08 392.272 203.08C390.352 203.08 388.832 201.96 388.792 199.88Z" fill="#043F2E"/>
<path d="M380.168 239.239C379.772 246.16 381.008 253.106 380.636 260.029C380.483 262.876 380.02 265.809 378.69 268.089C378.025 269.229 377.146 270.179 376.123 270.722C375.1 271.264 373.93 271.383 372.877 270.948C372.184 270.661 371.553 270.143 371.036 269.481C370.52 268.819 370.118 268.016 369.834 267.152C369.265 265.423 369.175 263.483 369.346 261.618C369.62 258.627 370.534 255.798 371.537 253.078C372.539 250.357 373.645 247.681 374.343 244.807C375.042 241.932 375.313 238.791 374.618 235.915C374.27 234.477 373.681 233.128 372.859 232.057C372.038 230.986 370.981 230.204 369.836 229.91C369.01 229.698 368.16 229.74 367.319 229.695C366.477 229.65 365.613 229.506 364.882 228.968C364.374 228.594 363.954 228.046 363.595 227.451C363.236 226.855 362.932 226.208 362.608 225.58C362.284 224.952 361.936 224.337 361.504 223.829C361.071 223.321 360.547 222.922 359.971 222.79C359.366 222.651 358.729 222.819 358.19 223.201C357.651 223.582 357.208 224.17 356.886 224.846C356.242 226.197 356.084 227.842 356.082 229.428C356.076 232.593 356.622 235.784 356.191 238.899C355.976 240.457 355.502 241.985 354.681 243.161C354.271 243.749 353.777 244.243 353.222 244.582C352.668 244.92 352.053 245.101 351.44 245.076C350.749 245.047 350.069 244.756 349.487 244.275C348.905 243.793 348.42 243.124 348.064 242.36C347.351 240.831 347.165 238.957 347.355 237.19C347.545 235.423 348.089 233.747 348.751 232.181C349.413 230.614 350.196 229.139 350.909 227.61C351.416 226.525 351.898 225.369 351.978 224.106C352.017 223.475 351.951 222.826 351.744 222.251C351.538 221.677 351.185 221.181 350.739 220.916C350.447 220.742 350.121 220.669 349.8 220.683C349.478 220.696 349.16 220.794 348.861 220.947C348.263 221.253 347.745 221.772 347.258 222.314C346.77 222.856 346.3 223.431 345.758 223.879C345.215 224.327 344.585 224.644 343.942 224.604C343.525 224.578 343.12 224.402 342.747 224.159C342.374 223.916 342.031 223.606 341.689 223.295C341.348 222.985 341.007 222.671 340.638 222.417C340.269 222.164 339.87 221.972 339.454 221.923C338.805 221.846 338.151 222.126 337.605 222.587C337.059 223.047 336.613 223.679 336.22 224.35C335.434 225.692 334.813 227.249 333.763 228.245C333.096 228.878 332.27 229.246 331.443 229.205C330.616 229.165 329.796 228.699 329.255 227.892C328.879 227.331 328.646 226.63 328.509 225.91C328.373 225.19 328.328 224.446 328.292 223.707C328.257 222.967 328.229 222.224 328.127 221.495C328.024 220.765 327.842 220.044 327.521 219.43C327.041 218.512 326.268 217.882 325.436 217.61C324.604 217.339 323.719 217.409 322.891 217.702C321.236 218.287 319.848 219.704 318.486 221.05C316.328 223.182 314.059 225.295 312.632 228.278C311.302 231.058 310.815 234.39 310.76 237.656C310.705 240.922 311.054 244.173 311.274 247.428C311.397 249.254 311.474 251.141 311.019 252.877C310.791 253.746 310.427 254.564 309.918 255.203C309.408 255.841 308.747 256.293 308.041 256.403C307.459 256.493 306.86 256.349 306.327 256.031C305.795 255.714 305.327 255.227 304.948 254.649C304.19 253.494 303.794 252.01 303.579 250.521C303.135 247.448 303.399 244.268 303.942 241.221C304.486 238.175 305.304 235.223 305.987 232.224C306.535 229.821 306.998 227.279 306.587 224.83C306.382 223.606 305.951 222.43 305.277 221.528C304.603 220.626 303.676 220.016 302.707 219.958C301.914 219.91 301.128 220.224 300.422 220.691C299.715 221.158 299.076 221.774 298.434 222.377C297.792 222.98 297.139 223.576 296.415 223.994C295.69 224.413 294.883 224.648 294.098 224.494C293.176 224.313 292.369 223.622 291.608 222.929C290.846 222.235 290.07 221.505 289.163 221.225C288.438 221 287.661 221.085 286.963 221.425C286.265 221.765 285.645 222.355 285.162 223.088C284.195 224.556 283.799 226.55 283.853 228.475C283.906 230.399 284.376 232.268 284.976 234.03C285.576 235.793 286.31 237.475 286.933 239.225C288.232 242.873 289.046 246.861 288.959 250.874C288.92 252.702 288.685 254.561 288.019 256.176C287.686 256.984 287.247 257.723 286.706 258.314C286.164 258.904 285.519 259.344 284.827 259.545C283.632 259.893 282.338 259.499 281.332 258.598C280.325 257.696 279.601 256.318 279.228 254.812C278.799 253.079 278.82 251.207 279.032 249.409C279.243 247.61 279.639 245.857 279.951 244.083C280.604 240.367 280.888 236.491 280.358 232.742C279.829 228.993 278.433 225.37 276.154 222.946C274.927 221.641 273.458 220.702 271.897 220.317C270.335 219.931 268.684 220.11 267.217 220.903C266.31 221.394 265.487 222.107 264.654 222.783C263.822 223.459 262.961 224.11 262.014 224.457C260.352 225.068 258.543 224.683 256.953 223.81C255.362 222.937 253.953 221.603 252.577 220.253C248.647 216.397 244.855 212.307 241.218 208L400.38 208.464C394.967 210.164 389.995 214.125 386.393 219.609C382.791 225.093 380.579 232.071 380.168 239.239Z" fill="#EAFFB8"/>
<path d="M317.11 242.313C317.11 242.817 317.187 243.317 317.336 243.782C317.486 244.248 317.705 244.671 317.981 245.028C318.258 245.384 318.586 245.667 318.947 245.86C319.308 246.053 319.695 246.152 320.086 246.152C320.476 246.152 320.863 246.053 321.224 245.86C321.586 245.667 321.914 245.384 322.19 245.028C322.466 244.671 322.685 244.248 322.835 243.782C322.985 243.317 323.062 242.817 323.062 242.313C323.062 241.295 322.748 240.318 322.19 239.598C321.632 238.878 320.875 238.474 320.086 238.474C319.695 238.474 319.308 238.573 318.947 238.766C318.586 238.959 318.258 239.242 317.981 239.598C317.705 239.955 317.486 240.378 317.336 240.844C317.187 241.31 317.11 241.809 317.11 242.313Z" fill="#EAFFB8"/>
</svg>
