<svg width="434" height="272" viewBox="0 0 434 272" fill="none" xmlns="http://www.w3.org/2000/svg">
<rect x="17" y="75" width="417" height="63" rx="8" fill="#F50808"/>
<path d="M37.875 122V92.8984H57.4844V97.9766H44.0078V104.812H56.4688V109.793H44.0078V116.922H57.5234V122H37.875ZM67.0156 92.8984V122H60.9805V92.8984H67.0156ZM70.5898 122V100.164H76.625V122H70.5898ZM73.5977 97.3711C72.6992 97.3711 71.931 97.0716 71.293 96.4727C70.6549 95.8737 70.3359 95.151 70.3359 94.3047C70.3359 93.4583 70.6549 92.7422 71.293 92.1562C71.931 91.5573 72.6992 91.2578 73.5977 91.2578C74.5091 91.2578 75.2839 91.5573 75.9219 92.1562C76.5599 92.7422 76.8789 93.4583 76.8789 94.3047C76.8789 95.151 76.5599 95.8737 75.9219 96.4727C75.2839 97.0716 74.5091 97.3711 73.5977 97.3711ZM80.1992 122V100.164H85.9219V104.051H86.1953C86.651 102.762 87.4128 101.746 88.4805 101.004C89.5482 100.262 90.8177 99.8906 92.2891 99.8906C93.7865 99.8906 95.056 100.268 96.0977 101.023C97.1523 101.766 97.8555 102.775 98.207 104.051H98.4414C98.8841 102.788 99.6914 101.779 100.863 101.023C102.035 100.268 103.415 99.8906 105.004 99.8906C107.035 99.8906 108.689 100.535 109.965 101.824C111.254 103.113 111.898 104.943 111.898 107.312V122H105.844V108.523C105.844 107.299 105.518 106.388 104.867 105.789C104.229 105.19 103.428 104.891 102.465 104.891C101.371 104.891 100.512 105.242 99.8867 105.945C99.2747 106.635 98.9688 107.547 98.9688 108.68V122H93.1094V108.367C93.1094 107.312 92.8034 106.473 92.1914 105.848C91.5794 105.21 90.7786 104.891 89.7891 104.891C89.112 104.891 88.5065 105.06 87.9727 105.398C87.4388 105.737 87.0156 106.206 86.7031 106.805C86.3906 107.391 86.2344 108.094 86.2344 108.914V122H80.1992ZM115.473 122V100.164H121.508V122H115.473ZM118.48 97.3711C117.582 97.3711 116.814 97.0716 116.176 96.4727C115.538 95.8737 115.219 95.151 115.219 94.3047C115.219 93.4583 115.538 92.7422 116.176 92.1562C116.814 91.5573 117.582 91.2578 118.48 91.2578C119.392 91.2578 120.167 91.5573 120.805 92.1562C121.443 92.7422 121.762 93.4583 121.762 94.3047C121.762 95.151 121.443 95.8737 120.805 96.4727C120.167 97.0716 119.392 97.3711 118.48 97.3711ZM131.117 109.383V122H125.082V100.164H131.02V104.051H131.234C131.729 102.762 132.517 101.746 133.598 101.004C134.678 100.262 136.033 99.8906 137.66 99.8906C139.171 99.8906 140.486 100.223 141.605 100.887C142.738 101.551 143.617 102.495 144.242 103.719C144.867 104.943 145.18 106.408 145.18 108.113V122H139.145V109.188C139.145 107.859 138.799 106.818 138.109 106.062C137.419 105.294 136.469 104.91 135.258 104.91C134.451 104.91 133.734 105.092 133.109 105.457C132.484 105.809 131.996 106.316 131.645 106.98C131.293 107.645 131.117 108.445 131.117 109.383ZM154.965 122.41C153.585 122.41 152.341 122.169 151.234 121.688C150.141 121.193 149.281 120.464 148.656 119.5C148.031 118.536 147.719 117.339 147.719 115.906C147.719 114.682 147.94 113.667 148.383 112.859C148.826 112.039 149.431 111.375 150.199 110.867C150.967 110.359 151.84 109.975 152.816 109.715C153.793 109.454 154.828 109.272 155.922 109.168C157.185 109.051 158.201 108.934 158.969 108.816C159.737 108.699 160.297 108.523 160.648 108.289C161.013 108.042 161.195 107.69 161.195 107.234V107.137C161.195 106.238 160.909 105.542 160.336 105.047C159.776 104.552 158.982 104.305 157.953 104.305C156.872 104.305 156.007 104.546 155.355 105.027C154.717 105.496 154.294 106.095 154.086 106.824L148.48 106.375C148.767 105.047 149.327 103.901 150.16 102.938C150.993 101.961 152.068 101.212 153.383 100.691C154.711 100.158 156.247 99.8906 157.992 99.8906C159.203 99.8906 160.362 100.034 161.469 100.32C162.576 100.607 163.559 101.049 164.418 101.648C165.29 102.234 165.98 102.996 166.488 103.934C166.996 104.871 167.25 105.984 167.25 107.273V122H161.488V118.953H161.332C160.98 119.643 160.512 120.249 159.926 120.77C159.34 121.277 158.637 121.681 157.816 121.98C156.996 122.267 156.046 122.41 154.965 122.41ZM156.703 118.23C157.589 118.23 158.37 118.055 159.047 117.703C159.737 117.339 160.271 116.857 160.648 116.258C161.039 115.646 161.234 114.962 161.234 114.207V111.883C161.052 112 160.792 112.111 160.453 112.215C160.128 112.319 159.763 112.41 159.359 112.488C158.956 112.566 158.552 112.638 158.148 112.703C157.745 112.755 157.38 112.807 157.055 112.859C156.339 112.964 155.714 113.133 155.18 113.367C154.646 113.589 154.229 113.895 153.93 114.285C153.643 114.663 153.5 115.138 153.5 115.711C153.5 116.531 153.799 117.156 154.398 117.586C154.997 118.016 155.766 118.23 156.703 118.23ZM182.367 100.164V104.734H169.223V100.164H182.367ZM172.211 94.9688H178.246V115.281C178.246 116.01 178.409 116.551 178.734 116.902C179.06 117.241 179.581 117.41 180.297 117.41C180.531 117.41 180.792 117.391 181.078 117.352C181.365 117.312 181.612 117.267 181.82 117.215L182.777 121.746C182.113 121.941 181.469 122.085 180.844 122.176C180.232 122.267 179.626 122.312 179.027 122.312C176.853 122.312 175.173 121.772 173.988 120.691C172.803 119.598 172.211 118.061 172.211 116.082V94.9688ZM194.711 122.43C192.471 122.43 190.538 121.974 188.91 121.062C187.283 120.151 186.033 118.855 185.16 117.176C184.301 115.483 183.871 113.484 183.871 111.18C183.871 108.94 184.301 106.974 185.16 105.281C186.033 103.589 187.257 102.267 188.832 101.316C190.421 100.366 192.283 99.8906 194.418 99.8906C195.863 99.8906 197.211 100.125 198.461 100.594C199.711 101.049 200.805 101.74 201.742 102.664C202.68 103.576 203.409 104.728 203.93 106.121C204.451 107.501 204.711 109.122 204.711 110.984V112.625H186.273V108.895H201.781L198.969 109.871C198.969 108.764 198.799 107.801 198.461 106.98C198.122 106.16 197.615 105.529 196.938 105.086C196.273 104.63 195.447 104.402 194.457 104.402C193.467 104.402 192.628 104.63 191.938 105.086C191.26 105.542 190.74 106.16 190.375 106.941C190.01 107.723 189.828 108.621 189.828 109.637V112.273C189.828 113.458 190.036 114.474 190.453 115.32C190.87 116.154 191.449 116.798 192.191 117.254C192.947 117.697 193.812 117.918 194.789 117.918C195.466 117.918 196.078 117.82 196.625 117.625C197.172 117.43 197.641 117.143 198.031 116.766C198.435 116.388 198.734 115.932 198.93 115.398L204.516 115.77C204.242 117.111 203.669 118.283 202.797 119.285C201.938 120.275 200.824 121.049 199.457 121.609C198.09 122.156 196.508 122.43 194.711 122.43Z" fill="#EEF2E3"/>
<path d="M239.543 106.439C239.215 106.385 238.805 106.344 238.312 106.316C237.848 106.289 237.396 106.275 236.959 106.275C236.467 106.275 235.947 106.289 235.4 106.316C234.826 106.344 234.252 106.371 233.678 106.398C233.186 106.426 232.625 106.467 231.996 106.521C231.395 106.549 230.807 106.59 230.232 106.645C230.451 106.535 230.643 106.385 230.807 106.193C230.998 106.002 231.162 105.811 231.299 105.619C231.436 105.4 231.559 105.168 231.668 104.922C231.805 104.512 231.791 104.02 231.627 103.445C231.463 102.844 231.162 102.297 230.725 101.805C230.314 101.312 229.781 100.93 229.125 100.656C228.496 100.355 227.799 100.287 227.033 100.451C226.213 100.643 225.475 100.93 224.818 101.312C224.189 101.695 223.656 102.229 223.219 102.912C222.809 103.568 222.508 104.389 222.316 105.373C222.152 106.33 222.111 107.479 222.193 108.818C222.303 110.486 222.576 111.812 223.014 112.797C223.451 113.781 223.984 114.52 224.613 115.012C225.242 115.504 225.926 115.805 226.664 115.914C227.43 115.996 228.182 115.996 228.92 115.914C229.439 115.805 229.918 115.572 230.355 115.217C230.711 114.916 231.039 114.479 231.34 113.904C231.641 113.33 231.777 112.537 231.75 111.525L236.754 111.32C236.18 112.934 235.482 114.219 234.662 115.176C233.842 116.105 233.049 116.83 232.283 117.35C231.381 117.951 230.479 118.361 229.576 118.58C228.455 118.771 227.457 118.854 226.582 118.826C225.707 118.771 224.914 118.635 224.203 118.416C223.492 118.197 222.836 117.924 222.234 117.596C221.633 117.268 221.059 116.912 220.512 116.529C220.156 116.283 219.76 115.873 219.322 115.299C218.885 114.725 218.475 114.041 218.092 113.248C217.709 112.428 217.395 111.525 217.148 110.541C216.902 109.557 216.807 108.545 216.861 107.506C216.916 106.439 217.162 105.373 217.6 104.307C218.037 103.24 218.734 102.215 219.691 101.23C221.141 99.7539 222.686 98.7969 224.326 98.3594C225.994 97.8945 227.566 97.7715 229.043 97.9902C230.52 98.1816 231.832 98.6055 232.98 99.2617C234.129 99.918 234.936 100.629 235.4 101.395C235.865 102.16 236.207 102.748 236.426 103.158C236.672 103.541 236.85 103.842 236.959 104.061C237.096 104.252 237.205 104.402 237.287 104.512C237.396 104.594 237.547 104.717 237.738 104.881C237.875 105.018 238.039 105.168 238.23 105.332C238.395 105.469 238.586 105.633 238.805 105.824C239.023 106.016 239.27 106.221 239.543 106.439ZM249.08 102.625C249.791 102.625 250.529 102.762 251.295 103.035C252.06 103.281 252.799 103.609 253.51 104.02C254.221 104.402 254.863 104.826 255.437 105.291C256.039 105.729 256.531 106.152 256.914 106.562C257.597 107.301 258.062 108.299 258.308 109.557C258.582 110.787 258.637 112.059 258.472 113.371C258.308 114.656 257.926 115.873 257.324 117.021C256.722 118.17 255.889 119.018 254.822 119.564C254.056 119.947 253.305 120.248 252.566 120.467C251.828 120.686 251.117 120.85 250.433 120.959C249.75 121.068 249.107 121.123 248.506 121.123C247.904 121.123 247.385 121.109 246.947 121.082C246.127 121.027 245.265 120.74 244.363 120.221C243.488 119.701 242.654 119.059 241.861 118.293C241.096 117.527 240.439 116.693 239.892 115.791C239.346 114.861 239.017 113.986 238.908 113.166C238.744 112.045 238.717 110.869 238.826 109.639C238.935 108.408 239.332 107.273 240.015 106.234C240.726 105.195 241.793 104.334 243.215 103.65C244.664 102.967 246.619 102.625 249.08 102.625ZM247.726 118.539C248.027 118.594 248.437 118.525 248.957 118.334C249.476 118.115 249.982 117.773 250.474 117.309C250.994 116.844 251.445 116.256 251.828 115.545C252.238 114.807 252.484 113.918 252.566 112.879C252.648 111.867 252.648 110.938 252.566 110.09C252.512 109.242 252.389 108.504 252.197 107.875C252.006 107.219 251.787 106.686 251.541 106.275C251.295 105.865 251.035 105.578 250.762 105.414C250.297 105.168 249.736 104.977 249.08 104.84C248.424 104.676 247.863 104.703 247.398 104.922C247.18 105.031 246.906 105.264 246.578 105.619C246.25 105.975 245.922 106.426 245.594 106.973C245.265 107.492 244.965 108.094 244.691 108.777C244.445 109.461 244.267 110.172 244.158 110.91C244.049 111.648 244.021 112.441 244.076 113.289C244.158 114.137 244.336 114.943 244.609 115.709C244.883 116.447 245.265 117.09 245.758 117.637C246.277 118.156 246.933 118.457 247.726 118.539ZM259.396 101.559C260.025 101.504 260.558 101.449 260.996 101.395C261.461 101.34 261.843 101.285 262.144 101.23C262.5 101.176 262.8 101.121 263.047 101.066C263.293 101.039 263.566 100.984 263.867 100.902C264.14 100.848 264.441 100.779 264.769 100.697C265.125 100.588 265.507 100.465 265.918 100.328L265.672 105.537C266.273 104.58 266.97 103.855 267.763 103.363C268.556 102.844 269.308 102.461 270.019 102.215C270.867 101.914 271.715 101.736 272.562 101.682C273.437 101.709 274.244 101.846 274.982 102.092C275.611 102.311 276.24 102.652 276.869 103.117C277.525 103.582 278.031 104.266 278.386 105.168C279.316 104.211 280.232 103.473 281.134 102.953C282.064 102.406 282.884 101.996 283.595 101.723C284.443 101.422 285.236 101.244 285.974 101.189C286.959 101.162 287.861 101.326 288.681 101.682C289.529 102.037 290.267 102.488 290.896 103.035C291.525 103.555 292.031 104.115 292.414 104.717C292.797 105.291 293.015 105.797 293.07 106.234C293.152 106.836 293.111 107.615 292.947 108.572C292.783 109.502 292.591 110.459 292.373 111.443C292.154 112.4 291.949 113.289 291.757 114.109C291.593 114.902 291.525 115.463 291.552 115.791C291.634 116.064 291.826 116.393 292.127 116.775C292.4 117.104 292.797 117.514 293.316 118.006C293.863 118.471 294.642 119.018 295.654 119.646C294.779 119.619 294 119.592 293.316 119.564C292.66 119.537 292.099 119.496 291.634 119.441C291.088 119.387 290.609 119.346 290.199 119.318C289.871 119.318 289.474 119.291 289.009 119.236C288.627 119.209 288.121 119.168 287.492 119.113C286.89 119.059 286.193 119.004 285.4 118.949C285.701 118.867 285.947 118.717 286.138 118.498C286.33 118.252 286.494 118.02 286.631 117.801C286.767 117.527 286.877 117.227 286.959 116.898C287.013 116.625 287.068 116.188 287.123 115.586C287.177 114.984 287.218 114.301 287.246 113.535C287.3 112.77 287.328 111.963 287.328 111.115C287.355 110.268 287.355 109.461 287.328 108.695C287.3 107.93 287.246 107.232 287.164 106.604C287.082 105.975 286.972 105.496 286.836 105.168C286.726 104.922 286.535 104.73 286.261 104.594C285.988 104.43 285.674 104.334 285.318 104.307C284.963 104.252 284.607 104.266 284.252 104.348C283.896 104.402 283.582 104.512 283.308 104.676C283.062 104.867 282.734 105.127 282.324 105.455C281.968 105.756 281.504 106.166 280.929 106.686C280.355 107.205 279.631 107.861 278.756 108.654C278.674 110.377 278.605 111.771 278.55 112.838C278.523 113.877 278.496 114.67 278.468 115.217C278.441 115.873 278.427 116.324 278.427 116.57C278.4 116.789 278.414 116.994 278.468 117.186C278.523 117.596 278.687 117.979 278.961 118.334C278.632 118.252 278.277 118.197 277.894 118.17C277.539 118.143 277.211 118.115 276.91 118.088C276.554 118.061 276.199 118.047 275.843 118.047C275.543 118.047 275.215 118.061 274.859 118.088C274.558 118.115 274.189 118.156 273.752 118.211C273.314 118.238 272.836 118.279 272.316 118.334C272.535 118.197 272.713 118.033 272.849 117.842C272.986 117.65 273.095 117.473 273.177 117.309C273.287 117.117 273.369 116.939 273.424 116.775C273.451 116.611 273.506 116.215 273.588 115.586C273.67 114.93 273.724 114.164 273.752 113.289C273.779 112.414 273.779 111.498 273.752 110.541C273.724 109.557 273.629 108.668 273.465 107.875C273.3 107.055 273.041 106.385 272.685 105.865C272.357 105.346 271.92 105.113 271.373 105.168C270.716 105.223 270.047 105.387 269.363 105.66C268.789 105.879 268.174 106.207 267.517 106.645C266.861 107.082 266.246 107.67 265.672 108.408C265.562 110.459 265.494 112.086 265.466 113.289C265.466 114.492 265.48 115.408 265.507 116.037C265.535 116.775 265.562 117.281 265.59 117.555C265.617 117.746 265.685 117.938 265.795 118.129C265.877 118.293 265.972 118.484 266.082 118.703C266.218 118.922 266.369 119.127 266.533 119.318L260.011 118.99C260.23 118.881 260.422 118.744 260.586 118.58C260.75 118.389 260.886 118.197 260.996 118.006C261.105 117.787 261.215 117.568 261.324 117.35C261.406 117.158 261.474 116.707 261.529 115.996C261.611 115.285 261.679 114.451 261.734 113.494C261.789 112.51 261.83 111.484 261.857 110.418C261.912 109.324 261.939 108.312 261.939 107.383C261.966 106.426 261.98 105.619 261.98 104.963C261.98 104.279 261.966 103.869 261.939 103.732C261.857 103.459 261.707 103.172 261.488 102.871C261.297 102.652 261.037 102.42 260.709 102.174C260.381 101.9 259.943 101.695 259.396 101.559ZM293.789 101.887C294.664 101.75 295.375 101.641 295.921 101.559C296.496 101.449 296.96 101.367 297.316 101.312C297.726 101.23 298.041 101.162 298.259 101.107C298.478 101.053 298.793 100.971 299.203 100.861C299.558 100.752 300.023 100.629 300.597 100.492C301.171 100.328 301.896 100.109 302.771 99.8359C302.552 100.109 302.375 100.355 302.238 100.574C302.128 100.766 302.019 100.93 301.91 101.066C301.8 101.23 301.705 101.381 301.623 101.518C301.541 101.654 301.459 101.859 301.376 102.133C301.322 102.352 301.253 102.666 301.171 103.076C301.089 103.459 301.021 103.965 300.966 104.594C302.443 103.664 303.796 102.967 305.027 102.502C306.285 102.037 307.378 101.709 308.308 101.518C309.402 101.299 310.386 101.217 311.261 101.271C312.355 101.354 313.367 101.6 314.296 102.01C315.253 102.393 316.115 102.857 316.88 103.404C317.646 103.951 318.316 104.553 318.89 105.209C319.464 105.865 319.916 106.521 320.244 107.178C320.462 107.615 320.599 108.244 320.654 109.064C320.736 109.885 320.654 110.76 320.408 111.689C320.162 112.619 319.724 113.535 319.095 114.438C318.494 115.312 317.632 116.01 316.511 116.529C314.57 117.404 312.642 117.896 310.728 118.006C309.908 118.061 309.06 118.033 308.185 117.924C307.337 117.814 306.476 117.582 305.601 117.227C304.753 116.871 303.933 116.365 303.14 115.709C302.347 115.025 301.623 114.15 300.966 113.084C300.748 114.479 300.584 115.695 300.474 116.734C300.392 117.746 300.337 118.594 300.31 119.277C300.283 120.07 300.283 120.74 300.31 121.287C300.365 121.834 300.474 122.422 300.638 123.051C300.775 123.598 300.966 124.227 301.212 124.938C301.486 125.676 301.828 126.441 302.238 127.234C302.074 127.18 301.841 127.139 301.541 127.111C301.267 127.111 300.98 127.139 300.679 127.193C300.351 127.248 299.982 127.303 299.572 127.357C299.189 127.439 298.765 127.535 298.3 127.645C297.918 127.727 297.466 127.822 296.947 127.932C296.455 128.068 295.949 128.219 295.429 128.383C295.73 128.027 295.962 127.617 296.126 127.152C296.318 126.715 296.468 126.305 296.578 125.922C296.687 125.457 296.783 124.992 296.865 124.527C296.892 124.117 296.933 123.338 296.988 122.189C297.07 121.068 297.138 119.77 297.193 118.293C297.248 116.789 297.289 115.217 297.316 113.576C297.371 111.936 297.398 110.418 297.398 109.023C297.425 107.602 297.425 106.398 297.398 105.414C297.371 104.43 297.316 103.855 297.234 103.691C297.125 103.5 296.919 103.295 296.619 103.076C296.373 102.885 296.017 102.693 295.552 102.502C295.115 102.311 294.527 102.105 293.789 101.887ZM303.55 109.352C303.359 109.98 303.318 110.596 303.427 111.197C303.537 111.799 303.81 112.359 304.248 112.879C304.712 113.398 305.355 113.863 306.175 114.273C307.023 114.656 308.076 114.943 309.334 115.135C310.591 115.326 311.548 115.299 312.205 115.053C312.861 114.807 313.339 114.424 313.64 113.904C313.968 113.357 314.187 112.729 314.296 112.018C314.406 111.279 314.543 110.514 314.707 109.721C314.871 108.955 314.843 108.176 314.625 107.383C314.406 106.562 314.091 105.824 313.681 105.168C313.298 104.512 312.861 103.979 312.369 103.568C311.904 103.131 311.494 102.912 311.138 102.912C310.291 102.912 309.457 103.131 308.636 103.568C307.816 104.006 307.064 104.553 306.38 105.209C305.697 105.865 305.095 106.576 304.576 107.342C304.084 108.08 303.742 108.75 303.55 109.352ZM322.439 122.148C322.712 121.738 322.931 121.355 323.095 121C323.259 120.645 323.396 120.344 323.505 120.098C323.615 119.797 323.697 119.523 323.751 119.277C323.779 119.113 323.792 118.635 323.792 117.842C323.792 117.049 323.765 116.051 323.71 114.848C323.683 113.645 323.642 112.291 323.587 110.787C323.56 109.283 323.505 107.752 323.423 106.193C323.369 104.635 323.3 103.117 323.218 101.641C323.163 100.164 323.109 98.8379 323.054 97.6621C322.999 96.459 322.945 95.4746 322.89 94.709C322.835 93.9434 322.794 93.5059 322.767 93.3965C322.712 93.2324 322.617 93.0684 322.48 92.9043C322.206 92.5762 321.742 92.2617 321.085 91.9609C322.48 91.6055 323.546 91.3184 324.285 91.0996C324.722 90.9902 325.105 90.8809 325.433 90.7715C325.734 90.6621 326.035 90.5527 326.335 90.4434C326.581 90.334 326.855 90.2109 327.156 90.0742C327.456 89.9102 327.73 89.7324 327.976 89.541C327.839 90.334 327.73 91.0996 327.648 91.8379C327.566 92.5762 327.497 93.2598 327.443 93.8887C327.388 94.5996 327.361 95.2832 327.361 95.9395C327.224 97.2793 327.142 98.7422 327.115 100.328C327.115 101.887 327.128 103.473 327.156 105.086C327.183 106.699 327.238 108.271 327.32 109.803C327.402 111.334 327.484 112.729 327.566 113.986C327.675 115.217 327.771 116.27 327.853 117.145C327.962 117.992 328.044 118.539 328.099 118.785C328.208 119.195 328.318 119.592 328.427 119.975C328.536 120.303 328.66 120.645 328.796 121C328.933 121.383 329.097 121.684 329.288 121.902H325.31C324.954 121.902 324.613 121.916 324.285 121.943C323.984 121.971 323.669 121.998 323.341 122.025C323.013 122.053 322.712 122.094 322.439 122.148ZM340.589 114.396C341.355 114.396 342.066 114.314 342.722 114.15C343.269 114.014 343.788 113.795 344.28 113.494C344.8 113.166 345.142 112.688 345.306 112.059C345.853 112.168 346.318 112.264 346.7 112.346C347.083 112.4 347.411 112.455 347.685 112.51C347.986 112.592 348.245 112.646 348.464 112.674C348.683 112.729 348.943 112.783 349.243 112.838C349.517 112.893 349.845 112.961 350.228 113.043C350.638 113.098 351.116 113.18 351.663 113.289C351.253 113.234 350.829 113.275 350.392 113.412C349.982 113.549 349.585 113.699 349.202 113.863C348.765 114.055 348.355 114.287 347.972 114.561C347.726 114.725 347.439 114.971 347.111 115.299C346.81 115.627 346.372 115.941 345.798 116.242C345.224 116.543 344.458 116.803 343.501 117.021C342.571 117.213 341.368 117.281 339.892 117.227C338.114 117.172 336.624 116.857 335.421 116.283C334.218 115.682 333.247 114.957 332.509 114.109C331.771 113.234 331.238 112.291 330.909 111.279C330.581 110.268 330.404 109.324 330.376 108.449C330.349 107.574 330.609 106.658 331.155 105.701C331.702 104.744 332.468 103.869 333.452 103.076C334.464 102.283 335.681 101.641 337.103 101.148C338.525 100.629 340.083 100.369 341.779 100.369C342.763 100.369 343.665 100.492 344.486 100.738C345.333 100.957 346.099 101.258 346.782 101.641C347.493 102.023 348.109 102.461 348.628 102.953C349.148 103.418 349.585 103.896 349.941 104.389C350.296 104.908 350.597 105.455 350.843 106.029C351.062 106.521 351.239 107.082 351.376 107.711C351.513 108.34 351.554 108.982 351.499 109.639C349.421 109.693 347.739 109.734 346.454 109.762C345.196 109.789 344.212 109.803 343.501 109.803H341.655H340.261C339.769 109.803 339.126 109.816 338.333 109.844C337.54 109.871 336.57 109.912 335.421 109.967C335.558 111.061 335.9 111.908 336.446 112.51C337.021 113.084 337.622 113.521 338.251 113.822C338.962 114.15 339.741 114.342 340.589 114.396ZM336.898 107.014C337.773 107.068 338.497 107.109 339.071 107.137C339.673 107.164 340.165 107.191 340.548 107.219C340.958 107.246 341.286 107.26 341.532 107.26H342.558C343.241 107.26 344.513 107.219 346.372 107.137C346.29 105.934 346.03 105.018 345.593 104.389C345.183 103.76 344.745 103.295 344.28 102.994C343.734 102.666 343.132 102.475 342.476 102.42C340.698 102.447 339.372 102.816 338.497 103.527C337.65 104.238 337.116 105.4 336.898 107.014ZM350.741 98.2363C351.534 98.2363 352.19 98.25 352.71 98.2773C353.23 98.2773 353.64 98.2773 353.94 98.2773H354.761H355.704C356.087 98.2773 356.593 98.2773 357.222 98.2773C357.878 98.25 358.726 98.209 359.765 98.1543C359.273 98.2637 358.89 98.3867 358.616 98.5234C358.343 98.6328 358.138 98.7559 358.001 98.8926C357.837 99.0293 357.741 99.1797 357.714 99.3438C357.741 99.5625 357.837 99.9043 358.001 100.369C358.138 100.779 358.37 101.34 358.698 102.051C359.054 102.762 359.573 103.719 360.257 104.922C361.405 103.609 362.28 102.57 362.882 101.805C363.483 101.039 363.935 100.451 364.235 100.041C364.536 99.5762 364.714 99.2617 364.769 99.0977C364.741 98.9609 364.7 98.8242 364.646 98.6875C364.564 98.4688 364.358 98.127 364.03 97.6621C364.769 97.7168 365.411 97.7578 365.958 97.7852C366.505 97.7852 366.97 97.7988 367.353 97.8262C367.79 97.8535 368.146 97.8672 368.419 97.8672C368.72 97.8672 369.157 97.8535 369.731 97.8262C370.196 97.7988 370.825 97.7715 371.618 97.7441C372.439 97.6895 373.464 97.6074 374.694 97.498C373.683 97.9902 372.821 98.4688 372.11 98.9336C371.399 99.3711 370.812 99.7676 370.347 100.123C369.8 100.533 369.349 100.916 368.993 101.271C368.638 101.682 368.2 102.188 367.681 102.789C367.216 103.336 366.642 104.02 365.958 104.84C365.302 105.633 364.495 106.631 363.538 107.834C364.249 109.064 364.919 110.117 365.548 110.992C366.204 111.867 366.765 112.592 367.23 113.166C367.776 113.85 368.282 114.396 368.747 114.807C369.212 115.217 369.718 115.627 370.265 116.037C370.73 116.393 371.263 116.775 371.864 117.186C372.493 117.568 373.163 117.91 373.874 118.211C373.163 118.266 372.466 118.307 371.782 118.334C371.126 118.334 370.538 118.361 370.019 118.416C369.417 118.471 368.843 118.512 368.296 118.539C367.749 118.594 367.189 118.635 366.614 118.662C366.122 118.689 365.575 118.717 364.974 118.744C364.372 118.771 363.757 118.785 363.128 118.785C363.374 118.539 363.565 118.307 363.702 118.088C363.839 117.869 363.948 117.678 364.03 117.514C364.14 117.322 364.208 117.145 364.235 116.98C364.208 116.762 364.071 116.406 363.825 115.914C363.606 115.477 363.265 114.875 362.8 114.109C362.335 113.316 361.651 112.25 360.749 110.91C360.12 111.566 359.614 112.141 359.231 112.633C358.876 113.125 358.603 113.535 358.411 113.863C358.192 114.246 358.042 114.561 357.96 114.807C357.905 115.053 357.905 115.326 357.96 115.627C358.015 115.873 358.097 116.174 358.206 116.529C358.315 116.857 358.507 117.199 358.78 117.555C357.413 117.637 356.265 117.678 355.335 117.678H353.94C353.503 117.678 352.983 117.664 352.382 117.637C351.862 117.609 351.22 117.596 350.454 117.596C349.661 117.568 348.745 117.527 347.706 117.473C348.007 117.363 348.321 117.227 348.649 117.062C348.978 116.898 349.265 116.748 349.511 116.611C349.812 116.447 350.099 116.27 350.372 116.078C350.673 115.832 351.151 115.367 351.808 114.684C352.355 114.109 353.106 113.303 354.064 112.264C355.021 111.197 356.265 109.775 357.796 107.998C356.894 106.357 356.155 105.059 355.581 104.102C355.034 103.117 354.61 102.352 354.31 101.805C353.954 101.176 353.694 100.752 353.53 100.533C353.366 100.314 353.148 100.068 352.874 99.7949C352.437 99.3574 351.726 98.8379 350.741 98.2363ZM370.491 102.666L378.038 102.748C377.6 104.416 377.272 105.838 377.054 107.014C376.862 108.189 376.739 109.174 376.684 109.967C376.575 110.869 376.548 111.635 376.602 112.264C376.684 112.838 376.821 113.453 377.013 114.109C377.177 114.656 377.423 115.285 377.751 115.996C378.079 116.707 378.516 117.418 379.063 118.129C378.735 118.02 378.38 117.938 377.997 117.883C377.614 117.828 377.259 117.787 376.931 117.76C376.548 117.732 376.165 117.732 375.782 117.76C375.399 117.787 374.975 117.828 374.511 117.883C374.128 117.938 373.663 118.006 373.116 118.088C372.569 118.17 371.995 118.279 371.393 118.416C371.804 117.186 372.118 116.119 372.337 115.217C372.583 114.314 372.761 113.562 372.87 112.961C372.979 112.25 373.048 111.676 373.075 111.238C373.075 110.691 373.075 110.076 373.075 109.393C373.075 108.682 373.075 107.998 373.075 107.342C373.075 106.686 373.061 106.111 373.034 105.619C373.007 105.1 372.952 104.771 372.87 104.635L372.46 104.225C372.296 104.088 372.05 103.896 371.722 103.65C371.421 103.377 371.011 103.049 370.491 102.666ZM373.403 96.3496C373.977 96.0488 374.552 95.9668 375.126 96.1035C375.727 96.2402 376.192 96.5 376.52 96.8828C376.849 97.2656 376.958 97.7168 376.849 98.2363C376.766 98.7559 376.329 99.2617 375.536 99.7539C374.743 100.219 374.046 100.383 373.444 100.246C372.843 100.109 372.419 99.8223 372.173 99.3848C371.927 98.9473 371.886 98.4414 372.05 97.8672C372.214 97.2656 372.665 96.7598 373.403 96.3496ZM379.208 95.1602C380.028 95.2422 380.712 95.3105 381.259 95.3652C381.833 95.4199 382.298 95.4609 382.653 95.4883C383.063 95.5156 383.391 95.5293 383.637 95.5293C383.884 95.5566 384.212 95.5566 384.622 95.5293C384.977 95.502 385.442 95.4746 386.016 95.4473C386.591 95.3926 387.315 95.3105 388.19 95.2012C387.999 95.4746 387.848 95.7207 387.739 95.9395C387.63 96.1309 387.534 96.3086 387.452 96.4727L387.206 96.9648C387.151 97.1289 387.096 97.293 387.042 97.457C386.987 97.5938 386.932 97.7578 386.878 97.9492C386.85 98.1406 386.823 98.3457 386.796 98.5645H393.112L392.538 101.887L386.755 101.559C386.618 102.953 386.522 104.033 386.467 104.799C386.413 105.564 386.358 106.125 386.303 106.48L386.221 107.219C386.139 108.258 386.057 109.393 385.975 110.623C385.893 111.826 385.866 112.947 385.893 113.986C385.921 115.025 386.016 115.9 386.18 116.611C386.344 117.295 386.632 117.637 387.042 117.637C387.452 117.637 387.835 117.527 388.19 117.309C388.546 117.09 388.846 116.83 389.092 116.529C389.366 116.229 389.571 115.928 389.708 115.627C389.844 115.299 389.913 115.053 389.913 114.889C389.913 114.725 389.872 114.533 389.79 114.314C389.653 113.904 389.407 113.385 389.051 112.756C389.844 112.947 390.542 113.139 391.143 113.33C391.444 113.439 391.717 113.549 391.964 113.658C392.237 113.768 392.551 113.891 392.907 114.027C393.208 114.164 393.591 114.328 394.055 114.52C394.52 114.711 395.067 114.943 395.696 115.217C395.094 115.326 394.657 115.504 394.384 115.75C394.219 115.859 394.096 115.982 394.014 116.119C393.823 116.42 393.604 116.83 393.358 117.35C393.112 117.842 392.743 118.334 392.251 118.826C391.759 119.318 391.089 119.756 390.241 120.139C389.421 120.521 388.313 120.74 386.919 120.795C385.469 120.85 384.362 120.604 383.596 120.057C382.858 119.51 382.311 118.881 381.956 118.17C381.628 117.432 381.436 116.707 381.382 115.996C381.327 115.285 381.286 114.807 381.259 114.561C381.231 114.314 381.231 113.699 381.259 112.715C381.286 111.73 381.327 110.65 381.382 109.475C381.436 108.271 381.491 107.123 381.546 106.029C381.6 104.908 381.628 104.088 381.628 103.568C381.628 103.295 381.641 103.008 381.669 102.707C381.669 102.461 381.669 102.201 381.669 101.928C381.696 101.627 381.71 101.34 381.71 101.066L375.762 101.025L375.516 98.6875L381.505 98.8516C381.45 98.5508 381.382 98.2773 381.3 98.0312C381.245 97.7578 381.19 97.5391 381.135 97.375C381.053 97.1836 380.971 97.0195 380.889 96.8828C380.78 96.7461 380.657 96.5957 380.52 96.4316C380.384 96.2949 380.206 96.1172 379.987 95.8984C379.768 95.6797 379.509 95.4336 379.208 95.1602ZM391.083 100.041C391.629 100.123 392.122 100.191 392.559 100.246C392.969 100.273 393.338 100.301 393.667 100.328C394.022 100.355 394.364 100.369 394.692 100.369C394.993 100.369 395.376 100.355 395.84 100.328C396.223 100.301 396.715 100.273 397.317 100.246C397.946 100.191 398.684 100.123 399.532 100.041C399.477 100.15 399.368 100.492 399.204 101.066C399.04 101.613 398.876 102.297 398.711 103.117C398.547 103.91 398.397 104.799 398.26 105.783C398.151 106.74 398.096 107.697 398.096 108.654C398.124 109.584 398.247 110.473 398.465 111.32C398.684 112.141 399.04 112.811 399.532 113.33C400.571 114.396 401.487 115.039 402.28 115.258C403.1 115.477 403.811 115.449 404.413 115.176C405.014 114.902 405.506 114.492 405.889 113.945C406.272 113.398 406.545 112.893 406.71 112.428C407.12 111.17 407.366 109.844 407.448 108.449C407.503 107.246 407.407 105.906 407.161 104.43C406.915 102.953 406.327 101.449 405.397 99.918C406.108 99.9727 406.723 100.014 407.243 100.041C407.762 100.068 408.213 100.096 408.596 100.123C409.034 100.15 409.417 100.178 409.745 100.205C410.045 100.232 410.401 100.232 410.811 100.205C411.167 100.205 411.59 100.191 412.083 100.164C412.602 100.109 413.176 100.055 413.805 100C413.915 102.68 414.01 105.072 414.092 107.178C414.174 109.256 414.229 111.102 414.256 112.715C414.311 114.301 414.338 115.682 414.338 116.857C414.338 118.006 414.338 118.977 414.338 119.77C414.311 121.656 414.229 122.9 414.092 123.502C413.874 124.35 413.477 125.197 412.903 126.045C412.356 126.893 411.659 127.645 410.811 128.301C409.963 128.984 408.979 129.504 407.858 129.859C406.764 130.242 405.561 130.379 404.249 130.27C402.963 130.16 401.938 129.982 401.172 129.736C400.434 129.518 399.846 129.258 399.409 128.957C398.999 128.656 398.698 128.342 398.506 128.014C398.342 127.686 398.219 127.344 398.137 126.988C398.055 126.66 397.973 126.346 397.891 126.045C397.809 125.744 397.645 125.484 397.399 125.266C397.098 125.02 396.784 124.773 396.456 124.527C396.155 124.309 395.827 124.09 395.471 123.871C395.143 123.652 394.815 123.475 394.487 123.338L403.223 122.846C402.977 123.174 402.799 123.475 402.69 123.748C402.581 124.021 402.512 124.254 402.485 124.445C402.458 124.691 402.471 124.896 402.526 125.061C402.635 125.389 402.827 125.744 403.1 126.127C403.401 126.537 403.784 126.852 404.249 127.07C404.713 127.316 405.26 127.398 405.889 127.316C406.545 127.234 407.284 126.893 408.104 126.291C408.788 125.771 409.362 124.938 409.827 123.789C410.21 122.805 410.51 121.424 410.729 119.646C410.948 117.869 410.907 115.531 410.606 112.633C410.114 114.328 409.444 115.627 408.596 116.529C407.749 117.432 406.901 118.088 406.053 118.498C405.069 118.99 404.044 119.25 402.977 119.277C401.555 119.223 400.338 119.045 399.327 118.744C398.315 118.416 397.481 117.979 396.825 117.432C396.169 116.885 395.649 116.242 395.266 115.504C394.911 114.738 394.651 113.891 394.487 112.961C394.323 112.031 394.241 111.102 394.241 110.172C394.241 109.215 394.241 108.326 394.241 107.506C394.268 106.686 394.282 105.947 394.282 105.291C394.282 104.607 394.213 104.061 394.077 103.65C393.913 103.24 393.694 102.83 393.42 102.42C393.202 102.064 392.901 101.682 392.518 101.271C392.108 100.834 391.629 100.424 391.083 100.041Z" fill="#EEF2E3"/>
<path d="M11.4337 45.1109C-4.90974 60.6192 -4.8297 72.1571 18.8415 99.1878L41.0649 69.5566C60.4278 55.4287 63.2883 47.3332 52.1766 33.2584C49.5563 47.6698 45.7775 50.4959 39.8156 49.9325C38.233 49.7829 36.7758 48.8301 36.3585 47.2962C34.7785 41.4878 38.048 31.5177 43.2872 19.1836C32.2057 22.5248 27.0274 26.2606 22.5432 35.7814C21.4951 38.0068 20.9393 40.4318 20.6948 42.8794C19.5447 54.3938 18.6402 62.0977 14.4677 62.7075C12.4809 62.9979 10.9289 61.145 10.2917 59.2409C8.47129 53.8007 9.35739 50.4154 11.4337 45.1109Z" fill="#F50808"/>
<path d="M53.6581 21.406C62.0861 25.7261 69 10 63.0122 1.09535C61.5 8 57.362 8.81267 54.3989 10.8805C51.4357 12.9484 49.3224 19.1836 53.6581 21.406Z" fill="#F50808"/>
<rect x="17" y="148" width="417" height="63" rx="8" fill="#C8F169"/>
<path d="M37.875 194.5V165.398H57.4844V170.477H44.0078V177.312H56.4688V182.293H44.0078V189.422H57.5234V194.5H37.875ZM60.9805 194.5V172.664H66.7031V176.551H66.9766C67.4323 175.262 68.194 174.246 69.2617 173.504C70.3294 172.762 71.599 172.391 73.0703 172.391C74.5677 172.391 75.8372 172.768 76.8789 173.523C77.9336 174.266 78.6367 175.275 78.9883 176.551H79.2227C79.6654 175.288 80.4727 174.279 81.6445 173.523C82.8164 172.768 84.1966 172.391 85.7852 172.391C87.8164 172.391 89.4701 173.035 90.7461 174.324C92.0352 175.613 92.6797 177.443 92.6797 179.812V194.5H86.625V181.023C86.625 179.799 86.2995 178.888 85.6484 178.289C85.0104 177.69 84.2096 177.391 83.2461 177.391C82.1523 177.391 81.293 177.742 80.668 178.445C80.056 179.135 79.75 180.047 79.75 181.18V194.5H73.8906V180.867C73.8906 179.812 73.5846 178.973 72.9727 178.348C72.3607 177.71 71.5599 177.391 70.5703 177.391C69.8932 177.391 69.2878 177.56 68.7539 177.898C68.2201 178.237 67.7969 178.706 67.4844 179.305C67.1719 179.891 67.0156 180.594 67.0156 181.414V194.5H60.9805ZM96.2539 202.664V172.664H102.191V176.355H102.465C102.738 175.757 103.129 175.151 103.637 174.539C104.145 173.927 104.809 173.419 105.629 173.016C106.449 172.599 107.465 172.391 108.676 172.391C110.277 172.391 111.742 172.807 113.07 173.641C114.411 174.461 115.486 175.704 116.293 177.371C117.1 179.038 117.504 181.121 117.504 183.621C117.504 186.043 117.113 188.094 116.332 189.773C115.551 191.44 114.49 192.703 113.148 193.562C111.82 194.422 110.323 194.852 108.656 194.852C107.484 194.852 106.488 194.656 105.668 194.266C104.848 193.875 104.177 193.387 103.656 192.801C103.148 192.202 102.751 191.603 102.465 191.004H102.289V202.664H96.2539ZM106.742 190.047C107.732 190.047 108.565 189.773 109.242 189.227C109.919 188.68 110.434 187.924 110.785 186.961C111.137 185.984 111.312 184.865 111.312 183.602C111.312 182.339 111.137 181.232 110.785 180.281C110.447 179.318 109.939 178.562 109.262 178.016C108.585 177.469 107.745 177.195 106.742 177.195C105.766 177.195 104.932 177.462 104.242 177.996C103.565 178.517 103.044 179.259 102.68 180.223C102.328 181.173 102.152 182.299 102.152 183.602C102.152 184.891 102.335 186.017 102.699 186.98C103.064 187.944 103.585 188.699 104.262 189.246C104.952 189.78 105.779 190.047 106.742 190.047ZM129.984 194.93C127.784 194.93 125.876 194.461 124.262 193.523C122.66 192.573 121.423 191.258 120.551 189.578C119.691 187.885 119.262 185.919 119.262 183.68C119.262 181.414 119.691 179.441 120.551 177.762C121.423 176.069 122.66 174.754 124.262 173.816C125.876 172.866 127.784 172.391 129.984 172.391C132.198 172.391 134.105 172.866 135.707 173.816C137.322 174.754 138.559 176.069 139.418 177.762C140.29 179.441 140.727 181.414 140.727 183.68C140.727 185.919 140.29 187.885 139.418 189.578C138.559 191.258 137.322 192.573 135.707 193.523C134.105 194.461 132.198 194.93 129.984 194.93ZM130.023 190.203C131.026 190.203 131.866 189.923 132.543 189.363C133.22 188.79 133.728 188.009 134.066 187.02C134.418 186.03 134.594 184.904 134.594 183.641C134.594 182.365 134.418 181.238 134.066 180.262C133.728 179.285 133.22 178.517 132.543 177.957C131.866 177.397 131.026 177.117 130.023 177.117C129.008 177.117 128.155 177.397 127.465 177.957C126.788 178.517 126.273 179.285 125.922 180.262C125.583 181.238 125.414 182.365 125.414 183.641C125.414 184.904 125.583 186.03 125.922 187.02C126.273 188.009 126.788 188.79 127.465 189.363C128.155 189.923 129.008 190.203 130.023 190.203ZM147.133 194.5L141.195 172.664H147.328L150.707 187.352H150.902L154.438 172.664H160.434L164.008 187.254H164.203L167.523 172.664H173.637L167.699 194.5H161.312L157.562 180.77H157.289L153.539 194.5H147.133ZM184.945 194.93C182.706 194.93 180.772 194.474 179.145 193.562C177.517 192.651 176.267 191.355 175.395 189.676C174.535 187.983 174.105 185.984 174.105 183.68C174.105 181.44 174.535 179.474 175.395 177.781C176.267 176.089 177.491 174.767 179.066 173.816C180.655 172.866 182.517 172.391 184.652 172.391C186.098 172.391 187.445 172.625 188.695 173.094C189.945 173.549 191.039 174.24 191.977 175.164C192.914 176.076 193.643 177.228 194.164 178.621C194.685 180.001 194.945 181.622 194.945 183.484V185.125H176.508V181.395H192.016L189.203 182.371C189.203 181.264 189.034 180.301 188.695 179.48C188.357 178.66 187.849 178.029 187.172 177.586C186.508 177.13 185.681 176.902 184.691 176.902C183.702 176.902 182.862 177.13 182.172 177.586C181.495 178.042 180.974 178.66 180.609 179.441C180.245 180.223 180.062 181.121 180.062 182.137V184.773C180.062 185.958 180.271 186.974 180.688 187.82C181.104 188.654 181.684 189.298 182.426 189.754C183.181 190.197 184.047 190.418 185.023 190.418C185.701 190.418 186.312 190.32 186.859 190.125C187.406 189.93 187.875 189.643 188.266 189.266C188.669 188.888 188.969 188.432 189.164 187.898L194.75 188.27C194.477 189.611 193.904 190.783 193.031 191.785C192.172 192.775 191.059 193.549 189.691 194.109C188.324 194.656 186.742 194.93 184.945 194.93ZM197.543 194.5V172.664H203.383V176.492H203.617C204.021 175.138 204.691 174.116 205.629 173.426C206.566 172.723 207.641 172.371 208.852 172.371C209.164 172.371 209.49 172.391 209.828 172.43C210.18 172.456 210.492 172.508 210.766 172.586V177.938C210.479 177.846 210.082 177.775 209.574 177.723C209.079 177.658 208.617 177.625 208.188 177.625C207.315 177.625 206.527 177.82 205.824 178.211C205.121 178.589 204.568 179.122 204.164 179.812C203.773 180.49 203.578 181.271 203.578 182.156V194.5H197.543Z" fill="#043F2E"/>
<path d="M229.02 194.56C225.26 194.56 222.58 191.88 222.58 187.04C222.58 180.24 227.74 174.28 233.58 174.28C236.26 174.28 237.98 175.6 238.54 177.6C238.42 178.84 237.42 179.6 236.3 179.6C235.18 179.6 234.42 178.76 233.74 177.8L232.5 176.08C229.18 177.8 226.94 181.96 226.94 186.24C226.94 189.56 228.66 191.12 231.26 191.12C233.18 191.12 234.94 189.8 236.26 188.2L237.26 188.96C235.62 191.96 232.5 194.56 229.02 194.56ZM242.121 193.92L245.441 178.16L242.041 177.88L242.241 176.56L249.401 174.24L250.041 174.76L249.081 180.44C250.881 177.08 253.161 174.28 255.401 174.28C256.681 174.28 257.801 174.8 258.321 175.88C258.281 177.48 257.481 178.68 255.921 178.68C255.001 178.68 254.161 178.16 253.241 177.32C251.161 179.32 249.681 181.68 248.441 184.24L248.161 185.52C247.561 188.36 247.041 191.12 246.521 194L242.601 194.32L242.121 193.92ZM269.657 176.24C267.337 176.24 263.777 180.4 263.497 185.24C269.537 183.36 271.537 180.6 271.537 178.4C271.537 177 270.737 176.24 269.657 176.24ZM265.777 194.56C261.937 194.56 259.257 191.96 259.257 187.08C259.257 180.4 264.217 174.28 270.417 174.28C273.457 174.28 275.177 175.8 275.177 178.28C275.177 181.24 271.937 184.6 263.497 186.88C263.737 189.84 265.217 191.12 267.497 191.12C269.937 191.12 271.777 189.68 272.937 188.2L273.937 188.96C272.297 191.88 269.417 194.56 265.777 194.56ZM282.322 187.56C282.322 190.04 283.202 191.12 284.602 191.12C285.842 191.12 287.282 190.24 289.242 188.16L291.482 177.72C290.762 177.36 290.002 177.08 289.202 177.08C288.122 177.08 286.842 177.72 285.602 178.92C283.722 180.8 282.322 184.36 282.322 187.56ZM291.482 194.56C289.922 194.56 288.802 193.6 288.802 191.6C288.802 191.12 288.842 190.68 288.882 190.24C286.642 192.8 284.042 194.56 281.882 194.56C279.842 194.56 277.882 193.12 277.882 189.44C277.882 182.4 285.282 174.28 290.802 174.28C291.842 174.28 292.682 174.72 293.482 175.44L295.922 174.04L296.602 174.48L293.402 188.52C293.202 189.36 293.082 190.08 293.082 190.52C293.082 191.08 293.442 191.36 293.922 191.36C294.802 191.36 296.002 190.32 297.322 188.64L298.402 189.44C296.882 191.88 294.322 194.56 291.482 194.56ZM302.961 188.72L305.521 176.96H301.961L302.281 175.2L306.201 174.8L308.441 169.4H311.321L310.161 174.84H314.761L314.401 177.2L309.721 177.04L307.321 188.48C307.121 189.36 307.001 190.08 307.001 190.48C307.001 191.08 307.401 191.36 307.841 191.36C308.721 191.36 309.801 190.48 311.281 188.68L312.361 189.48C310.721 192 308.201 194.56 305.161 194.56C303.641 194.56 302.521 193.76 302.521 192.16C302.521 191.32 302.681 190.2 302.961 188.72ZM317.598 192.2C317.598 191.4 317.798 190.2 318.078 188.8L320.317 178.16L316.918 177.88L317.118 176.56L324.758 174.24L325.358 174.72L322.438 188.52C322.238 189.36 322.118 190.08 322.118 190.52C322.118 191.08 322.478 191.36 322.878 191.36C323.718 191.36 324.758 190.48 326.238 188.68L327.358 189.48C325.638 192 323.358 194.56 320.198 194.56C318.718 194.56 317.598 193.76 317.598 192.2ZM324.158 169.68C322.758 169.68 321.598 168.68 321.598 167.08C321.598 165.44 322.998 164.12 324.518 164.12C325.998 164.12 327.038 165.16 327.038 166.72C327.038 168.32 325.678 169.68 324.158 169.68ZM335.188 194.04C334.828 188.32 334.428 183.8 333.828 179.4C333.668 178 333.308 177.76 332.788 177.76C332.188 177.76 331.588 178.24 330.508 179.8L329.588 178.96C331.348 175.88 333.188 174.28 335.148 174.28C336.988 174.28 337.788 175.4 338.108 177.8C338.588 181.48 338.868 185.92 338.988 190.24C341.428 187.2 343.268 184.48 345.108 181.12L344.748 179.72C344.508 178.92 344.228 178.04 344.228 177.32C344.228 175.16 345.388 174.2 346.988 174.2C347.748 174.2 348.308 174.48 348.668 174.76C348.948 175.2 349.028 175.6 349.028 176.56C349.028 177.52 348.868 178.64 347.188 181.76C345.268 185.28 341.628 189.96 337.548 194.12L335.548 194.32L335.188 194.04ZM352.868 192.2C352.868 191.4 353.068 190.2 353.348 188.8L355.588 178.16L352.188 177.88L352.388 176.56L360.028 174.24L360.628 174.72L357.708 188.52C357.508 189.36 357.388 190.08 357.388 190.52C357.388 191.08 357.748 191.36 358.148 191.36C358.988 191.36 360.028 190.48 361.508 188.68L362.628 189.48C360.908 192 358.628 194.56 355.468 194.56C353.988 194.56 352.868 193.76 352.868 192.2ZM359.428 169.68C358.028 169.68 356.868 168.68 356.868 167.08C356.868 165.44 358.268 164.12 359.788 164.12C361.268 164.12 362.308 165.16 362.308 166.72C362.308 168.32 360.948 169.68 359.428 169.68ZM367.369 188.72L369.929 176.96H366.369L366.689 175.2L370.609 174.8L372.849 169.4H375.729L374.569 174.84H379.169L378.809 177.2L374.129 177.04L371.729 188.48C371.529 189.36 371.409 190.08 371.409 190.48C371.409 191.08 371.809 191.36 372.249 191.36C373.129 191.36 374.209 190.48 375.689 188.68L376.769 189.48C375.129 192 372.609 194.56 369.569 194.56C368.049 194.56 366.929 193.76 366.929 192.16C366.929 191.32 367.089 190.2 367.369 188.72ZM376.045 200.6C376.325 199.28 377.285 198.56 378.565 198.56C379.845 198.56 380.765 199.24 382.005 200.52C383.325 199.6 384.565 198.56 385.725 197.36C386.125 196.96 386.485 196.56 386.845 196.16C386.285 191.16 385.605 187.28 384.805 181.8C384.365 178.2 384.125 177.76 383.485 177.76C382.925 177.76 382.365 178.2 381.245 179.8L380.325 178.96C382.205 175.68 384.085 174.28 385.885 174.28C387.685 174.28 388.485 175.32 388.885 179.2C389.365 183.8 389.765 188 390.045 191.96C392.245 187.32 393.485 184.04 394.685 179.76C395.925 175.24 396.605 174.12 398.165 174.12C399.245 174.12 400.085 174.84 400.085 175.92C400.085 177.12 399.685 178 398.845 179.64C397.965 181.28 397.045 183.04 395.605 185.44C394.125 187.92 392.525 190.76 390.285 193.92C389.125 195.56 387.925 197.28 386.045 199.28C383.725 201.76 381.525 203.32 379.205 203.32C377.365 203.32 376.125 202.28 376.045 200.6Z" fill="#043F2E"/>
<path d="M380.168 239.239C379.772 246.16 381.008 253.106 380.636 260.029C380.483 262.876 380.02 265.809 378.69 268.089C378.025 269.229 377.146 270.179 376.123 270.722C375.1 271.264 373.93 271.383 372.877 270.948C372.184 270.661 371.553 270.143 371.036 269.481C370.52 268.819 370.118 268.016 369.834 267.152C369.265 265.423 369.175 263.483 369.346 261.618C369.62 258.627 370.534 255.798 371.537 253.078C372.539 250.357 373.645 247.681 374.343 244.807C375.042 241.932 375.313 238.791 374.618 235.915C374.27 234.477 373.681 233.128 372.859 232.057C372.038 230.986 370.981 230.204 369.836 229.91C369.01 229.698 368.16 229.74 367.319 229.695C366.477 229.65 365.613 229.506 364.882 228.968C364.374 228.594 363.954 228.046 363.595 227.451C363.236 226.855 362.932 226.208 362.608 225.58C362.284 224.952 361.936 224.337 361.504 223.829C361.071 223.321 360.547 222.922 359.971 222.79C359.366 222.651 358.729 222.819 358.19 223.201C357.651 223.582 357.208 224.17 356.886 224.846C356.242 226.197 356.084 227.842 356.082 229.428C356.076 232.593 356.622 235.784 356.191 238.899C355.976 240.457 355.502 241.985 354.681 243.161C354.271 243.749 353.777 244.243 353.222 244.582C352.668 244.92 352.053 245.101 351.44 245.076C350.749 245.047 350.069 244.756 349.487 244.275C348.905 243.793 348.42 243.124 348.064 242.36C347.351 240.831 347.165 238.957 347.355 237.19C347.545 235.423 348.089 233.747 348.751 232.181C349.413 230.614 350.196 229.139 350.909 227.61C351.416 226.525 351.898 225.369 351.978 224.106C352.017 223.475 351.951 222.826 351.744 222.251C351.538 221.677 351.185 221.181 350.739 220.916C350.447 220.742 350.121 220.669 349.8 220.683C349.478 220.696 349.16 220.794 348.861 220.947C348.263 221.253 347.745 221.772 347.258 222.314C346.77 222.856 346.3 223.431 345.758 223.879C345.215 224.327 344.585 224.644 343.942 224.604C343.525 224.578 343.12 224.402 342.747 224.159C342.374 223.916 342.031 223.606 341.689 223.295C341.348 222.985 341.007 222.671 340.638 222.417C340.269 222.164 339.87 221.972 339.454 221.923C338.805 221.846 338.151 222.126 337.605 222.587C337.059 223.047 336.613 223.679 336.22 224.35C335.434 225.692 334.813 227.249 333.763 228.245C333.096 228.878 332.27 229.246 331.443 229.205C330.616 229.165 329.796 228.699 329.255 227.892C328.879 227.331 328.646 226.63 328.509 225.91C328.373 225.19 328.328 224.446 328.292 223.707C328.257 222.967 328.229 222.224 328.127 221.495C328.024 220.765 327.842 220.044 327.521 219.43C327.041 218.512 326.268 217.882 325.436 217.61C324.604 217.339 323.719 217.409 322.891 217.702C321.236 218.287 319.848 219.704 318.486 221.05C316.328 223.182 314.059 225.295 312.632 228.278C311.302 231.058 310.815 234.39 310.76 237.656C310.705 240.922 311.054 244.173 311.274 247.428C311.397 249.254 311.474 251.141 311.019 252.877C310.791 253.746 310.427 254.564 309.918 255.203C309.408 255.841 308.747 256.293 308.041 256.403C307.459 256.493 306.86 256.349 306.327 256.031C305.795 255.714 305.327 255.227 304.948 254.649C304.19 253.494 303.794 252.01 303.579 250.521C303.135 247.448 303.399 244.268 303.942 241.221C304.486 238.175 305.304 235.223 305.987 232.224C306.535 229.821 306.998 227.279 306.587 224.83C306.382 223.606 305.951 222.43 305.277 221.528C304.603 220.626 303.676 220.016 302.707 219.958C301.914 219.91 301.128 220.224 300.422 220.691C299.715 221.158 299.076 221.774 298.434 222.377C297.792 222.98 297.139 223.576 296.415 223.994C295.69 224.413 294.883 224.648 294.098 224.494C293.176 224.313 292.369 223.622 291.608 222.929C290.846 222.235 290.07 221.505 289.163 221.225C288.438 221 287.661 221.085 286.963 221.425C286.265 221.765 285.645 222.355 285.162 223.088C284.195 224.556 283.799 226.55 283.853 228.475C283.906 230.399 284.376 232.268 284.976 234.03C285.576 235.793 286.31 237.475 286.933 239.225C288.232 242.873 289.046 246.861 288.959 250.874C288.92 252.702 288.685 254.561 288.019 256.176C287.686 256.984 287.247 257.723 286.706 258.314C286.164 258.904 285.519 259.344 284.827 259.545C283.632 259.893 282.338 259.499 281.332 258.598C280.325 257.696 279.601 256.318 279.228 254.812C278.799 253.079 278.82 251.207 279.032 249.409C279.243 247.61 279.639 245.857 279.951 244.083C280.604 240.367 280.888 236.491 280.358 232.742C279.829 228.993 278.433 225.37 276.154 222.946C274.927 221.641 273.458 220.702 271.897 220.317C270.335 219.931 268.684 220.11 267.217 220.903C266.31 221.394 265.487 222.107 264.654 222.783C263.822 223.459 262.961 224.11 262.014 224.457C260.352 225.068 258.543 224.683 256.953 223.81C255.362 222.937 253.953 221.603 252.577 220.253C248.647 216.397 244.855 212.307 241.218 208L400.38 208.464C394.967 210.164 389.995 214.125 386.393 219.609C382.791 225.093 380.579 232.071 380.168 239.239Z" fill="#C8F169"/>
<path d="M317.11 242.313C317.11 242.817 317.187 243.317 317.336 243.782C317.486 244.248 317.705 244.671 317.981 245.028C318.258 245.384 318.586 245.667 318.947 245.86C319.308 246.053 319.695 246.152 320.086 246.152C320.476 246.152 320.863 246.053 321.224 245.86C321.586 245.667 321.914 245.384 322.19 245.028C322.466 244.671 322.685 244.248 322.835 243.782C322.985 243.317 323.062 242.817 323.062 242.313C323.062 241.295 322.748 240.318 322.19 239.598C321.632 238.878 320.875 238.474 320.086 238.474C319.695 238.474 319.308 238.573 318.947 238.766C318.586 238.959 318.258 239.242 317.981 239.598C317.705 239.955 317.486 240.378 317.336 240.844C317.187 241.31 317.11 241.809 317.11 242.313Z" fill="#C8F169"/>
</svg>
