<svg width="169" height="29" viewBox="0 0 169 29" fill="none" xmlns="http://www.w3.org/2000/svg">
<path d="M52.8434 28.2286C52.6104 28.2084 52.3469 28.1881 52.0531 28.1678C51.7997 28.1476 51.5008 28.1324 51.1563 28.1222C50.8219 28.1121 50.4521 28.107 50.0467 28.107C49.4692 28.107 48.8561 28.1273 48.2076 28.1678C47.5591 28.2084 46.9156 28.2843 46.2773 28.3958C46.3381 28.2742 46.4039 28.0209 46.4749 27.6358C46.5458 27.2508 46.6117 26.8252 46.6725 26.3591C46.7434 25.893 46.8042 25.4319 46.8549 24.9759C46.9156 24.52 46.9612 24.1653 46.9916 23.912C46.8295 24.6719 46.6015 25.3661 46.3077 25.9943C46.0239 26.6124 45.6896 27.1444 45.3045 27.5902C44.9195 28.026 44.4888 28.3654 44.0126 28.6086C43.5363 28.8518 43.0347 28.9734 42.5078 28.9734C42.2646 28.9734 41.9657 28.9582 41.611 28.9278C41.2564 28.8974 40.8764 28.7961 40.4711 28.6238C40.0759 28.4515 39.6756 28.1881 39.2703 27.8334C38.8751 27.4686 38.5154 26.962 38.1912 26.3135C37.877 25.6548 37.6186 24.8239 37.416 23.8208C37.2235 22.8176 37.1272 21.5915 37.1272 20.1425C37.1272 18.9265 37.2133 17.8423 37.3856 16.8898C37.568 15.9272 37.8061 15.0811 38.1 14.3515C38.404 13.6219 38.7535 13.0038 39.1487 12.4972C39.554 11.9804 39.9746 11.5599 40.4103 11.2356C40.8561 10.9114 41.307 10.6783 41.763 10.5364C42.2291 10.3845 42.675 10.3085 43.1006 10.3085C43.5768 10.3085 44.0075 10.3895 44.3925 10.5516C44.7776 10.7036 45.1272 10.9063 45.4413 11.1596C45.7554 11.4028 46.029 11.6865 46.2621 12.0108C46.4951 12.3249 46.6978 12.639 46.8701 12.9532C46.8498 12.487 46.8295 11.9804 46.8093 11.4332C46.789 10.886 46.7637 10.3338 46.7333 9.77648C46.7029 9.21916 46.6623 8.67198 46.6117 8.13493C46.5711 7.58775 46.5205 7.0811 46.4597 6.61499C46.409 6.14887 46.3482 5.73849 46.2773 5.38383C46.2063 5.02918 46.1253 4.76065 46.0341 4.57826C46.8447 4.72012 47.5996 4.81638 48.2988 4.86705C48.998 4.91771 49.6313 4.94305 50.1987 4.94305C50.5635 4.94305 50.8928 4.93798 51.1867 4.92785C51.4806 4.90758 51.7288 4.88732 51.9315 4.86705C52.1747 4.84678 52.3875 4.82145 52.5698 4.79105C52.4584 5.2977 52.3571 5.96141 52.2659 6.78218C52.1747 7.59282 52.0936 8.50985 52.0227 9.53328C51.9619 10.5567 51.9112 11.6561 51.8707 12.8316C51.8403 13.9969 51.8251 15.1875 51.8251 16.4034C51.8251 17.5282 51.8403 18.6479 51.8707 19.7625C51.9112 20.8771 51.972 21.9512 52.0531 22.9848C52.1341 24.0082 52.2405 24.9709 52.3723 25.8727C52.504 26.7644 52.661 27.5497 52.8434 28.2286ZM46.5965 19.5193V17.057C46.5965 16.7834 46.5813 16.5048 46.5509 16.221C46.5205 15.9373 46.4495 15.6789 46.3381 15.4459C46.2367 15.2128 46.0847 15.0254 45.8821 14.8835C45.6794 14.7315 45.4058 14.6555 45.0613 14.6555C44.8181 14.6555 44.6104 14.7518 44.4381 14.9443C44.2659 15.1368 44.124 15.3851 44.0126 15.6891C43.9011 15.9931 43.8099 16.3325 43.739 16.7074C43.668 17.0823 43.6174 17.4573 43.587 17.8322C43.5566 18.197 43.5363 18.5415 43.5262 18.8658C43.516 19.1799 43.511 19.4281 43.511 19.6105C43.511 19.8841 43.5211 20.2236 43.5414 20.6289C43.5718 21.0241 43.6326 21.4091 43.7238 21.784C43.815 22.1488 43.9518 22.463 44.1341 22.7264C44.3267 22.9899 44.5851 23.1216 44.9093 23.1216C45.2741 23.1216 45.568 22.9949 45.7909 22.7416C46.0138 22.4883 46.181 22.1742 46.2925 21.7992C46.4141 21.4243 46.4951 21.0342 46.5357 20.6289C46.5762 20.2134 46.5965 19.8436 46.5965 19.5193Z" fill="black"/>
<path d="M54.378 28.2286C54.5604 27.5497 54.7174 26.7644 54.8492 25.8727C54.9809 24.9709 55.0873 24.0082 55.1683 22.9848C55.2494 21.9512 55.3051 20.8771 55.3355 19.7625C55.3761 18.6479 55.3963 17.5282 55.3963 16.4034C55.3963 15.1875 55.3761 13.9969 55.3355 12.8316C55.295 11.6561 55.2393 10.5567 55.1683 9.53328C55.1075 8.50985 55.0316 7.59282 54.9404 6.78218C54.8492 5.96141 54.7529 5.2977 54.6516 4.79105C54.834 4.82145 55.0468 4.84678 55.2899 4.86705C55.4926 4.88732 55.7358 4.90758 56.0195 4.92785C56.3134 4.93798 56.6478 4.94305 57.0227 4.94305C57.58 4.94305 58.2082 4.91771 58.9074 4.86705C59.6167 4.81638 60.3767 4.72012 61.1873 4.57826C61.0961 4.77079 61.01 5.05451 60.9289 5.42943C60.858 5.79422 60.7921 6.2198 60.7313 6.70618C60.6706 7.19257 60.6199 7.71948 60.5794 8.28693C60.5388 8.85437 60.5034 9.42689 60.473 10.0045C60.4426 10.5719 60.4172 11.1343 60.397 11.6916C60.3767 12.2388 60.3615 12.7404 60.3514 13.1964C60.7668 12.2945 61.3191 11.5903 62.0081 11.0836C62.7073 10.5668 63.5888 10.3085 64.6528 10.3085C64.8859 10.3085 65.1797 10.3541 65.5344 10.4453C65.8992 10.5364 66.2792 10.7036 66.6743 10.9468C67.0797 11.19 67.4799 11.5244 67.8751 11.95C68.2804 12.3654 68.6401 12.9025 68.9543 13.5611C69.2785 14.2097 69.5369 14.995 69.7294 15.9171C69.9321 16.829 70.0334 17.9031 70.0334 19.1393C70.0334 20.9633 69.851 22.4934 69.4862 23.7296C69.1215 24.9557 68.6553 25.9436 68.0879 26.6935C67.5306 27.4332 66.9074 27.9601 66.2184 28.2742C65.5394 28.5985 64.8808 28.7606 64.2424 28.7606C63.7763 28.7606 63.3305 28.6289 62.9049 28.3654C62.4793 28.102 62.0942 27.7625 61.7497 27.347C61.4052 26.9316 61.1012 26.4604 60.8377 25.9335C60.5844 25.4066 60.3919 24.8746 60.2602 24.3376C60.2906 24.5503 60.3311 24.8645 60.3818 25.2799C60.4426 25.6852 60.5034 26.1058 60.5642 26.5415C60.625 26.9671 60.6858 27.3572 60.7465 27.7118C60.8175 28.0665 60.8833 28.2945 60.9441 28.3958C60.3058 28.2843 59.6573 28.2084 58.9986 28.1678C58.3501 28.1273 57.7421 28.107 57.1747 28.107C56.7592 28.107 56.3843 28.1121 56.0499 28.1222C55.7155 28.1324 55.4217 28.1476 55.1683 28.1678C54.8745 28.1881 54.611 28.2084 54.378 28.2286ZM60.5642 19.4585V20.3553C60.5642 20.6289 60.5794 20.9075 60.6098 21.1913C60.6402 21.475 60.706 21.7334 60.8073 21.9664C60.9188 22.1995 61.0759 22.392 61.2785 22.544C61.4812 22.6859 61.7548 22.7568 62.0993 22.7568C62.3425 22.7568 62.5502 22.6859 62.7225 22.544C62.8947 22.392 63.0366 22.1995 63.1481 21.9664C63.2595 21.7334 63.3507 21.4699 63.4217 21.1761C63.4926 20.8721 63.5432 20.5732 63.5736 20.2793C63.604 19.9854 63.6243 19.7017 63.6344 19.4281C63.6446 19.1545 63.6496 18.9265 63.6496 18.7442C63.6496 18.4706 63.6344 18.1007 63.604 17.6346C63.5838 17.1685 63.528 16.7125 63.4369 16.2666C63.3457 15.8107 63.2038 15.4205 63.0113 15.0963C62.8289 14.7619 62.5755 14.5947 62.2513 14.5947C62.0081 14.5947 61.7953 14.6859 61.6129 14.8683C61.4407 15.0507 61.2887 15.2888 61.1569 15.5827C61.0353 15.8664 60.934 16.1906 60.8529 16.5554C60.782 16.9101 60.7212 17.2698 60.6706 17.6346C60.63 17.9892 60.5996 18.3287 60.5794 18.653C60.5692 18.9772 60.5642 19.2457 60.5642 19.4585Z" fill="black"/>
<path d="M80.338 5.82462C79.9935 7.74988 79.7605 9.56368 79.6389 11.266C79.5274 12.9582 79.4717 14.5896 79.4717 16.1602C79.9986 14.995 80.5154 13.7891 81.022 12.5428C81.5388 11.2863 82.0454 9.97913 82.542 8.62132C83.0587 10.121 83.5755 11.5143 84.0923 12.8012C84.6091 14.0881 85.1715 15.3192 85.7794 16.4946V15.0963C85.7794 13.5155 85.7035 11.9601 85.5515 10.4301C85.4096 8.89997 85.1664 7.44589 84.8219 6.06781C84.8624 6.09821 84.984 6.13874 85.1867 6.1894C85.3893 6.22993 85.6528 6.27047 85.977 6.311C86.3114 6.3414 86.6965 6.3718 87.1322 6.4022C87.5679 6.43259 88.0442 6.44779 88.5609 6.44779C89.3513 6.44779 90.2025 6.4022 91.1145 6.311C92.0366 6.2198 92.9587 6.05767 93.8808 5.82462C93.6578 6.27047 93.445 6.87338 93.2424 7.63335C93.0397 8.38319 92.8472 9.23943 92.6648 10.2021C92.4925 11.1647 92.3355 12.2135 92.1936 13.3483C92.0518 14.4832 91.9302 15.6587 91.8288 16.8746C91.7275 18.0804 91.6464 19.3015 91.5856 20.5377C91.535 21.7739 91.5096 22.9797 91.5096 24.1552C91.5096 24.905 91.5198 25.6295 91.54 26.3287C91.5704 27.0177 91.611 27.6814 91.6616 28.3198C90.6483 28.1476 89.7465 28.031 88.9561 27.9702C88.1658 27.8993 87.4717 27.8638 86.8738 27.8638C86.4888 27.8638 86.1493 27.874 85.8554 27.8942C85.5616 27.9145 85.3133 27.9348 85.1107 27.955C84.8776 27.9854 84.675 28.0158 84.5027 28.0462C84.3811 27.1444 84.2544 26.2628 84.1227 25.4015C83.991 24.5402 83.839 23.7194 83.6667 22.9392C83.4945 22.1488 83.2969 21.4091 83.0739 20.7201C82.851 20.0209 82.5825 19.3825 82.2684 18.805C82.0353 19.4636 81.8327 20.1425 81.6604 20.8417C81.4983 21.5409 81.3615 22.2806 81.25 23.0608C81.1385 23.841 81.0575 24.6669 81.0068 25.5383C80.9562 26.4097 80.9308 27.3369 80.9308 28.3198C79.9175 28.1476 79.0056 28.031 78.1949 27.9702C77.3944 27.8993 76.7054 27.8638 76.1278 27.8638C75.7326 27.8638 75.3881 27.874 75.0942 27.8942C74.8004 27.9145 74.5521 27.9348 74.3495 27.955C74.1164 27.9854 73.9239 28.0158 73.7719 28.0462C73.8327 26.9215 73.8631 25.741 73.8631 24.5048C73.8631 23.3496 73.8377 22.1742 73.7871 20.9785C73.7364 19.7828 73.6604 18.6023 73.5591 17.437C73.4578 16.2616 73.3311 15.1166 73.1791 14.0019C73.0372 12.8873 72.87 11.8436 72.6775 10.8708C72.4951 9.88794 72.2823 8.99117 72.0391 8.18053C71.8061 7.35976 71.5528 6.65552 71.2792 6.06781C71.573 6.14887 71.9175 6.21474 72.3127 6.2654C72.6471 6.31606 73.0474 6.36166 73.5135 6.4022C73.9897 6.43259 74.5217 6.44779 75.1094 6.44779C75.839 6.44779 76.6446 6.4022 77.5261 6.311C78.4178 6.2198 79.3551 6.05767 80.338 5.82462Z" fill="black"/>
<path d="M102.544 27.955C102.372 27.9449 102.169 27.9297 101.936 27.9094C101.733 27.8993 101.495 27.8892 101.221 27.879C100.948 27.8689 100.634 27.8638 100.279 27.8638C99.6205 27.8638 98.8605 27.8942 97.9992 27.955C97.1379 28.0057 96.2057 28.107 95.2025 28.259C95.395 27.874 95.5572 27.3926 95.6889 26.8151C95.8206 26.2274 95.927 25.6042 96.0081 24.9455C96.0993 24.2768 96.1651 23.6029 96.2057 22.924C96.2563 22.2451 96.2918 21.6219 96.3121 21.0545C96.3323 20.487 96.3425 20.0057 96.3425 19.6105C96.3526 19.2153 96.3577 18.9671 96.3577 18.8658C96.3374 17.5485 96.2918 16.3173 96.2209 15.1723C96.1905 14.6859 96.1499 14.1945 96.0993 13.6979C96.0587 13.2014 96.0081 12.7353 95.9473 12.2996C95.8865 11.8537 95.8156 11.4585 95.7345 11.114C95.6636 10.7594 95.5774 10.4807 95.4761 10.2781C96.2969 10.4199 97.0568 10.5162 97.756 10.5668C98.4552 10.6175 99.0885 10.6428 99.6559 10.6428C100.021 10.6428 100.345 10.6378 100.629 10.6276C100.923 10.6074 101.171 10.5871 101.373 10.5668C101.617 10.5466 101.829 10.5212 102.012 10.4908C101.829 11.4028 101.677 12.5022 101.556 13.7891C101.444 15.076 101.389 16.4541 101.389 17.9234C101.389 18.7644 101.409 19.6156 101.449 20.4769C101.49 21.3382 101.556 22.1995 101.647 23.0608C101.738 23.912 101.855 24.753 101.997 25.5839C102.149 26.4047 102.331 27.1951 102.544 27.955ZM95.5673 6.2198C95.5673 5.75368 95.6534 5.31797 95.8257 4.91265C96.0081 4.4972 96.2513 4.13748 96.5553 3.83349C96.8694 3.51936 97.2342 3.27617 97.6496 3.10391C98.0651 2.92152 98.5059 2.83032 98.972 2.83032C99.4381 2.83032 99.8738 2.92152 100.279 3.10391C100.695 3.27617 101.054 3.51936 101.358 3.83349C101.672 4.13748 101.916 4.4972 102.088 4.91265C102.27 5.31797 102.361 5.75368 102.361 6.2198C102.361 6.68592 102.27 7.1267 102.088 7.54215C101.916 7.95761 101.672 8.32239 101.358 8.63652C101.054 8.9405 100.695 9.1837 100.279 9.36609C99.8738 9.53835 99.4381 9.62448 98.972 9.62448C98.5059 9.62448 98.0651 9.53835 97.6496 9.36609C97.2342 9.1837 96.8694 8.9405 96.5553 8.63652C96.2513 8.32239 96.0081 7.95761 95.8257 7.54215C95.6534 7.1267 95.5673 6.68592 95.5673 6.2198Z" fill="black"/>
<path d="M116.907 10.2781C116.704 10.9975 116.405 11.7777 116.01 12.6188C115.615 13.4598 115.174 14.3768 114.688 15.3699C114.211 16.3528 113.71 17.4066 113.183 18.5314C112.656 19.6561 112.164 20.8569 111.709 22.1336C112.114 22.1336 112.529 22.083 112.955 21.9816C113.391 21.8702 113.826 21.703 114.262 21.4801C114.708 21.247 115.149 20.9531 115.584 20.5985C116.03 20.2337 116.461 19.7929 116.876 19.2761C116.836 19.5903 116.795 19.95 116.755 20.3553C116.724 20.7606 116.694 21.1913 116.664 21.6473C116.633 22.0931 116.608 22.5592 116.588 23.0456C116.577 23.5219 116.572 23.9981 116.572 24.4744C116.572 25.2039 116.593 25.9031 116.633 26.5719C116.684 27.2305 116.765 27.7929 116.876 28.259C115.843 28.107 114.784 27.9956 113.7 27.9246C112.615 27.8436 111.506 27.803 110.371 27.803C109.216 27.803 108.071 27.8436 106.936 27.9246C105.811 28.0057 104.717 28.1172 103.653 28.259C104.17 27.0127 104.707 25.7815 105.264 24.5655C105.831 23.3395 106.384 22.1488 106.921 20.9937C107.468 19.8385 107.99 18.729 108.486 17.665C108.983 16.601 109.424 15.5979 109.809 14.6555C109.292 14.6859 108.805 14.7467 108.349 14.8379C107.904 14.9291 107.463 15.0507 107.027 15.2027C106.601 15.3547 106.166 15.5421 105.72 15.7651C105.274 15.9779 104.803 16.221 104.306 16.4946C104.641 15.2787 104.808 14.0577 104.808 12.8316C104.808 12.406 104.793 11.9956 104.762 11.6004C104.732 11.1951 104.681 10.805 104.61 10.4301C105.502 10.5415 106.394 10.6226 107.285 10.6732C108.187 10.7138 109.094 10.734 110.006 10.734C111.161 10.734 112.316 10.6986 113.472 10.6276C114.627 10.5466 115.772 10.4301 116.907 10.2781Z" fill="black"/>
<path d="M134.507 28.2286C134.315 28.2084 134.092 28.1881 133.838 28.1678C133.626 28.1476 133.367 28.1324 133.063 28.1222C132.769 28.1121 132.445 28.107 132.09 28.107C131.584 28.107 131.026 28.1273 130.418 28.1678C129.821 28.2084 129.202 28.2843 128.564 28.3958L128.625 24.1248C128.24 25.6346 127.672 26.7999 126.923 27.6206C126.183 28.4414 125.311 28.8518 124.308 28.8518C123.994 28.8518 123.639 28.8113 123.244 28.7302C122.849 28.6491 122.444 28.4921 122.028 28.259C121.623 28.0361 121.223 27.722 120.828 27.3167C120.443 26.9113 120.098 26.3895 119.794 25.7511C119.49 25.1026 119.247 24.3224 119.064 23.4104C118.882 22.4883 118.791 21.399 118.791 20.1425C118.791 18.4402 118.963 16.9861 119.308 15.7803C119.652 14.5643 120.093 13.5713 120.63 12.8012C121.167 12.0311 121.76 11.4687 122.408 11.114C123.057 10.7594 123.69 10.582 124.308 10.582C124.835 10.582 125.311 10.658 125.737 10.81C126.173 10.9519 126.558 11.1394 126.892 11.3724C127.227 11.5953 127.515 11.8487 127.759 12.1324C128.002 12.4161 128.199 12.6998 128.351 12.9836C128.321 12.639 128.275 12.2743 128.215 11.8892C128.154 11.494 128.083 11.0887 128.002 10.6732C128.66 10.805 129.329 10.8911 130.008 10.9316C130.687 10.9722 131.315 10.9924 131.893 10.9924C132.582 10.9924 133.139 10.9772 133.565 10.9468C133.808 10.9367 134.031 10.9215 134.234 10.9012C134.122 11.4079 134.021 11.9753 133.93 12.6036C133.838 13.2318 133.757 13.9057 133.686 14.6251C133.626 15.3344 133.575 16.0843 133.534 16.8746C133.504 17.6549 133.489 18.4554 133.489 19.2761C133.489 20.8062 133.565 22.3414 133.717 23.8816C133.869 25.4218 134.132 26.8708 134.507 28.2286ZM128.26 19.5193V17.057C128.26 16.7834 128.245 16.5048 128.215 16.221C128.184 15.9373 128.113 15.6789 128.002 15.4459C127.9 15.2128 127.748 15.0254 127.546 14.8835C127.343 14.7315 127.069 14.6555 126.725 14.6555C126.36 14.6555 126.056 14.7822 125.813 15.0355C125.58 15.2888 125.387 15.6384 125.235 16.0843C125.094 16.52 124.992 17.0418 124.931 17.6498C124.881 18.2476 124.855 18.9012 124.855 19.6105C124.855 20.0158 124.881 20.4262 124.931 20.8417C124.992 21.2571 125.088 21.6371 125.22 21.9816C125.352 22.316 125.529 22.5896 125.752 22.8024C125.975 23.0152 126.249 23.1216 126.573 23.1216C126.938 23.1216 127.232 22.9949 127.455 22.7416C127.677 22.4883 127.845 22.1742 127.956 21.7992C128.078 21.4243 128.159 21.0342 128.199 20.6289C128.24 20.2134 128.26 19.8436 128.26 19.5193Z" fill="black"/>
<path d="M144.66 14.2299C144.346 14.2299 144.062 14.3211 143.809 14.5035C143.555 14.6758 143.327 14.924 143.125 15.2483C142.932 15.5624 142.76 15.9424 142.608 16.3882C142.466 16.8341 142.349 17.3255 142.258 17.8626C142.258 18.7239 142.278 19.5953 142.319 20.4769C142.36 21.3585 142.425 22.2299 142.517 23.0912C142.608 23.9525 142.724 24.7935 142.866 25.6143C143.018 26.4351 143.201 27.2153 143.413 27.955C143.251 27.9449 143.064 27.9297 142.851 27.9094C142.669 27.8993 142.446 27.8892 142.182 27.879C141.929 27.8689 141.635 27.8638 141.301 27.8638C140.672 27.8638 139.943 27.8942 139.112 27.955C138.291 28.0057 137.379 28.107 136.376 28.259C136.498 27.6916 136.604 26.9975 136.695 26.1767C136.786 25.3559 136.862 24.4642 136.923 23.5016C136.984 22.539 137.03 21.5358 137.06 20.4921C137.101 19.4383 137.121 18.3996 137.121 17.3762C137.121 16.6162 137.111 15.8715 137.09 15.1419C137.07 14.4123 137.04 13.7233 136.999 13.0748C136.969 12.4262 136.923 11.8284 136.862 11.2812C136.802 10.734 136.731 10.2629 136.65 9.86767C137.47 10.0095 138.215 10.1109 138.884 10.1717C139.563 10.2223 140.171 10.2477 140.708 10.2477C141.052 10.2477 141.356 10.2426 141.62 10.2325C141.883 10.2122 142.111 10.1919 142.304 10.1717C142.517 10.1413 142.709 10.1109 142.881 10.0805C142.76 10.5871 142.669 11.1495 142.608 11.7676C143.135 11.1292 143.707 10.658 144.325 10.3541C144.954 10.0501 145.541 9.89807 146.088 9.89807C147 9.89807 147.771 10.0653 148.399 10.3997C149.027 10.7239 149.534 11.1546 149.919 11.6916C150.304 12.2185 150.582 12.8214 150.755 13.5003C150.927 14.1793 151.013 14.8683 151.013 15.5675C151.013 16.2464 150.917 16.9101 150.724 17.5586C150.532 18.2071 150.253 18.7898 149.888 19.3065C149.524 19.8132 149.073 20.2236 148.536 20.5377C147.999 20.8518 147.391 21.0089 146.712 21.0089C146.114 21.0089 145.602 20.9075 145.177 20.7049C144.761 20.5022 144.417 20.2388 144.143 19.9145C143.869 19.5903 143.667 19.2356 143.535 18.8506C143.413 18.4554 143.353 18.0652 143.353 17.6802C143.353 17.2749 143.408 16.8797 143.52 16.4946C143.641 16.1096 143.814 15.76 144.037 15.4459C144.107 15.6688 144.194 15.8411 144.295 15.9627C144.406 16.0741 144.518 16.1552 144.629 16.2058C144.751 16.2666 144.883 16.3021 145.025 16.3122C145.399 16.3122 145.678 16.2261 145.86 16.0539C146.053 15.8816 146.149 15.6789 146.149 15.4459C146.149 15.3344 146.129 15.2077 146.088 15.0659C146.048 14.924 145.972 14.7923 145.86 14.6707C145.759 14.5491 145.612 14.4478 145.42 14.3667C145.227 14.2755 144.974 14.2299 144.66 14.2299Z" fill="black"/>
<path d="M168.066 28.2286C167.833 28.2084 167.57 28.1881 167.276 28.1678C167.023 28.1476 166.724 28.1324 166.379 28.1222C166.045 28.1121 165.675 28.107 165.27 28.107C164.692 28.107 164.079 28.1273 163.43 28.1678C162.782 28.2084 162.138 28.2843 161.5 28.3958C161.561 28.2742 161.627 28.0209 161.698 27.6358C161.769 27.2508 161.835 26.8252 161.895 26.3591C161.966 25.893 162.027 25.4319 162.078 24.9759C162.138 24.52 162.184 24.1653 162.214 23.912C162.052 24.6719 161.824 25.3661 161.531 25.9943C161.247 26.6124 160.912 27.1444 160.527 27.5902C160.142 28.026 159.712 28.3654 159.235 28.6086C158.759 28.8518 158.258 28.9734 157.731 28.9734C157.487 28.9734 157.189 28.9582 156.834 28.9278C156.479 28.8974 156.099 28.7961 155.694 28.6238C155.299 28.4515 154.898 28.1881 154.493 27.8334C154.098 27.4686 153.738 26.962 153.414 26.3135C153.1 25.6548 152.841 24.8239 152.639 23.8208C152.446 22.8176 152.35 21.5915 152.35 20.1425C152.35 18.9265 152.436 17.8423 152.608 16.8898C152.791 15.9272 153.029 15.0811 153.323 14.3515C153.627 13.6219 153.976 13.0038 154.372 12.4972C154.777 11.9804 155.197 11.5599 155.633 11.2356C156.079 10.9114 156.53 10.6783 156.986 10.5364C157.452 10.3845 157.898 10.3085 158.323 10.3085C158.8 10.3085 159.23 10.3895 159.615 10.5516C160 10.7036 160.35 10.9063 160.664 11.1596C160.978 11.4028 161.252 11.6865 161.485 12.0108C161.718 12.3249 161.921 12.639 162.093 12.9532C162.073 12.487 162.052 11.9804 162.032 11.4332C162.012 10.886 161.987 10.3338 161.956 9.77648C161.926 9.21916 161.885 8.67198 161.835 8.13493C161.794 7.58775 161.743 7.0811 161.683 6.61499C161.632 6.14887 161.571 5.73849 161.5 5.38383C161.429 5.02918 161.348 4.76065 161.257 4.57826C162.068 4.72012 162.822 4.81638 163.522 4.86705C164.221 4.91771 164.854 4.94305 165.422 4.94305C165.786 4.94305 166.116 4.93798 166.41 4.92785C166.703 4.90758 166.952 4.88732 167.154 4.86705C167.398 4.84678 167.61 4.82145 167.793 4.79105C167.681 5.2977 167.58 5.96141 167.489 6.78218C167.398 7.59282 167.316 8.50985 167.246 9.53328C167.185 10.5567 167.134 11.6561 167.094 12.8316C167.063 13.9969 167.048 15.1875 167.048 16.4034C167.048 17.5282 167.063 18.6479 167.094 19.7625C167.134 20.8771 167.195 21.9512 167.276 22.9848C167.357 24.0082 167.463 24.9709 167.595 25.8727C167.727 26.7644 167.884 27.5497 168.066 28.2286ZM161.819 19.5193V17.057C161.819 16.7834 161.804 16.5048 161.774 16.221C161.743 15.9373 161.672 15.6789 161.561 15.4459C161.46 15.2128 161.308 15.0254 161.105 14.8835C160.902 14.7315 160.629 14.6555 160.284 14.6555C160.041 14.6555 159.833 14.7518 159.661 14.9443C159.489 15.1368 159.347 15.3851 159.235 15.6891C159.124 15.9931 159.033 16.3325 158.962 16.7074C158.891 17.0823 158.84 17.4573 158.81 17.8322C158.779 18.197 158.759 18.5415 158.749 18.8658C158.739 19.1799 158.734 19.4281 158.734 19.6105C158.734 19.8841 158.744 20.2236 158.764 20.6289C158.795 21.0241 158.855 21.4091 158.947 21.784C159.038 22.1488 159.175 22.463 159.357 22.7264C159.55 22.9899 159.808 23.1216 160.132 23.1216C160.497 23.1216 160.791 22.9949 161.014 22.7416C161.237 22.4883 161.404 22.1742 161.515 21.7992C161.637 21.4243 161.718 21.0342 161.759 20.6289C161.799 20.2134 161.819 19.8436 161.819 19.5193Z" fill="black"/>
<path d="M3.55974 28.0157L24.5715 6.74456L21.718 3.89111L0.706299 25.1623L3.55974 28.0157Z" fill="black" stroke="black" stroke-linecap="round" stroke-linejoin="round"/>
<path d="M19.124 12.2593L24.5715 6.74456L21.7181 3.89111L16.2706 9.40585L19.124 12.2593Z" fill="white" stroke="black" stroke-linecap="round" stroke-linejoin="round"/>
<path d="M7.71021 0C7.71021 1.85755 8.44812 3.63903 9.76161 4.95251C11.0751 6.266 12.8566 7.00391 14.7141 7.00391C12.8566 7.00391 11.0751 7.74182 9.76161 9.05531C8.44812 10.3688 7.71021 12.1503 7.71021 14.0078C7.71021 12.1503 6.9723 10.3688 5.65881 9.05531C4.34532 7.74182 2.56385 7.00391 0.706299 7.00391C2.56385 7.00391 4.34532 6.266 5.65881 4.95251C6.9723 3.63903 7.71021 1.85755 7.71021 0Z" fill="black"/>
<path d="M26.3872 9.33887C26.3872 10.7836 26.9612 12.1692 27.9828 13.1908C29.0044 14.2124 30.39 14.7864 31.8347 14.7864C30.39 14.7864 29.0044 15.3603 27.9828 16.3819C26.9612 17.4035 26.3872 18.7891 26.3872 20.2338C26.3872 18.7891 25.8133 17.4035 24.7917 16.3819C23.7701 15.3603 22.3845 14.7864 20.9398 14.7864C22.3845 14.7864 23.7701 14.2124 24.7917 13.1908C25.8133 12.1692 26.3872 10.7836 26.3872 9.33887Z" fill="black"/>
<path d="M18.6052 17.1206C18.6052 18.1526 19.0151 19.1423 19.7448 19.872C20.4746 20.6017 21.4643 21.0117 22.4962 21.0117C21.4643 21.0117 20.4746 21.4216 19.7448 22.1513C19.0151 22.881 18.6052 23.8708 18.6052 24.9027C18.6052 23.8708 18.1952 22.881 17.4655 22.1513C16.7358 21.4216 15.7461 21.0117 14.7141 21.0117C15.7461 21.0117 16.7358 20.6017 17.4655 19.872C18.1952 19.1423 18.6052 18.1526 18.6052 17.1206Z" fill="black"/>
</svg>
