<svg width="140" height="27" viewBox="0 0 140 27" fill="none" xmlns="http://www.w3.org/2000/svg">
<path d="M51.3674 1.62759H50.4674V2.52759V7.18413C49.8034 7.12491 49.2871 7.09237 48.9386 7.09237C46.5125 7.09237 44.3997 8.00739 42.6415 9.789L42.6415 9.78898L42.6373 9.79331C40.9043 11.5731 40.0172 13.6918 40.0172 16.1096C40.0172 18.6071 40.9115 20.7559 42.682 22.5027L42.6819 22.5027L42.6863 22.507C44.4598 24.2332 46.6484 25.095 49.1943 25.095C51.7485 25.095 53.9074 24.2052 55.6003 22.4169L55.6044 22.4125C57.2967 20.6011 58.1157 18.2815 58.1157 15.5344V2.52759V1.62759H57.2157H51.3674ZM50.4576 15.7162C50.4177 16.4429 50.2614 16.8873 50.0784 17.1409C49.9051 17.381 49.6432 17.5426 49.1304 17.5426C48.7272 17.5426 48.4136 17.4118 48.1369 17.1351C47.8398 16.8379 47.7294 16.549 47.7294 16.2375C47.7294 15.821 47.8587 15.5223 48.105 15.276C48.395 14.986 48.6923 14.8685 49.0345 14.8685C49.2987 14.8685 49.5763 14.9608 49.8869 15.227L50.4576 15.7162ZM68.5521 15.0373L68.5666 15.0525L68.5817 15.0669C68.8687 15.3408 69.0062 15.6578 69.0062 16.0777C69.0062 16.4684 68.8736 16.7962 68.5667 17.1031C68.2962 17.3737 67.9747 17.5106 67.5413 17.5106C67.1147 17.5106 66.7783 17.3773 66.4842 17.1028C66.2041 16.8031 66.0764 16.4751 66.0764 16.0777C66.0764 15.6443 66.2134 15.3228 66.484 15.0523C66.7846 14.7517 67.1205 14.6128 67.5413 14.6128C67.9612 14.6128 68.2782 14.7504 68.5521 15.0373ZM94.4075 16.5928L94.4834 15.5872L93.4756 15.6258L87.6273 15.8495L86.9719 15.8745L86.7951 16.5061C86.6982 16.852 86.527 17.0869 86.2828 17.2579L86.2738 17.2641L86.265 17.2706C86.0177 17.4529 85.7474 17.5426 85.4247 17.5426C85.0401 17.5426 84.7165 17.4141 84.4137 17.1174C84.1211 16.7907 83.9918 16.4449 83.9918 16.0457C83.9918 15.6449 84.1217 15.3147 84.4068 15.0129C84.7115 14.7113 85.0371 14.5809 85.4247 14.5809C85.9426 14.5809 86.3082 14.7697 86.6082 15.1924L86.8879 15.5865L87.3709 15.5711L93.3789 15.3793L94.4456 15.3453L94.232 14.2997C93.7878 12.1252 92.7341 10.348 91.0682 9.01531C89.4185 7.69556 87.5268 7.02846 85.4247 7.02846C82.965 7.02846 80.8308 7.92598 79.0679 9.68889C77.6101 11.1466 76.7543 12.8762 76.5115 14.8478C76.2551 12.8995 75.377 11.1819 73.8982 9.7209C72.1371 7.93823 70.003 7.02846 67.5413 7.02846C65.0781 7.02846 62.9342 7.93919 61.1525 9.72085C59.3896 11.4838 58.4921 13.618 58.4921 16.0777C58.4921 18.5374 59.3896 20.6716 61.1525 22.4345C62.9173 24.1993 65.0629 25.095 67.5413 25.095C70.0198 25.095 72.1654 24.1993 73.9301 22.4345C75.3992 20.9654 76.2673 19.2385 76.5159 17.2802C76.7645 19.2392 77.618 20.9651 79.0636 22.4303L79.0679 22.4345C80.8308 24.1974 82.965 25.095 85.4247 25.095C87.7397 25.095 89.777 24.2955 91.4958 22.7189C93.2538 21.1262 94.221 19.0637 94.4075 16.5928ZM105.454 8.1202V7.38238L104.73 7.23768C104.038 7.09928 103.361 7.02846 102.7 7.02846C100.437 7.02846 98.5513 7.78162 97.1432 9.33797L97.1427 9.33854C95.7619 10.8672 95.121 12.9047 95.121 15.3427V23.8434V24.7434H96.021H101.869H102.769V23.8434V16.4612C102.769 15.7631 102.884 15.3461 103.016 15.1162C103.14 14.9322 103.24 14.9004 103.371 14.9004C103.521 14.9004 103.754 14.954 104.091 15.1557L104.516 15.4111C104.501 15.6305 104.494 15.8528 104.494 16.0777C104.494 18.5374 105.391 20.6716 107.154 22.4345C108.919 24.1993 111.065 25.095 113.543 25.095C116.022 25.095 118.167 24.1993 119.932 22.4345C121.695 20.6716 122.592 18.5374 122.592 16.0777C122.592 13.6161 121.683 11.482 119.9 9.7209C118.139 7.93823 116.005 7.02846 113.543 7.02846C111.08 7.02846 108.936 7.93919 107.154 9.72085C106.448 10.4274 105.88 11.1936 105.454 12.0165V8.1202ZM114.554 15.0373L114.568 15.0525L114.583 15.0669C114.87 15.3408 115.008 15.6578 115.008 16.0777C115.008 16.4684 114.875 16.7962 114.568 17.1031C114.298 17.3737 113.976 17.5106 113.543 17.5106C113.116 17.5106 112.78 17.3773 112.486 17.1028C112.206 16.8031 112.078 16.4751 112.078 16.0777C112.078 15.6443 112.215 15.3228 112.486 15.0523C112.786 14.7517 113.122 14.6128 113.543 14.6128C113.963 14.6128 114.28 14.7504 114.554 15.0373ZM130.888 2.52759V1.62759H129.988H124.14H123.24V2.52759V23.8434V24.7434H124.14H129.988H130.888V23.8434V2.52759ZM139.057 2.52759V1.62759H138.157H132.311H131.411V2.52759V23.8434V24.7434H132.311H138.157H139.057V23.8434V2.52759Z" stroke="black" stroke-width="1.8"/>
<path d="M1.02686 22.5118C1.02686 23.3358 1.3542 24.1261 1.93688 24.7088C2.51955 25.2915 3.30983 25.6188 4.13386 25.6188C4.95789 25.6188 5.74817 25.2915 6.33085 24.7088C6.91353 24.1261 7.24087 23.3358 7.24087 22.5118C7.24087 21.6878 6.91353 20.8975 6.33085 20.3148C5.74817 19.7321 4.95789 19.4048 4.13386 19.4048C3.30983 19.4048 2.51955 19.7321 1.93688 20.3148C1.3542 20.8975 1.02686 21.6878 1.02686 22.5118Z" stroke="black" stroke-width="1.5" stroke-linecap="round" stroke-linejoin="round"/>
<path d="M7.24087 22.5117V3.8697C7.24087 3.04567 6.91353 2.25539 6.33085 1.67272C5.74817 1.09004 4.95789 0.762695 4.13386 0.762695C3.30983 0.762695 2.51955 1.09004 1.93688 1.67272C1.3542 2.25539 1.02686 3.04567 1.02686 3.8697V22.5117" stroke="black" stroke-width="1.5" stroke-linecap="round" stroke-linejoin="round"/>
<path fill-rule="evenodd" clip-rule="evenodd" d="M28.1022 3.86963H7.24087L7.13123 25.6187H28.1022C28.9262 25.6187 29.7165 25.2913 30.2992 24.7087C30.8819 24.126 31.2092 23.3357 31.2092 22.5117V6.97664C31.2092 6.15261 30.8819 5.36233 30.2992 4.77965C29.7165 4.19697 28.9262 3.86963 28.1022 3.86963ZM14.7864 10.5746C14.7864 9.96033 15.45 9.57524 15.9833 9.87999L22.8919 13.8277C23.4293 14.1349 23.4293 14.9098 22.8919 15.2169L15.9833 19.1647C15.45 19.4694 14.7864 19.0844 14.7864 18.4701V10.5746Z" fill="#B7CAFD"/>
<path d="M7.24087 3.86963V3.11963C6.82813 3.11963 6.49296 3.45312 6.49088 3.86585L7.24087 3.86963ZM7.13123 25.6187L6.38124 25.6149C6.38023 25.8145 6.4588 26.0062 6.59956 26.1477C6.74032 26.2891 6.93166 26.3687 7.13123 26.3687V25.6187ZM30.2992 4.77965L29.7689 5.30998L29.7689 5.30998L30.2992 4.77965ZM15.9833 9.87999L16.3554 9.22881L16.3554 9.22881L15.9833 9.87999ZM22.8919 13.8277L23.264 13.1766L23.264 13.1766L22.8919 13.8277ZM22.8919 15.2169L22.5198 14.5658L22.5198 14.5658L22.8919 15.2169ZM15.9833 19.1647L15.6112 18.5135L15.6112 18.5135L15.9833 19.1647ZM7.24087 4.61963H28.1022V3.11963H7.24087V4.61963ZM7.88122 25.6225L7.99086 3.87341L6.49088 3.86585L6.38124 25.6149L7.88122 25.6225ZM28.1022 24.8687H7.13123V26.3687H28.1022V24.8687ZM29.7689 24.1783C29.3268 24.6204 28.7273 24.8687 28.1022 24.8687V26.3687C29.1251 26.3687 30.1062 25.9623 30.8295 25.239L29.7689 24.1783ZM30.4592 22.5117C30.4592 23.1368 30.2109 23.7363 29.7689 24.1783L30.8295 25.239C31.5528 24.5157 31.9592 23.5346 31.9592 22.5117H30.4592ZM30.4592 6.97664V22.5117H31.9592V6.97664H30.4592ZM29.7689 5.30998C30.2109 5.75201 30.4592 6.35152 30.4592 6.97664H31.9592C31.9592 5.95369 31.5528 4.97265 30.8295 4.24932L29.7689 5.30998ZM28.1022 4.61963C28.7273 4.61963 29.3268 4.86796 29.7689 5.30998L30.8295 4.24932C30.1062 3.52599 29.1251 3.11963 28.1022 3.11963V4.61963ZM16.3554 9.22881C15.3221 8.63834 14.0364 9.38446 14.0364 10.5746H15.5364C15.5364 10.5592 15.5397 10.5529 15.5417 10.5496C15.5449 10.5443 15.5512 10.5372 15.5613 10.5313C15.5714 10.5255 15.5807 10.5235 15.5868 10.5234C15.5907 10.5233 15.5978 10.5236 15.6112 10.5312L16.3554 9.22881ZM23.264 13.1766L16.3554 9.22881L15.6112 10.5312L22.5198 14.4789L23.264 13.1766ZM23.264 15.8681C24.3053 15.2731 24.3053 13.7716 23.264 13.1766L22.5198 14.4789C22.5333 14.4867 22.5371 14.4928 22.5389 14.4961C22.5419 14.5014 22.5449 14.5105 22.5449 14.5223C22.5449 14.5342 22.5419 14.5433 22.5389 14.5486C22.5371 14.5519 22.5333 14.558 22.5198 14.5658L23.264 15.8681ZM16.3554 19.8159L23.264 15.8681L22.5198 14.5658L15.6112 18.5135L16.3554 19.8159ZM14.0364 18.4701C14.0364 19.6602 15.3221 20.4063 16.3554 19.8159L15.6112 18.5135C15.5978 18.5211 15.5907 18.5214 15.5868 18.5213C15.5807 18.5211 15.5714 18.5192 15.5613 18.5133C15.5512 18.5075 15.5449 18.5004 15.5417 18.4951C15.5397 18.4918 15.5364 18.4855 15.5364 18.4701H14.0364ZM14.0364 10.5746V18.4701H15.5364V10.5746H14.0364Z" fill="black"/>
</svg>
