<svg width="140" height="27" viewBox="0 0 140 27" fill="none" xmlns="http://www.w3.org/2000/svg">
<path d="M51.3674 1.86489H50.4674V2.76489V7.42144C49.8034 7.36221 49.2871 7.32968 48.9386 7.32968C46.5125 7.32968 44.3997 8.24469 42.6415 10.0263L42.6415 10.0263L42.6373 10.0306C40.9043 11.8104 40.0172 13.9291 40.0172 16.347C40.0172 18.8444 40.9115 20.9932 42.682 22.74L42.6819 22.74L42.6863 22.7443C44.4598 24.4705 46.6484 25.3323 49.1943 25.3323C51.7485 25.3323 53.9074 24.4425 55.6003 22.6542L55.6044 22.6498C57.2967 20.8384 58.1157 18.5188 58.1157 15.7717V2.76489V1.86489H57.2157H51.3674ZM50.4576 15.9535C50.4177 16.6802 50.2614 17.1246 50.0784 17.3782C49.9051 17.6183 49.6432 17.7799 49.1304 17.7799C48.7272 17.7799 48.4136 17.6491 48.1369 17.3724C47.8398 17.0752 47.7294 16.7863 47.7294 16.4748C47.7294 16.0583 47.8587 15.7596 48.105 15.5133C48.395 15.2233 48.6923 15.1058 49.0345 15.1058C49.2987 15.1058 49.5763 15.1981 49.8869 15.4644L50.4576 15.9535ZM68.5521 15.2746L68.5666 15.2898L68.5817 15.3042C68.8687 15.5781 69.0062 15.8951 69.0062 16.315C69.0062 16.7058 68.8736 17.0335 68.5667 17.3404C68.2962 17.611 67.9747 17.7479 67.5413 17.7479C67.1147 17.7479 66.7783 17.6146 66.4842 17.3401C66.2041 17.0404 66.0764 16.7124 66.0764 16.315C66.0764 15.8816 66.2134 15.5601 66.484 15.2896C66.7846 14.989 67.1205 14.8501 67.5413 14.8501C67.9612 14.8501 68.2782 14.9877 68.5521 15.2746ZM94.4075 16.8301L94.4834 15.8245L93.4756 15.8631L87.6273 16.0868L86.9719 16.1118L86.7951 16.7434C86.6982 17.0893 86.527 17.3242 86.2828 17.4952L86.2738 17.5014L86.265 17.5079C86.0177 17.6902 85.7474 17.7799 85.4247 17.7799C85.0401 17.7799 84.7165 17.6514 84.4137 17.3547C84.1211 17.028 83.9918 16.6822 83.9918 16.283C83.9918 15.8822 84.1217 15.552 84.4068 15.2502C84.7115 14.9486 85.0371 14.8182 85.4247 14.8182C85.9426 14.8182 86.3082 15.007 86.6082 15.4297L86.8879 15.8238L87.3709 15.8084L93.3789 15.6166L94.4456 15.5826L94.232 14.537C93.7878 12.3625 92.7341 10.5853 91.0682 9.25261C89.4185 7.93286 87.5268 7.26576 85.4247 7.26576C82.965 7.26576 80.8308 8.16329 79.0679 9.9262C77.6101 11.3839 76.7543 13.1135 76.5115 15.0852C76.2551 13.1368 75.377 11.4192 73.8982 9.9582C72.1371 8.17553 70.003 7.26576 67.5413 7.26576C65.0781 7.26576 62.9342 8.17649 61.1525 9.95816C59.3896 11.7211 58.4921 13.8553 58.4921 16.315C58.4921 18.7747 59.3896 20.9089 61.1525 22.6718C62.9173 24.4366 65.0629 25.3323 67.5413 25.3323C70.0198 25.3323 72.1654 24.4366 73.9301 22.6718C75.3992 21.2027 76.2673 19.4758 76.5159 17.5175C76.7645 19.4765 77.618 21.2024 79.0636 22.6676L79.0679 22.6718C80.8308 24.4347 82.965 25.3323 85.4247 25.3323C87.7397 25.3323 89.777 24.5328 91.4958 22.9562C93.2538 21.3635 94.221 19.301 94.4075 16.8301ZM105.454 8.35751V7.61968L104.73 7.47498C104.038 7.33659 103.361 7.26576 102.7 7.26576C100.437 7.26576 98.5513 8.01892 97.1432 9.57528L97.1427 9.57584C95.7619 11.1045 95.121 13.142 95.121 15.58V24.0807V24.9807H96.021H101.869H102.769V24.0807V16.6985C102.769 16.0004 102.884 15.5834 103.016 15.3535C103.14 15.1695 103.24 15.1377 103.371 15.1377C103.521 15.1377 103.754 15.1913 104.091 15.393L104.516 15.6484C104.501 15.8678 104.494 16.0901 104.494 16.315C104.494 18.7747 105.391 20.9089 107.154 22.6718C108.919 24.4366 111.065 25.3323 113.543 25.3323C116.022 25.3323 118.167 24.4366 119.932 22.6718C121.695 20.9089 122.592 18.7747 122.592 16.315C122.592 13.8534 121.683 11.7193 119.9 9.9582C118.139 8.17553 116.005 7.26576 113.543 7.26576C111.08 7.26576 108.936 8.17649 107.154 9.95816C106.448 10.6647 105.88 11.4309 105.454 12.2538V8.35751ZM114.554 15.2746L114.568 15.2898L114.583 15.3042C114.87 15.5781 115.008 15.8951 115.008 16.315C115.008 16.7058 114.875 17.0335 114.568 17.3404C114.298 17.611 113.976 17.7479 113.543 17.7479C113.116 17.7479 112.78 17.6146 112.486 17.3401C112.206 17.0404 112.078 16.7124 112.078 16.315C112.078 15.8816 112.215 15.5601 112.486 15.2896C112.786 14.989 113.122 14.8501 113.543 14.8501C113.963 14.8501 114.28 14.9877 114.554 15.2746ZM130.888 2.76489V1.86489H129.988H124.14H123.24V2.76489V24.0807V24.9807H124.14H129.988H130.888V24.0807V2.76489ZM139.057 2.76489V1.86489H138.157H132.311H131.411V2.76489V24.0807V24.9807H132.311H138.157H139.057V24.0807V2.76489Z" stroke="#B3B3B3" stroke-width="1.8"/>
<path d="M1.02686 22.7491C1.02686 23.5731 1.3542 24.3634 1.93688 24.9461C2.51955 25.5288 3.30983 25.8561 4.13386 25.8561C4.95789 25.8561 5.74817 25.5288 6.33085 24.9461C6.91353 24.3634 7.24087 23.5731 7.24087 22.7491C7.24087 21.9251 6.91353 21.1348 6.33085 20.5521C5.74817 19.9694 4.95789 19.6421 4.13386 19.6421C3.30983 19.6421 2.51955 19.9694 1.93688 20.5521C1.3542 21.1348 1.02686 21.9251 1.02686 22.7491Z" stroke="#B3B3B3" stroke-width="1.5" stroke-linecap="round" stroke-linejoin="round"/>
<path d="M7.24087 22.7491V4.10701C7.24087 3.28298 6.91353 2.4927 6.33085 1.91002C5.74817 1.32734 4.95789 1 4.13386 1C3.30983 1 2.51955 1.32734 1.93688 1.91002C1.3542 2.4927 1.02686 3.28298 1.02686 4.10701V22.7491" stroke="#B3B3B3" stroke-width="1.5" stroke-linecap="round" stroke-linejoin="round"/>
<path fill-rule="evenodd" clip-rule="evenodd" d="M28.1022 4.10693H7.24084L7.24087 25.856H28.1022C28.9262 25.856 29.7165 25.5286 30.2992 24.946C30.8818 24.3633 31.2092 23.573 31.2092 22.749V7.21394C31.2092 6.38991 30.8818 5.59963 30.2992 5.01695C29.7165 4.43428 28.9262 4.10693 28.1022 4.10693ZM14.7864 10.8119C14.7864 10.1976 15.4499 9.81254 15.9833 10.1173L22.8918 14.0651C23.4293 14.3722 23.4293 15.1471 22.8918 15.4542L15.9833 19.402C15.4499 19.7068 14.7864 19.3217 14.7864 18.7074V10.8119Z" fill="#B3B3B3"/>
<path d="M7.24084 4.10693V3.35693C7.04193 3.35693 6.85117 3.43595 6.71051 3.5766C6.56986 3.71726 6.49084 3.90802 6.49084 4.10693L7.24084 4.10693ZM7.24087 25.856L6.49087 25.856C6.49087 26.2702 6.82666 26.606 7.24087 26.606V25.856ZM30.2992 5.01695L29.7688 5.54728L29.7688 5.54728L30.2992 5.01695ZM15.9833 10.1173L16.3554 9.46612L16.3554 9.46612L15.9833 10.1173ZM22.8918 14.0651L23.2639 13.4139L23.2639 13.4139L22.8918 14.0651ZM22.8918 15.4542L23.2639 16.1054L23.2639 16.1054L22.8918 15.4542ZM15.9833 19.402L15.6112 18.7508L15.6112 18.7508L15.9833 19.402ZM7.24084 4.85693H28.1022V3.35693H7.24084V4.85693ZM7.99087 25.856L7.99084 4.10693L6.49084 4.10693L6.49087 25.856L7.99087 25.856ZM28.1022 25.106H7.24087V26.606H28.1022V25.106ZM29.7688 24.4156C29.3268 24.8577 28.7273 25.106 28.1022 25.106V26.606C29.1251 26.606 30.1062 26.1996 30.8295 25.4763L29.7688 24.4156ZM30.4592 22.749C30.4592 23.3741 30.2109 23.9736 29.7688 24.4156L30.8295 25.4763C31.5528 24.753 31.9592 23.7719 31.9592 22.749H30.4592ZM30.4592 7.21394V22.749H31.9592V7.21394H30.4592ZM29.7688 5.54728C30.2109 5.98931 30.4592 6.58882 30.4592 7.21394H31.9592C31.9592 6.191 31.5528 5.20995 30.8295 4.48663L29.7688 5.54728ZM28.1022 4.85693C28.7273 4.85693 29.3268 5.10526 29.7688 5.54728L30.8295 4.48663C30.1062 3.7633 29.1251 3.35693 28.1022 3.35693V4.85693ZM16.3554 9.46612C15.322 8.87565 14.0364 9.62177 14.0364 10.8119H15.5364C15.5364 10.7965 15.5397 10.7902 15.5417 10.7869C15.5449 10.7816 15.5511 10.7745 15.5613 10.7686C15.5714 10.7628 15.5807 10.7608 15.5868 10.7607C15.5907 10.7606 15.5978 10.7609 15.6112 10.7685L16.3554 9.46612ZM23.2639 13.4139L16.3554 9.46612L15.6112 10.7685L22.5197 14.7162L23.2639 13.4139ZM23.2639 16.1054C24.3053 15.5104 24.3052 14.0089 23.2639 13.4139L22.5197 14.7162C22.5333 14.724 22.5371 14.7301 22.5389 14.7334C22.5419 14.7387 22.5449 14.7478 22.5449 14.7596C22.5449 14.7715 22.5419 14.7806 22.5389 14.7859C22.5371 14.7892 22.5333 14.7953 22.5197 14.8031L23.2639 16.1054ZM16.3554 20.0532L23.2639 16.1054L22.5197 14.8031L15.6112 18.7508L16.3554 20.0532ZM14.0364 18.7074C14.0364 19.8975 15.322 20.6436 16.3554 20.0532L15.6112 18.7508C15.5978 18.7584 15.5907 18.7587 15.5868 18.7586C15.5807 18.7584 15.5714 18.7565 15.5613 18.7506C15.5511 18.7448 15.5449 18.7377 15.5417 18.7324C15.5397 18.7291 15.5364 18.7228 15.5364 18.7074H14.0364ZM14.0364 10.8119V18.7074H15.5364V10.8119H14.0364Z" fill="#B3B3B3"/>
</svg>
