<svg width="130" height="28" viewBox="0 0 130 28" fill="none" xmlns="http://www.w3.org/2000/svg">
<path d="M5.88016 27.2593L0.571682 27.5782L0 27.0999L3.34842 11.5175L0.490013 11.0791L0.775854 9.60454L9.10608 7.33292L9.88194 7.97057L9.14692 11.637C10.5625 10.3086 11.9781 9.27243 13.3937 8.52851C14.8093 7.75802 16.1704 7.37278 17.4771 7.37278C18.3483 7.37278 19.0833 7.65175 19.6822 8.20969C20.2811 8.76763 20.5806 9.60454 20.5806 10.7204C20.5806 11.2518 20.5261 11.8097 20.4172 12.3942C20.3356 12.9787 20.2131 13.5765 20.0497 14.1876L18.1305 21.7198C18.0216 22.0918 17.9263 22.4239 17.8447 22.7161C17.7902 22.9818 17.763 23.2209 17.763 23.4335C17.763 23.9648 17.9808 24.2305 18.4163 24.2305C19.1241 24.2305 20.1314 23.4069 21.4381 21.7597L22.6631 22.5567C22.1459 23.4335 21.4925 24.2837 20.7031 25.1073C19.9136 25.9044 19.0152 26.5686 18.008 27.0999C17.028 27.6047 15.9527 27.8571 14.7821 27.8571C13.802 27.8571 13.0398 27.6446 12.4953 27.2195C11.9781 26.7678 11.7195 26.1435 11.7195 25.3464C11.7195 24.7353 11.7875 24.111 11.9237 23.4733C12.087 22.8357 12.2503 22.2246 12.4137 21.6401L13.9245 15.6622C14.0879 15.0511 14.2104 14.4932 14.2921 13.9884C14.4009 13.457 14.4554 13.0319 14.4554 12.7131C14.4554 12.2614 14.3465 11.9426 14.1287 11.7566C13.9382 11.5706 13.6932 11.4776 13.3937 11.4776C12.7948 11.4776 12.087 11.6769 11.2703 12.0754C10.4808 12.4474 9.60971 13.0585 8.6569 13.9086L7.59521 18.7308C7.29575 20.139 7.00991 21.5604 6.73768 22.9951C6.46545 24.4032 6.17961 25.8246 5.88016 27.2593Z" fill="#B3B3B3"/>
<path d="M31.9242 27.8571C30.4542 27.8571 29.1203 27.5915 27.9225 27.0601C26.7247 26.5021 25.7719 25.6652 25.0641 24.5494C24.3563 23.4069 24.0024 21.9722 24.0024 20.2452C24.0024 18.5714 24.3018 16.9773 24.9007 15.4629C25.4996 13.9219 26.3299 12.5404 27.3916 11.3182C28.4805 10.0961 29.7464 9.13959 31.1892 8.4488C32.632 7.73145 34.211 7.37278 35.926 7.37278C37.4233 7.37278 38.7572 7.65175 39.9278 8.20969C41.0984 8.74106 42.024 9.56468 42.7045 10.6806C43.4123 11.7964 43.7662 13.2311 43.7662 14.9847C43.7662 16.6585 43.4668 18.2659 42.8679 19.8069C42.269 21.3213 41.4387 22.6896 40.377 23.9117C39.3153 25.1339 38.063 26.1036 36.6202 26.821C35.1774 27.5118 33.6121 27.8571 31.9242 27.8571ZM32.4143 25.7051C33.2037 25.7051 33.9251 25.3597 34.5785 24.6689C35.2591 23.9516 35.8443 23.0084 36.3344 21.8394C36.8244 20.6703 37.1919 19.3818 37.4369 17.9736C37.7091 16.5655 37.8452 15.1707 37.8452 13.7891C37.8452 12.1684 37.6138 11.0658 37.1511 10.4813C36.7155 9.87022 36.1302 9.56468 35.3952 9.56468C34.5785 9.56468 33.8298 9.92336 33.1493 10.6407C32.4959 11.3315 31.9242 12.2614 31.4342 13.4304C30.9442 14.5729 30.5631 15.8349 30.2909 17.2164C30.0459 18.598 29.9234 19.9663 29.9234 21.3213C29.9234 23.0217 30.1547 24.1774 30.6175 24.7885C31.1076 25.3995 31.7065 25.7051 32.4143 25.7051Z" fill="#B3B3B3"/>
<path d="M47.1638 21.1619L49.6139 10.282H46.5513L46.8779 8.3691L50.4714 7.93072L53.1664 2.51073H56.9232L55.739 8.01042H59.9858L59.5366 10.4813L55.249 10.3617L52.8398 21.6799C52.6764 22.4239 52.5948 22.9951 52.5948 23.3936C52.5948 23.9516 52.8398 24.2305 53.3298 24.2305C53.9559 24.2305 54.9359 23.4069 56.2699 21.7597L57.4949 22.5567C56.9777 23.46 56.3379 24.3235 55.5757 25.1471C54.8134 25.9442 53.9423 26.5951 52.9623 27.0999C51.9822 27.6047 50.9069 27.8571 49.7364 27.8571C48.8108 27.8571 48.0485 27.6313 47.4496 27.1796C46.8779 26.728 46.5921 26.0505 46.5921 25.1471C46.5921 24.5626 46.6465 23.925 46.7554 23.2342C46.8916 22.5169 47.0277 21.8261 47.1638 21.1619Z" fill="#B3B3B3"/>
<path d="M71.2507 9.56468C70.679 9.56468 70.0665 9.8038 69.4131 10.282C68.787 10.7337 68.1881 11.3713 67.6164 12.195C67.0447 13.0186 66.5547 13.9618 66.1464 15.0245C65.7653 16.0873 65.5475 17.2031 65.493 18.3722C67.3442 17.7345 68.8006 17.0305 69.8623 16.26C70.924 15.4629 71.6726 14.6526 72.1082 13.8289C72.5438 13.0053 72.7616 12.2348 72.7616 11.5175C72.7616 10.8533 72.6118 10.3617 72.3124 10.0429C72.0129 9.7241 71.659 9.56468 71.2507 9.56468ZM66.8814 27.8571C64.758 27.8571 63.0293 27.1929 61.6954 25.8645C60.3887 24.5361 59.7354 22.7028 59.7354 20.3648C59.7354 18.6378 60.0348 17.0039 60.6337 15.4629C61.2599 13.8954 62.1174 12.5138 63.2063 11.3182C64.2952 10.0961 65.5747 9.13959 67.0447 8.4488C68.5148 7.73145 70.1073 7.37278 71.8224 7.37278C73.6735 7.37278 75.0755 7.77131 76.0283 8.56836C77.0083 9.36542 77.4984 10.4016 77.4984 11.6769C77.4984 13.3507 76.5183 14.9183 74.5583 16.3795C72.6254 17.8142 69.6309 19.0231 65.5747 20.0061C65.7108 21.2814 66.1328 22.2246 66.8406 22.8357C67.5484 23.4468 68.4603 23.7523 69.5765 23.7523C70.7743 23.7523 71.836 23.46 72.7616 22.8755C73.6871 22.291 74.463 21.6135 75.0891 20.843L76.2325 21.6401C75.688 22.6497 74.953 23.6327 74.0274 24.5892C73.1291 25.5457 72.081 26.3294 70.8832 26.9405C69.6854 27.5516 68.3514 27.8571 66.8814 27.8571Z" fill="#B3B3B3"/>
<path d="M96.3103 27.8571C94.7314 27.8571 93.1933 27.5649 91.696 26.9804C90.1988 26.3693 88.8512 25.4793 87.6534 24.3102C86.4556 23.1412 85.5028 21.6932 84.795 19.9663C84.1144 18.2128 83.7741 16.1935 83.7741 13.9086C83.7741 11.73 84.128 9.77723 84.8358 8.05028C85.5436 6.32332 86.4828 4.86205 87.6534 3.66646C88.8512 2.47088 90.1988 1.56755 91.696 0.956468C93.1933 0.318823 94.7314 0 96.3103 0C97.8892 0 99.4137 0.305539 100.884 0.916616C102.381 1.50112 103.715 2.37789 104.886 3.5469C106.083 4.71592 107.036 6.16391 107.744 7.89086C108.452 9.61782 108.806 11.6237 108.806 13.9086C108.806 16.0873 108.452 18.0401 107.744 19.767C107.063 21.494 106.124 22.9685 104.926 24.1907C103.756 25.3863 102.422 26.3029 100.925 26.9405C99.4273 27.5516 97.8892 27.8571 96.3103 27.8571ZM96.3103 25.8645C97.7259 25.8645 98.9373 25.5324 99.9446 24.8682C100.979 24.1774 101.809 23.2741 102.435 22.1582C103.089 21.0157 103.565 19.7404 103.865 18.3323C104.164 16.8976 104.314 15.4231 104.314 13.9086C104.314 12.4208 104.164 10.9728 103.865 9.56468C103.565 8.12998 103.089 6.84141 102.435 5.69896C101.809 4.55651 100.979 3.65318 99.9446 2.98896C98.9373 2.32475 97.7259 1.99264 96.3103 1.99264C94.8947 1.99264 93.6697 2.32475 92.6352 2.98896C91.628 3.65318 90.7977 4.55651 90.1443 5.69896C89.491 6.84141 89.0009 8.12998 88.6743 9.56468C88.3748 10.9728 88.2251 12.4208 88.2251 13.9086C88.2251 15.4231 88.3748 16.8976 88.6743 18.3323C89.0009 19.7404 89.491 21.0157 90.1443 22.1582C90.7977 23.2741 91.628 24.1774 92.6352 24.8682C93.6697 25.5324 94.8947 25.8645 96.3103 25.8645Z" fill="#B3B3B3"/>
<path d="M120.322 27.8571C118.798 27.8571 117.328 27.6579 115.912 27.2593C114.497 26.8343 113.312 26.3294 112.36 25.7449L112.605 20.1655H115.136L115.953 24.8682C116.579 25.2136 117.219 25.466 117.872 25.6254C118.553 25.7848 119.329 25.8645 120.2 25.8645C122.133 25.8645 123.671 25.4527 124.814 24.6291C125.957 23.7789 126.529 22.5833 126.529 21.0423C126.529 19.767 126.121 18.784 125.304 18.0932C124.515 17.3758 123.249 16.6851 121.506 16.0208L119.914 15.3832C117.818 14.5861 116.116 13.5633 114.81 12.3145C113.53 11.0392 112.89 9.39199 112.89 7.37278C112.89 5.8318 113.285 4.51666 114.075 3.42734C114.891 2.33803 115.994 1.50112 117.382 0.916616C118.771 0.305539 120.336 0 122.078 0C123.439 0 124.678 0.18598 125.794 0.55794C126.91 0.9299 127.904 1.4347 128.775 2.07235L128.53 7.29307H126.039L125.182 2.7897C124.174 2.25833 123.058 1.99264 121.833 1.99264C120.281 1.99264 118.975 2.37789 117.913 3.14837C116.851 3.89229 116.32 5.00817 116.32 6.49601C116.32 7.71817 116.715 8.72777 117.505 9.52483C118.321 10.3219 119.465 10.9994 120.935 11.5573L122.568 12.1551C125.236 13.1647 127.142 14.3072 128.285 15.5825C129.428 16.8312 130 18.3987 130 20.2851C130 21.8526 129.578 23.2076 128.734 24.3501C127.917 25.466 126.788 26.3294 125.345 26.9405C123.902 27.5516 122.228 27.8571 120.322 27.8571Z" fill="#B3B3B3"/>
</svg>
