<svg width="117" height="32" viewBox="0 0 117 32" fill="none" xmlns="http://www.w3.org/2000/svg">
<path d="M50.6496 20.9406V29.689H43.2021V3.39891H46.1631C46.881 3.39891 47.9502 3.369 49.371 3.30919C50.7917 3.23441 51.9656 3.19702 52.8927 3.19702C56.1229 3.19702 58.5306 3.90736 60.1159 5.32805C61.7159 6.74873 62.5159 8.92459 62.5159 11.8557C62.5159 13.5903 62.1347 15.1308 61.3719 16.4767C60.6243 17.8226 59.6297 18.8918 58.3885 19.6843C59.0615 19.8488 59.6373 20.2302 60.1159 20.8283C60.6093 21.4267 60.9907 22.1368 61.2599 22.9594C61.5291 23.767 61.7608 24.5896 61.9552 25.427C62.1646 26.2494 62.3964 27.0645 62.6505 27.872C62.9197 28.6795 63.2114 29.2852 63.5253 29.689H55.248C55.0835 29.4796 54.9565 28.8965 54.8668 27.9393C54.777 26.9673 54.6499 25.8082 54.4854 24.4623C54.3358 23.1015 54.119 21.965 53.8348 21.0528C53.8049 21.0528 53.7675 21.0528 53.7228 21.0528C53.4386 21.0528 53.132 21.0528 52.803 21.0528C52.4889 21.0378 52.2124 21.0229 51.9731 21.0079C51.7338 20.9928 51.4795 20.978 51.2103 20.9629C50.9562 20.9481 50.7691 20.9406 50.6496 20.9406ZM50.6496 16.7683H51.3675C51.7413 16.7683 52.0553 16.7532 52.3096 16.7233C52.5637 16.6934 52.8404 16.6412 53.1395 16.5664C53.4536 16.4767 53.7077 16.3421 53.9021 16.1626C54.1115 15.9831 54.3059 15.7513 54.4854 15.4673C54.6649 15.1831 54.7995 14.8167 54.8892 14.368C54.9788 13.9195 55.0238 13.396 55.0238 12.7978V11.0258C55.0238 9.72461 54.6798 8.81988 53.992 8.31141C53.319 7.78807 52.347 7.52637 51.0757 7.52637H50.6496V16.7683ZM74.2208 27.4682C74.8789 27.4682 75.3798 27.199 75.7238 26.6607C76.0827 26.1073 76.2622 25.3522 76.2622 24.395V17.3066C76.2622 14.3906 75.5742 12.9324 74.1984 12.9324C73.5553 12.9324 73.0544 13.1941 72.6955 13.7176C72.3365 14.2409 72.1572 14.9812 72.1572 15.9383V23.2286C72.1572 26.055 72.845 27.4682 74.2208 27.4682ZM74.0414 30.16C70.6167 30.16 68.1119 29.3824 66.5267 27.8271C64.9415 26.2719 64.149 23.7893 64.149 20.3798C64.149 17 64.949 14.4579 66.5491 12.7529C68.1493 11.0331 70.7513 10.1733 74.3554 10.1733C77.8698 10.1733 80.4046 10.9959 81.9597 12.6409C83.5301 14.2708 84.3151 16.7459 84.3151 20.0657C84.3151 23.5053 83.4852 26.0475 81.8251 27.6925C80.1802 29.3375 77.5855 30.16 74.0414 30.16ZM92.0079 30.16C89.9891 30.16 88.5758 29.5544 87.7683 28.3431C86.9756 27.1317 86.5794 25.083 86.5794 22.1968V14.5699H85.0316V11.4519L87.6784 10.622L89.9665 5.39534H93.9146V10.622H97.5934V14.5699H93.8473V22.9145C93.8473 24.111 94.0193 24.9035 94.3633 25.2924C94.7071 25.6811 95.2381 25.8755 95.9558 25.8755C96.2699 25.8755 96.5539 25.8381 96.8082 25.7635C97.0624 25.6887 97.2718 25.584 97.4363 25.4494V28.5C97.212 28.7245 96.9205 28.9487 96.5614 29.173C96.2026 29.3824 95.6045 29.5993 94.767 29.8236C93.9444 30.0478 93.0247 30.16 92.0079 30.16ZM109.646 18.0918C109.646 16.1925 109.548 14.8466 109.354 14.0541C109.16 13.2614 108.801 12.8651 108.277 12.8651C107.829 12.8651 107.462 12.9475 107.178 13.1119C106.894 13.2614 106.685 13.5082 106.55 13.8522C106.415 14.1811 106.326 14.5251 106.281 14.884C106.251 15.228 106.236 15.6692 106.236 16.2075V18.0918H109.646ZM107.851 30.16C106.176 30.16 104.718 29.9059 103.477 29.3974C102.251 28.8889 101.279 28.1786 100.561 27.2663C99.8579 26.3541 99.3421 25.3298 99.013 24.1931C98.684 23.0418 98.5195 21.7632 98.5195 20.3573C98.5195 17.0076 99.372 14.4727 101.077 12.7529C102.782 11.0331 105.167 10.1733 108.232 10.1733C111.179 10.1733 113.287 10.8686 114.558 12.2595C115.829 13.6353 116.465 15.856 116.465 18.9217V21.4116H106.214V21.8378C106.214 22.7201 106.303 23.4455 106.483 24.0138C106.677 24.582 106.954 25.0007 107.313 25.2698C107.672 25.539 108.038 25.7185 108.412 25.8082C108.786 25.8981 109.242 25.9428 109.78 25.9428C110.304 25.9428 110.864 25.8755 111.463 25.7409C112.076 25.6063 112.689 25.3971 113.302 25.1129C113.93 24.8287 114.453 24.4922 114.872 24.1035L116.196 26.3691C115.642 27.2663 114.827 28.0216 113.751 28.6346C112.689 29.2329 111.664 29.6367 110.678 29.8459C109.691 30.0553 108.748 30.16 107.851 30.16Z" fill="#B3B3B3"/>
<path d="M10.959 7.81601C7.6776 5.94419 7.98798 1.87076 11.4647 0.295671C17.7646 -1.24496 18.4864 3.54631 16.9274 7.46971C15.3497 13.157 21.291 13.0515 21.7323 9.84453C22.6016 5.50116 26.4094 3.54724 29.3698 5.98545C32.4078 8.84796 31.0757 14.6148 25.0706 14.0501C21.2051 13.6855 20.3556 18.6699 25.2731 19.047C33.0449 19.4986 35.5198 24.276 32.7585 27.5074C28.9017 31.0812 23.6691 26.4601 21.783 22.9062C20.1432 20.7107 17.606 22.9321 18.546 24.4399C21.6769 29.0316 19.2509 31.8068 15.9159 31.6631C12.6917 31.4626 10.8613 29.5258 12.7293 24.7867C13.6691 21.8425 10.6566 21.1573 8.73339 23.5011C5.91019 28.1271 1.77244 26.7281 0.539896 24.4896C-0.242169 22.6918 -0.164519 18.3926 6.35632 18.8997C10.3807 19.8757 9.19616 15.9367 6.20439 15.6838C3.97491 15.5793 -1.15108 13.9608 0.691584 9.895C2.46166 7.28689 6.71033 7.11895 8.73363 11.3795C9.46602 12.3778 10.7499 13.9842 13.0833 12.5666C13.9298 11.3407 13.3751 9.28681 10.959 7.81601Z" fill="#B3B3B3"/>
</svg>
