<svg width="117" height="33" viewBox="0 0 117 33" fill="none" xmlns="http://www.w3.org/2000/svg">
<path d="M50.7409 21.7916V30.5398H43.2937V4.25046H46.2546C46.9725 4.25046 48.0417 4.22056 49.4623 4.16075C50.883 4.08597 52.0569 4.04858 52.984 4.04858C56.2141 4.04858 58.6218 4.75891 60.2069 6.17955C61.8069 7.6002 62.6069 9.77599 62.6069 12.707C62.6069 14.4416 62.2257 15.982 61.4629 17.3279C60.7154 18.6738 59.7208 19.7429 58.4797 20.5354C59.1526 20.6999 59.7284 21.0813 60.2069 21.6794C60.7003 22.2777 61.0817 22.9879 61.3509 23.8104C61.6201 24.618 61.8519 25.4405 62.0462 26.2779C62.2556 27.1003 62.4874 27.9154 62.7415 28.7229C63.0107 29.5304 63.3024 30.136 63.6163 30.5398H55.3392C55.1748 30.3304 55.0477 29.7473 54.958 28.7902C54.8682 27.8182 54.7411 26.6591 54.5766 25.3133C54.427 23.9526 54.2103 22.8161 53.9261 21.9039C53.8962 21.9039 53.8588 21.9039 53.8141 21.9039C53.5298 21.9039 53.2233 21.9039 52.8943 21.9039C52.5802 21.8888 52.3037 21.874 52.0644 21.8589C51.8251 21.8439 51.5708 21.829 51.3016 21.814C51.0475 21.7992 50.8605 21.7916 50.7409 21.7916ZM50.7409 17.6194H51.4588C51.8327 17.6194 52.1466 17.6044 52.4009 17.5745C52.655 17.5446 52.9317 17.4924 53.2308 17.4176C53.5449 17.3279 53.799 17.1933 53.9934 17.0138C54.2028 16.8343 54.3971 16.6025 54.5766 16.3185C54.7562 16.0343 54.8907 15.6679 54.9804 15.2192C55.0701 14.7708 55.115 14.2472 55.115 13.6491V11.8771C55.115 10.576 54.771 9.67129 54.0832 9.16283C53.4103 8.6395 52.4383 8.37781 51.167 8.37781H50.7409V17.6194ZM74.3114 28.3191C74.9695 28.3191 75.4705 28.0499 75.8145 27.5116C76.1733 26.9582 76.3528 26.2031 76.3528 25.246V18.1578C76.3528 15.2418 75.6648 13.7837 74.2891 13.7837C73.646 13.7837 73.1451 14.0454 72.7863 14.5689C72.4272 15.0922 72.2479 15.8324 72.2479 16.7896V24.0796C72.2479 26.9059 72.9357 28.3191 74.3114 28.3191ZM74.1321 31.0109C70.7075 31.0109 68.2028 30.2332 66.6176 28.6779C65.0325 27.1229 64.24 24.6403 64.24 21.2309C64.24 17.8512 65.04 15.3091 66.64 13.6042C68.2402 11.8845 70.8421 11.0247 74.446 11.0247C77.9603 11.0247 80.4951 11.8472 82.0502 13.4922C83.6205 15.1221 84.4055 17.5971 84.4055 20.9168C84.4055 24.3563 83.5756 26.8984 81.9156 28.5434C80.2707 30.1883 77.6761 31.0109 74.1321 31.0109ZM92.0981 31.0109C90.0793 31.0109 88.6661 30.4052 87.8586 29.1939C87.0659 27.9826 86.6697 25.934 86.6697 23.0479V15.4211H85.1219V12.3033L87.7688 11.4734L90.0567 6.24684H94.0047V11.4734H97.6835V15.4211H93.9374V23.7655C93.9374 24.962 94.1094 25.7544 94.4534 26.1434C94.7972 26.5321 95.3282 26.7264 96.0459 26.7264C96.36 26.7264 96.644 26.689 96.8983 26.6144C97.1524 26.5396 97.3618 26.4349 97.5263 26.3003V29.3509C97.3021 29.5753 97.0105 29.7996 96.6515 30.0238C96.2927 30.2332 95.6945 30.4501 94.8571 30.6744C94.0346 30.8986 93.1148 31.0109 92.0981 31.0109ZM109.735 18.9429C109.735 17.0437 109.638 15.6978 109.444 14.9053C109.249 14.1127 108.89 13.7164 108.367 13.7164C107.918 13.7164 107.552 13.7988 107.268 13.9632C106.984 14.1127 106.774 14.3595 106.64 14.7035C106.505 15.0324 106.416 15.3764 106.371 15.7352C106.341 16.0792 106.326 16.5204 106.326 17.0587V18.9429H109.735ZM107.941 31.0109C106.266 31.0109 104.808 30.7567 103.567 30.2483C102.341 29.7398 101.369 29.0294 100.651 28.1172C99.9479 27.205 99.4321 26.1808 99.103 25.0441C98.774 23.8928 98.6095 22.6142 98.6095 21.2084C98.6095 17.8587 99.462 15.3239 101.167 13.6042C102.871 11.8845 105.257 11.0247 108.322 11.0247C111.268 11.0247 113.377 11.72 114.648 13.1108C115.919 14.4865 116.555 16.7072 116.555 19.7728V22.2627H106.303V22.6888C106.303 23.5712 106.393 24.2965 106.573 24.8648C106.767 25.433 107.044 25.8516 107.403 26.1208C107.761 26.39 108.128 26.5695 108.502 26.6591C108.876 26.749 109.332 26.7937 109.87 26.7937C110.393 26.7937 110.954 26.7264 111.552 26.5918C112.165 26.4573 112.779 26.2481 113.392 25.9638C114.02 25.6796 114.543 25.3432 114.962 24.9544L116.285 27.22C115.732 28.1172 114.917 28.8725 113.84 29.4855C112.779 30.0838 111.754 30.4875 110.767 30.6967C109.78 30.9061 108.838 31.0109 107.941 31.0109Z" fill="black"/>
<path d="M11.0514 8.66735C7.77014 6.79558 8.0805 2.72227 11.5571 1.14723C17.8569 -0.39336 18.5787 4.39778 17.0196 8.32107C15.442 14.0082 21.3831 13.9027 21.8245 10.6958C22.6938 6.35257 26.5014 4.39871 29.4617 6.83685C32.4996 9.69928 31.1676 15.4659 25.1626 14.9013C21.2972 14.5367 20.4477 19.521 25.3651 19.898C33.1367 20.3497 35.6115 25.1269 32.8503 28.3582C28.9936 31.9319 23.7611 27.311 21.8752 23.7571C20.2354 21.5617 17.6982 23.783 18.6382 25.2908C21.7691 29.8824 19.3431 32.6574 16.0082 32.5137C12.7841 32.3133 10.9538 30.3766 12.8217 25.6375C13.7615 22.6935 10.749 22.0082 8.82589 24.352C6.00277 28.9779 1.86514 27.579 0.63263 25.3405C-0.149414 23.5427 -0.0717654 19.2437 6.44889 19.7507C10.4732 20.7267 9.28866 16.7879 6.29697 16.5349C4.06755 16.4304 -1.0583 14.812 0.784313 10.7463C2.55434 8.13825 6.80289 7.97031 8.82613 12.2307C9.5585 13.229 10.8424 14.8354 13.1757 13.4178C14.0222 12.1919 13.4675 10.1381 11.0514 8.66735Z" fill="#CD2222"/>
</svg>
