<svg width="150" height="29" viewBox="0 0 150 29" fill="none" xmlns="http://www.w3.org/2000/svg">
<path d="M14.8329 25.8883C14.5695 26.2119 14.2378 26.4733 13.8617 26.6538C13.4856 26.8344 13.0742 26.9296 12.657 26.9327C11.8257 26.9327 11.0335 26.5526 10.4811 25.8883L2.73502 16.5667C2.25958 15.9826 2 15.2524 2 14.4992C2 13.746 2.25958 13.0159 2.73502 12.4317L10.4811 3.11009C10.7445 2.78653 11.0761 2.52513 11.4523 2.34459C11.8284 2.16404 12.2398 2.0688 12.657 2.06567C13.4883 2.06567 14.2804 2.44578 14.8329 3.11009L22.5789 12.4317C23.0544 13.0159 23.314 13.746 23.314 14.4992C23.314 15.2524 23.0544 15.9826 22.5789 16.5667L14.8329 25.8883Z" stroke="#B3B3B3" stroke-width="2.5" stroke-linecap="round" stroke-linejoin="round"/>
<path d="M28.6429 2.06567L36.7887 12.4317C37.2641 13.0159 37.5237 13.746 37.5237 14.4992C37.5237 15.2524 37.2641 15.9826 36.7887 16.5667L28.6429 26.9327" stroke="#B3B3B3" stroke-width="2.5" stroke-linecap="round" stroke-linejoin="round"/>
<path d="M21.5381 2.06567C24.7192 6.11386 29.6838 12.4317 29.6838 12.4317C30.1593 13.0159 30.4188 13.746 30.4188 14.4992C30.4188 15.2524 30.1593 15.9826 29.6838 16.5667L21.5381 26.9327" stroke="#B3B3B3" stroke-width="2.5" stroke-linecap="round" stroke-linejoin="round"/>
<path d="M45.739 7.17236H48.803V24.7125C48.803 25.275 48.8918 25.645 49.0694 25.8227C49.247 26.0003 49.6171 26.0891 50.1796 26.0891H51.9558C52.4886 26.0891 52.8735 25.9707 53.1103 25.7339C53.3472 25.497 53.4656 25.0826 53.4656 24.4905V22.9807H53.6432V26.0003C53.6432 27.0068 53.3916 27.7173 52.8883 28.1318C52.4146 28.5166 51.793 28.709 51.0233 28.709H49.247C48.0629 28.709 47.1748 28.4278 46.5827 27.8653C46.0202 27.2732 45.739 26.3851 45.739 25.201V7.17236ZM53.4656 7.17236H56.5295V28.709H53.4656V7.17236Z" fill="#B3B3B3"/>
<path d="M64.0344 28.709H60.9704V7.17236H64.0344V28.709ZM71.761 28.709H68.697V11.1689C68.697 10.5768 68.6082 10.2067 68.4306 10.0587C68.2825 9.8811 67.9125 9.79228 67.3204 9.79228H65.5442C65.0113 9.79228 64.6265 9.9107 64.3897 10.1475C64.1528 10.3844 64.0344 10.7988 64.0344 11.3909V12.9007H63.8568V9.8811C63.8568 8.87457 64.0936 8.17889 64.5673 7.79404C65.0705 7.37959 65.707 7.17236 66.4767 7.17236H68.2529C69.4371 7.17236 70.3104 7.4684 70.8729 8.06047C71.4649 8.62294 71.761 9.49625 71.761 10.6804V28.709Z" fill="#B3B3B3"/>
<path d="M79.2658 28.709H76.2019V7.17236H79.2658V28.709ZM76.2019 4.68565V1.08881H79.4435V4.68565H76.2019Z" fill="#B3B3B3"/>
<path d="M91.3965 24.7125V17.1636C91.3965 16.5715 91.3077 16.2015 91.1301 16.0535C90.9821 15.8758 90.612 15.787 90.0199 15.787H87.0004C85.8162 15.787 84.9281 15.5058 84.336 14.9433C83.7736 14.3512 83.4923 13.4631 83.4923 12.279V4.59684C83.4923 3.4127 83.7736 2.53939 84.336 1.97692C84.9281 1.38485 85.8162 1.08881 87.0004 1.08881H90.9081C92.0922 1.08881 92.9655 1.38485 93.528 1.97692C94.1201 2.53939 94.4161 3.4127 94.4161 4.59684V8.85977H91.3521V5.0853C91.3521 4.49323 91.2633 4.12318 91.0857 3.97517C90.9377 3.79754 90.5676 3.70873 89.9755 3.70873H87.9329C87.3704 3.70873 87.0004 3.79754 86.8228 3.97517C86.6451 4.12318 86.5563 4.49323 86.5563 5.0853V11.7905C86.5563 12.353 86.6451 12.723 86.8228 12.9007C87.0004 13.0783 87.3704 13.1671 87.9329 13.1671H90.9525C92.1366 13.1671 93.0099 13.4631 93.5724 14.0552C94.1645 14.6177 94.4605 15.491 94.4605 16.6751V25.201C94.4605 26.3851 94.1645 27.2732 93.5724 27.8653C93.0099 28.4278 92.1366 28.709 90.9525 28.709H87.0892C85.905 28.709 85.0169 28.4278 84.4249 27.8653C83.8624 27.2732 83.5812 26.3851 83.5812 25.201V20.9381H86.6451V24.7125C86.6451 25.275 86.7339 25.645 86.9116 25.8227C87.0892 26.0003 87.4592 26.0891 88.0217 26.0891H90.0199C90.612 26.0891 90.9821 26.0003 91.1301 25.8227C91.3077 25.645 91.3965 25.275 91.3965 24.7125Z" fill="#B3B3B3"/>
<path d="M101.927 1V24.4905C101.927 25.053 102.016 25.423 102.194 25.6006C102.371 25.7783 102.741 25.8671 103.304 25.8671H104.991V28.709H102.371C101.187 28.709 100.299 28.4278 99.7069 27.8653C99.1445 27.2732 98.8632 26.3851 98.8632 25.201V1H101.927ZM104.991 7.17236V9.79228H96.9094V7.17236H104.991Z" fill="#B3B3B3"/>
<path d="M110.731 18.7622H107.667V10.6804C107.667 9.49625 107.949 8.62294 108.511 8.06047C109.103 7.4684 109.991 7.17236 111.175 7.17236H112.952C113.721 7.17236 114.343 7.37959 114.817 7.79404C115.32 8.17889 115.571 8.87457 115.571 9.8811V12.6342H115.394V11.3909C115.394 10.7988 115.275 10.3844 115.039 10.1475C114.802 9.9107 114.417 9.79228 113.884 9.79228H112.108C111.545 9.79228 111.175 9.8811 110.998 10.0587C110.82 10.2067 110.731 10.5768 110.731 11.1689V18.7622ZM118.458 28.709H115.394V7.17236H118.458V28.709ZM107.667 17.1192H110.731V24.7125C110.731 25.275 110.82 25.645 110.998 25.8227C111.175 26.0003 111.545 26.0891 112.108 26.0891H113.884C114.417 26.0891 114.802 25.9707 115.039 25.7339C115.275 25.497 115.394 25.0826 115.394 24.4905V23.336H115.571V26.0003C115.571 27.0068 115.32 27.7173 114.817 28.1318C114.343 28.5166 113.721 28.709 112.952 28.709H111.175C109.991 28.709 109.103 28.4278 108.511 27.8653C107.949 27.2732 107.667 26.3851 107.667 25.201V17.1192Z" fill="#B3B3B3"/>
<path d="M125.746 11.1689V24.7125C125.746 25.275 125.835 25.645 126.012 25.8227C126.19 26.0003 126.56 26.0891 127.122 26.0891H128.188V28.709H126.19C125.006 28.709 124.118 28.4278 123.526 27.8653C122.963 27.2732 122.682 26.3851 122.682 25.201V10.6804C122.682 9.49625 122.963 8.62294 123.526 8.06047C124.118 7.4684 125.006 7.17236 126.19 7.17236H128.499V9.79228H127.122C126.56 9.79228 126.19 9.8811 126.012 10.0587C125.835 10.2067 125.746 10.5768 125.746 11.1689ZM130.719 13.5668V11.1689C130.719 10.5768 130.63 10.2067 130.453 10.0587C130.305 9.8811 129.935 9.79228 129.343 9.79228H127.833V7.17236H130.275C131.459 7.17236 132.333 7.4684 132.895 8.06047C133.487 8.62294 133.783 9.49625 133.783 10.6804V13.5668H130.719ZM130.719 24.7125V22.3146H133.783V25.201C133.783 26.3851 133.487 27.2732 132.895 27.8653C132.333 28.4278 131.459 28.709 130.275 28.709H127.833V26.0891H129.343C129.935 26.0891 130.305 26.0003 130.453 25.8227C130.63 25.645 130.719 25.275 130.719 24.7125Z" fill="#B3B3B3"/>
<path d="M140.852 28.709H137.788V1.17762H140.852V28.709ZM141.829 17.3412H144.982L150 28.709H146.714L141.829 17.3412ZM144.982 17.3412H141.829L146.714 7.17236H150L144.982 17.3412Z" fill="#B3B3B3"/>
</svg>
