<svg width="151" height="28" viewBox="0 0 151 28" fill="none" xmlns="http://www.w3.org/2000/svg">
<path d="M14.9654 25.1415C14.702 25.4651 14.3704 25.7265 13.9943 25.907C13.6181 26.0876 13.2068 26.1828 12.7896 26.1859C11.9583 26.1859 11.1661 25.8058 10.6137 25.1415L2.86759 15.8199C2.39215 15.2357 2.13257 14.5056 2.13257 13.7524C2.13257 12.9992 2.39215 12.269 2.86759 11.6849L10.6137 2.36326C10.8771 2.0397 11.2087 1.77831 11.5848 1.59776C11.961 1.41721 12.3723 1.32198 12.7896 1.31885C13.6208 1.31885 14.413 1.69896 14.9654 2.36326L22.7115 11.6849C23.187 12.269 23.4465 12.9992 23.4465 13.7524C23.4465 14.5056 23.187 15.2357 22.7115 15.8199L14.9654 25.1415Z" stroke="black" stroke-width="2.5" stroke-linecap="round" stroke-linejoin="round"/>
<path d="M28.7755 1.31885L36.9213 11.6849C37.3967 12.269 37.6563 12.9992 37.6563 13.7524C37.6563 14.5056 37.3967 15.2357 36.9213 15.8199L28.7755 26.1859" stroke="black" stroke-width="2.5" stroke-linecap="round" stroke-linejoin="round"/>
<path d="M21.6707 1.31885C24.8518 5.36703 29.8164 11.6849 29.8164 11.6849C30.2918 12.269 30.5514 12.9992 30.5514 13.7524C30.5514 14.5056 30.2918 15.2357 29.8164 15.8199L21.6707 26.1859" stroke="black" stroke-width="2.5" stroke-linecap="round" stroke-linejoin="round"/>
<path d="M45.8716 6.42554H48.9356V23.9657C48.9356 24.5282 49.0244 24.8982 49.2021 25.0758C49.3797 25.2535 49.7497 25.3423 50.3122 25.3423H52.0884C52.6213 25.3423 53.0061 25.2239 53.243 24.987C53.4798 24.7502 53.5982 24.3357 53.5982 23.7437V22.2339H53.7758V25.2535C53.7758 26.26 53.5242 26.9705 53.0209 27.3849C52.5473 27.7698 51.9256 27.9622 51.1559 27.9622H49.3797C48.1955 27.9622 47.3074 27.681 46.7153 27.1185C46.1529 26.5264 45.8716 25.6383 45.8716 24.4542V6.42554ZM53.5982 6.42554H56.6622V27.9622H53.5982V6.42554Z" fill="#02D9FF"/>
<path d="M64.167 27.9622H61.1031V6.42554H64.167V27.9622ZM71.8936 27.9622H68.8296V10.422C68.8296 9.82996 68.7408 9.45991 68.5632 9.31189C68.4152 9.13427 68.0451 9.04546 67.4531 9.04546H65.6768C65.144 9.04546 64.7591 9.16387 64.5223 9.4007C64.2855 9.63753 64.167 10.052 64.167 10.6441V12.1538H63.9894V9.13427C63.9894 8.12775 64.2263 7.43206 64.6999 7.04721C65.2032 6.63276 65.8397 6.42554 66.6094 6.42554H68.3856C69.5697 6.42554 70.443 6.72157 71.0055 7.31364C71.5976 7.87611 71.8936 8.74942 71.8936 9.93357V27.9622Z" fill="#02D9FF"/>
<path d="M79.3985 27.9622H76.3345V6.42554H79.3985V27.9622ZM76.3345 3.93882V0.34198H79.5761V3.93882H76.3345Z" fill="#02D9FF"/>
<path d="M91.5292 23.9657V16.4168C91.5292 15.8247 91.4403 15.4547 91.2627 15.3066C91.1147 15.129 90.7447 15.0402 90.1526 15.0402H87.133C85.9489 15.0402 85.0608 14.759 84.4687 14.1965C83.9062 13.6044 83.625 12.7163 83.625 11.5322V3.85002C83.625 2.66587 83.9062 1.79256 84.4687 1.23009C85.0608 0.63802 85.9489 0.341983 87.133 0.341983H91.0407C92.2248 0.341983 93.0981 0.63802 93.6606 1.23009C94.2527 1.79256 94.5487 2.66587 94.5487 3.85002V8.11294H91.4847V4.33848C91.4847 3.7464 91.3959 3.37636 91.2183 3.22834C91.0703 3.05072 90.7002 2.96191 90.1082 2.96191H88.0655C87.5031 2.96191 87.133 3.05072 86.9554 3.22834C86.7778 3.37636 86.689 3.7464 86.689 4.33848V11.0437C86.689 11.6062 86.7778 11.9762 86.9554 12.1538C87.133 12.3315 87.5031 12.4203 88.0655 12.4203H91.0851C92.2692 12.4203 93.1426 12.7163 93.705 13.3084C94.2971 13.8709 94.5931 14.7442 94.5931 15.9283V24.4542C94.5931 25.6383 94.2971 26.5264 93.705 27.1185C93.1426 27.681 92.2692 27.9622 91.0851 27.9622H87.2218C86.0377 27.9622 85.1496 27.681 84.5575 27.1185C83.995 26.5264 83.7138 25.6383 83.7138 24.4542V20.1912H86.7778V23.9657C86.7778 24.5282 86.8666 24.8982 87.0442 25.0758C87.2218 25.2535 87.5919 25.3423 88.1543 25.3423H90.1526C90.7447 25.3423 91.1147 25.2535 91.2627 25.0758C91.4403 24.8982 91.5292 24.5282 91.5292 23.9657Z" fill="black"/>
<path d="M102.06 0.253174V23.7437C102.06 24.3061 102.149 24.6762 102.326 24.8538C102.504 25.0314 102.874 25.1202 103.436 25.1202H105.124V27.9622H102.504C101.32 27.9622 100.432 27.681 99.8396 27.1185C99.2771 26.5264 98.9959 25.6383 98.9959 24.4542V0.253174H102.06ZM105.124 6.42554V9.04546H97.042V6.42554H105.124Z" fill="black"/>
<path d="M110.864 18.0154H107.8V9.93357C107.8 8.74942 108.081 7.87611 108.644 7.31364C109.236 6.72157 110.124 6.42554 111.308 6.42554H113.084C113.854 6.42554 114.476 6.63276 114.949 7.04721C115.452 7.43206 115.704 8.12775 115.704 9.13427V11.8874H115.526V10.6441C115.526 10.052 115.408 9.63753 115.171 9.4007C114.934 9.16387 114.55 9.04546 114.017 9.04546H112.24C111.678 9.04546 111.308 9.13427 111.13 9.31189C110.953 9.45991 110.864 9.82996 110.864 10.422V18.0154ZM118.59 27.9622H115.526V6.42554H118.59V27.9622ZM107.8 16.3724H110.864V23.9657C110.864 24.5282 110.953 24.8982 111.13 25.0758C111.308 25.2535 111.678 25.3423 112.24 25.3423H114.017C114.55 25.3423 114.934 25.2239 115.171 24.987C115.408 24.7502 115.526 24.3357 115.526 23.7437V22.5891H115.704V25.2535C115.704 26.26 115.452 26.9705 114.949 27.3849C114.476 27.7698 113.854 27.9622 113.084 27.9622H111.308C110.124 27.9622 109.236 27.681 108.644 27.1185C108.081 26.5264 107.8 25.6383 107.8 24.4542V16.3724Z" fill="black"/>
<path d="M125.879 10.422V23.9657C125.879 24.5282 125.967 24.8982 126.145 25.0758C126.323 25.2535 126.693 25.3423 127.255 25.3423H128.321V27.9622H126.323C125.138 27.9622 124.25 27.681 123.658 27.1185C123.096 26.5264 122.815 25.6383 122.815 24.4542V9.93357C122.815 8.74942 123.096 7.87611 123.658 7.31364C124.25 6.72157 125.138 6.42554 126.323 6.42554H128.632V9.04546H127.255C126.693 9.04546 126.323 9.13427 126.145 9.31189C125.967 9.45991 125.879 9.82996 125.879 10.422ZM130.852 12.8199V10.422C130.852 9.82996 130.763 9.45991 130.586 9.31189C130.437 9.13427 130.067 9.04546 129.475 9.04546H127.966V6.42554H130.408C131.592 6.42554 132.465 6.72157 133.028 7.31364C133.62 7.87611 133.916 8.74942 133.916 9.93357V12.8199H130.852ZM130.852 23.9657V21.5678H133.916V24.4542C133.916 25.6383 133.62 26.5264 133.028 27.1185C132.465 27.681 131.592 27.9622 130.408 27.9622H127.966V25.3423H129.475C130.067 25.3423 130.437 25.2535 130.586 25.0758C130.763 24.8982 130.852 24.5282 130.852 23.9657Z" fill="black"/>
<path d="M140.985 27.9622H137.921V0.430793H140.985V27.9622ZM141.962 16.5944H145.115L150.133 27.9622H146.847L141.962 16.5944ZM145.115 16.5944H141.962L146.847 6.42554H150.133L145.115 16.5944Z" fill="black"/>
</svg>
